# Blender 5.1.2
# www.blender.org
mtllib lightning_mesh_rotated.mtl
o Plane
v -0.174004 12.033465 0.097400
v 0.000000 0.011608 -1.000000
v -0.000000 2.011608 -3.193088
v 0.195090 0.011608 -0.980785
v 0.622941 2.011608 -3.131734
v 0.382683 0.011608 -0.923880
v 1.221942 2.011608 -2.950029
v 0.555570 0.011608 -0.831470
v 1.773985 2.011608 -2.654956
v 0.707107 0.011608 -0.707107
v 2.257854 2.011608 -2.257854
v 0.831470 0.011608 -0.555570
v 2.654956 2.011608 -1.773985
v 0.923880 0.011608 -0.382683
v 2.950029 2.011608 -1.221942
v 0.980785 0.011608 -0.195090
v 3.131734 2.011608 -0.622941
v 1.000000 0.011608 0.000000
v 3.193088 2.011608 0.000000
v 0.980785 0.011608 0.195090
v 3.131734 2.011608 0.622941
v 0.923880 0.011608 0.382683
v 2.950029 2.011608 1.221942
v 0.831470 0.011608 0.555570
v 2.654956 2.011608 1.773985
v 0.707107 0.011608 0.707107
v 2.257854 2.011608 2.257854
v 0.555570 0.011608 0.831470
v 1.773985 2.011608 2.654956
v 0.382683 0.011608 0.923880
v 1.221942 2.011608 2.950029
v 0.195090 0.011608 0.980785
v 0.622941 2.011608 3.131734
v 0.000000 0.011608 1.000000
v -0.000000 2.011608 3.193088
v -0.195090 0.011608 0.980785
v -0.622941 2.011608 3.131734
v -0.382683 0.011608 0.923880
v -1.221942 2.011608 2.950029
v -0.555570 0.011608 0.831470
v -1.773985 2.011608 2.654956
v -0.707107 0.011608 0.707107
v -2.257854 2.011608 2.257854
v -0.831470 0.011608 0.555570
v -2.654956 2.011608 1.773985
v -0.923880 0.011608 0.382683
v -2.950029 2.011608 1.221942
v -0.980785 0.011608 0.195090
v -3.131734 2.011608 0.622941
v -1.000000 0.011608 0.000000
v -3.193088 2.011608 0.000000
v -0.980785 0.011608 -0.195090
v -3.131734 2.011608 -0.622941
v -0.923880 0.011608 -0.382683
v -2.950029 2.011608 -1.221942
v -0.831470 0.011608 -0.555570
v -2.654956 2.011608 -1.773985
v -0.707107 0.011608 -0.707107
v -2.257854 2.011608 -2.257854
v -0.555570 0.011608 -0.831470
v -1.773985 2.011608 -2.654956
v -0.382683 0.011608 -0.923880
v -1.221942 2.011608 -2.950029
v -0.195090 0.011608 -0.980785
v -0.622941 2.011608 -3.131734
v -1.530212 0.000000 1.530212
v 1.530212 0.000000 1.530212
v -1.530212 0.000000 -1.530212
v 1.530212 0.000000 -1.530212
v -0.442210 14.757065 -0.744602
v 0.000000 -0.676675 -0.535936
v 0.442210 14.757065 1.049220
v -0.000000 -0.676675 0.535935
v -0.262468 13.941175 -0.434776
v -0.083236 13.122102 -0.094043
v -0.097400 12.033464 -0.174004
v -0.428946 10.981105 -0.881956
v -0.744235 10.195390 -1.199313
v -1.334902 9.309863 -0.682024
v -1.534556 8.401996 0.574473
v -0.854820 7.494129 1.457920
v -0.267112 6.586261 1.763236
v -0.286192 5.678394 1.636957
v -0.487499 4.687274 0.903004
v -0.200392 3.543983 -0.151134
v 0.000000 2.382349 -1.022036
v 0.000000 1.462219 -1.138286
v 0.000000 0.481492 -0.871331
v 0.000000 -0.164868 -0.605149
v -0.000000 -0.164868 0.522347
v -0.000000 0.481491 0.404369
v -0.000000 1.328364 0.334147
v -0.000000 2.346911 0.755713
v -0.026551 3.546811 1.739186
v 0.350930 4.743054 2.716727
v 1.002004 5.678394 3.166842
v 1.294857 6.586261 3.012337
v 0.854820 7.494129 2.495768
v -0.013524 8.401996 1.964913
v -0.588610 9.309863 1.309007
v -0.547951 10.138061 0.898279
v -0.042423 10.981091 1.394009
v 0.378790 12.033464 2.333195
v 0.633278 13.122101 2.194575
v 0.590310 13.941175 1.485709
vn -0.0000 0.7389 0.6738
vn -0.1315 0.7389 0.6609
vn -0.2579 0.7389 0.6225
vn -0.3744 0.7389 0.5603
vn -0.4765 0.7389 0.4765
vn -0.5603 0.7389 0.3744
vn -0.6225 0.7389 0.2579
vn -0.6609 0.7389 0.1315
vn -0.6738 0.7389 -0.0000
vn -0.6609 0.7389 -0.1315
vn -0.6225 0.7389 -0.2579
vn -0.5603 0.7389 -0.3744
vn -0.4765 0.7389 -0.4765
vn -0.3744 0.7389 -0.5603
vn -0.2579 0.7389 -0.6225
vn -0.1315 0.7389 -0.6609
vn -0.0000 0.7389 -0.6738
vn 0.1315 0.7389 -0.6609
vn 0.2579 0.7389 -0.6225
vn 0.3744 0.7389 -0.5603
vn 0.4765 0.7389 -0.4765
vn 0.5603 0.7389 -0.3744
vn 0.6225 0.7389 -0.2579
vn 0.6609 0.7389 -0.1315
vn 0.6738 0.7389 -0.0000
vn 0.6609 0.7389 0.1315
vn 0.6225 0.7389 0.2579
vn 0.5603 0.7389 0.3744
vn 0.4765 0.7389 0.4765
vn 0.3744 0.7389 0.5603
vn 0.2579 0.7389 0.6225
vn 0.1315 0.7389 0.6609
vn -0.0000 1.0000 -0.0000
vn -0.9058 0.0118 0.4236
vn -1.0000 -0.0000 -0.0000
vn -0.9170 0.0426 0.3967
vn -0.9478 0.1095 0.2994
vn -0.9639 0.1748 0.2006
vn -0.9310 0.3360 0.1424
vn -0.8943 0.4154 0.1665
vn -0.8528 0.4244 0.3043
vn -0.7365 0.3186 0.5967
vn -0.5905 0.0919 0.8018
vn -0.6268 0.0831 0.7747
vn -0.7883 0.0791 0.6102
vn -0.9296 -0.1233 0.3474
vn -0.9830 -0.1488 0.1075
vn -0.9987 -0.0477 0.0166
vn -0.9959 -0.0856 0.0299
vn -0.9637 -0.1747 0.2017
vn -0.8840 -0.0207 0.4671
vn -0.7508 0.1003 0.6529
vn -0.6472 0.0973 0.7561
vn -0.5788 0.0625 0.8130
vn -0.6516 0.1821 0.7364
vn -0.8138 0.4057 0.4161
vn -0.8939 0.4158 0.1673
vn -0.9504 0.2668 0.1598
vn -0.9639 0.1550 0.2163
vn -0.9536 0.1152 0.2780
vn -0.9254 0.0692 0.3727
vt 1.000000 0.000000
vt 0.968750 0.000000
vt 0.968750 1.000000
vt 1.000000 1.000000
vt 0.937500 0.000000
vt 0.937500 1.000000
vt 0.906250 0.000000
vt 0.906250 1.000000
vt 0.875000 0.000000
vt 0.875000 1.000000
vt 0.843750 0.000000
vt 0.843750 1.000000
vt 0.812500 0.000000
vt 0.812500 1.000000
vt 0.781250 0.000000
vt 0.781250 1.000000
vt 0.750000 0.000000
vt 0.750000 1.000000
vt 0.718750 0.000000
vt 0.718750 1.000000
vt 0.687500 0.000000
vt 0.687500 1.000000
vt 0.656250 0.000000
vt 0.656250 1.000000
vt 0.625000 0.000000
vt 0.625000 1.000000
vt 0.593750 0.000000
vt 0.593750 1.000000
vt 0.562500 0.000000
vt 0.562500 1.000000
vt 0.531250 0.000000
vt 0.531250 1.000000
vt 0.500000 0.000000
vt 0.500000 1.000000
vt 0.468750 0.000000
vt 0.468750 1.000000
vt 0.437500 0.000000
vt 0.437500 1.000000
vt 0.406250 0.000000
vt 0.406250 1.000000
vt 0.375000 0.000000
vt 0.375000 1.000000
vt 0.343750 0.000000
vt 0.343750 1.000000
vt 0.312500 0.000000
vt 0.312500 1.000000
vt 0.281250 0.000000
vt 0.281250 1.000000
vt 0.250000 0.000000
vt 0.250000 1.000000
vt 0.218750 0.000000
vt 0.218750 1.000000
vt 0.187500 0.000000
vt 0.187500 1.000000
vt 0.156250 0.000000
vt 0.156250 1.000000
vt 0.125000 0.000000
vt 0.125000 1.000000
vt 0.093750 0.000000
vt 0.093750 1.000000
vt 0.062500 0.000000
vt 0.062500 1.000000
vt 0.031250 0.000000
vt 0.031250 1.000000
vt 0.000000 0.000000
vt 0.000000 1.000000
vt 0.941176 0.000000
vt 0.941176 1.000000
vt 0.058824 0.000000
vt 0.058824 1.000000
vt 0.117647 0.000000
vt 0.117647 1.000000
vt 0.176471 0.000000
vt 0.176471 1.000000
vt 0.235294 0.000000
vt 0.235294 1.000000
vt 0.294118 0.000000
vt 0.294118 1.000000
vt 0.352941 0.000000
vt 0.352941 1.000000
vt 0.411765 0.000000
vt 0.411765 1.000000
vt 0.470588 0.000000
vt 0.470588 1.000000
vt 0.529412 0.000000
vt 0.529412 1.000000
vt 0.588235 0.000000
vt 0.588235 1.000000
vt 0.647059 0.000000
vt 0.647059 1.000000
vt 0.705882 0.000000
vt 0.705882 1.000000
vt 0.764706 0.000000
vt 0.764706 1.000000
vt 0.823529 0.000000
vt 0.823529 1.000000
vt 0.882353 0.000000
vt 0.882353 1.000000
s 1
usemtl Material.002
f 2/1/1 4/2/2 5/3/2 3/4/1
f 4/2/2 6/5/3 7/6/3 5/3/2
f 6/5/3 8/7/4 9/8/4 7/6/3
f 8/7/4 10/9/5 11/10/5 9/8/4
f 10/9/5 12/11/6 13/12/6 11/10/5
f 12/11/6 14/13/7 15/14/7 13/12/6
f 14/13/7 16/15/8 17/16/8 15/14/7
f 16/15/8 18/17/9 19/18/9 17/16/8
f 18/17/9 20/19/10 21/20/10 19/18/9
f 20/19/10 22/21/11 23/22/11 21/20/10
f 22/21/11 24/23/12 25/24/12 23/22/11
f 24/23/12 26/25/13 27/26/13 25/24/12
f 26/25/13 28/27/14 29/28/14 27/26/13
f 28/27/14 30/29/15 31/30/15 29/28/14
f 30/29/15 32/31/16 33/32/16 31/30/15
f 32/31/16 34/33/17 35/34/17 33/32/16
f 34/33/17 36/35/18 37/36/18 35/34/17
f 36/35/18 38/37/19 39/38/19 37/36/18
f 38/37/19 40/39/20 41/40/20 39/38/19
f 40/39/20 42/41/21 43/42/21 41/40/20
f 42/41/21 44/43/22 45/44/22 43/42/21
f 44/43/22 46/45/23 47/46/23 45/44/22
f 46/45/23 48/47/24 49/48/24 47/46/23
f 48/47/24 50/49/25 51/50/25 49/48/24
f 50/49/25 52/51/26 53/52/26 51/50/25
f 52/51/26 54/53/27 55/54/27 53/52/26
f 54/53/27 56/55/28 57/56/28 55/54/27
f 56/55/28 58/57/29 59/58/29 57/56/28
f 58/57/29 60/59/30 61/60/30 59/58/29
f 60/59/30 62/61/31 63/62/31 61/60/30
f 62/61/31 64/63/32 65/64/32 63/62/31
f 64/63/32 2/65/1 3/66/1 65/64/32
usemtl Material.003
f 66/65/33 67/1/33 69/4/33 68/66/33
usemtl Material.001
f 89/67/35 71/1/35 73/4/35 90/68/35
f 70/65/34 74/69/36 105/70/61 72/66/34
f 74/69/36 75/71/37 104/72/60 105/70/61
f 75/71/37 76/73/38 103/74/59 104/72/60
f 76/73/38 77/75/39 102/76/58 103/74/59
f 77/75/39 78/77/40 101/78/57 102/76/58
f 78/77/40 79/79/41 100/80/56 101/78/57
f 79/79/41 80/81/42 99/82/55 100/80/56
f 80/81/42 81/83/43 98/84/54 99/82/55
f 81/83/43 82/85/44 97/86/53 98/84/54
f 82/85/44 83/87/45 96/88/52 97/86/53
f 83/87/45 84/89/46 95/90/51 96/88/52
f 84/89/46 85/91/47 94/92/50 95/90/51
f 85/91/47 86/93/48 93/94/49 94/92/50
f 86/93/48 87/95/35 92/96/35 93/94/49
f 87/95/35 88/97/35 91/98/35 92/96/35
f 88/97/35 89/67/35 90/68/35 91/98/35
