# Blender 5.1.2
# www.blender.org
mtllib Twist.mtl
o Plane
v -0.176428 1.816648 0.022750
v -0.281856 1.816483 -0.023472
v -0.148865 1.648760 0.054868
v -0.143838 1.352561 0.040454
v -0.020286 0.901894 -0.019912
v 0.125817 0.370453 -0.010300
v 0.104848 0.048221 0.021111
v 0.076320 -0.108504 0.036837
v 0.206076 -0.118937 -0.028717
v 0.361834 0.029156 -0.082226
v 0.487793 0.334154 -0.135751
v 0.305874 0.825526 -0.258795
v -0.090791 1.309489 -0.231848
v -0.274553 1.641457 -0.091370
v 0.230696 0.029761 -0.031156
v -0.283410 1.671928 -0.077968
v -0.290138 1.700067 -0.066577
v -0.294658 1.725803 -0.056893
v -0.296892 1.749068 -0.048613
v -0.296762 1.769791 -0.041432
v -0.294190 1.787902 -0.035048
v -0.289099 1.803333 -0.029156
v -0.271163 1.825884 -0.017692
v -0.258862 1.832937 -0.011853
v -0.245131 1.837174 -0.005974
v -0.230593 1.838596 -0.000092
v -0.215869 1.837206 0.005756
v -0.201583 1.833006 0.011532
v -0.188356 1.825997 0.017199
v -0.167435 1.803584 0.028052
v -0.160156 1.788324 0.033137
v -0.154765 1.770542 0.037910
v -0.151055 1.750380 0.042308
v -0.148818 1.727980 0.046266
v -0.147846 1.703482 0.049722
v -0.147931 1.677028 0.052610
v -0.150404 1.618777 0.056427
v -0.152163 1.587008 0.057203
v -0.153724 1.553339 0.057107
v -0.154665 1.517659 0.056051
v -0.154567 1.479855 0.053946
v -0.153009 1.439812 0.050704
v -0.149573 1.397419 0.046236
v -0.135492 1.305148 0.033355
v -0.124658 1.255167 0.025278
v -0.111565 1.202628 0.016649
v -0.096444 1.147541 0.007892
v -0.079525 1.089914 -0.000568
v -0.061039 1.029758 -0.008305
v -0.041216 0.967081 -0.014895
v 0.001455 0.834360 -0.023045
v 0.023449 0.765264 -0.024433
v 0.045073 0.695544 -0.024330
v 0.065703 0.626139 -0.022988
v 0.084715 0.557989 -0.020662
v 0.101488 0.492032 -0.017602
v 0.115396 0.429207 -0.014064
v 0.132314 0.316492 -0.006516
v 0.135203 0.267174 -0.002737
v 0.134985 0.222133 0.001060
v 0.132161 0.181000 0.004898
v 0.127234 0.143409 0.008800
v 0.120705 0.108994 0.012787
v 0.113076 0.077387 0.016883
v 0.096523 0.021194 0.025441
v 0.088595 -0.003738 0.029645
v 0.081556 -0.026553 0.033441
v 0.075900 -0.047230 0.036550
v 0.072120 -0.065747 0.038689
v 0.070708 -0.082084 0.039579
v 0.072157 -0.096218 0.038939
v 0.225418 -0.108475 -0.037422
v 0.244472 -0.095893 -0.045592
v 0.263339 -0.080827 -0.053137
v 0.282219 -0.063351 -0.060079
v 0.301309 -0.043541 -0.066437
v 0.320809 -0.021470 -0.072234
v 0.340918 0.002788 -0.077490
v 0.383572 0.057614 -0.086526
v 0.405409 0.088351 -0.090722
v 0.426441 0.121608 -0.095206
v 0.445761 0.157627 -0.100374
v 0.462462 0.196649 -0.106618
v 0.475638 0.238917 -0.114333
v 0.484384 0.284671 -0.123913
v 0.485138 0.387474 -0.150045
v 0.476408 0.444213 -0.166212
v 0.461771 0.503819 -0.183469
v 0.441396 0.565738 -0.201036
v 0.415451 0.629421 -0.218133
v 0.384103 0.694314 -0.233979
v 0.347521 0.759867 -0.247793
v 0.259521 0.890781 -0.266359
v 0.209596 0.955287 -0.270487
v 0.157423 1.018738 -0.271335
v 0.104327 1.080829 -0.269059
v 0.051632 1.141254 -0.263816
v 0.000665 1.199710 -0.255762
v -0.047252 1.255890 -0.245053
v -0.128926 1.360267 -0.216371
v -0.161816 1.408238 -0.199136
v -0.189917 1.453478 -0.180723
v -0.213685 1.496067 -0.161715
v -0.233577 1.536081 -0.142694
v -0.250048 1.573599 -0.124241
v -0.263554 1.608698 -0.106939
v 0.186079 -0.125908 -0.019184
v 0.166150 -0.130734 -0.009439
v 0.146745 -0.133023 0.000283
v 0.128417 -0.132825 0.009638
v 0.111721 -0.130188 0.018281
v 0.097210 -0.125161 0.025867
v 0.085439 -0.117792 0.032051
v 0.228763 0.030020 -0.030297
v 0.222862 0.031017 -0.027680
v 0.212700 0.032694 -0.023245
v 0.198030 0.034974 -0.016996
v 0.178868 0.037796 -0.009032
v 0.156163 0.041038 0.000271
v 0.131096 0.044560 0.010468
v 0.441385 0.336215 -0.119836
v 0.395125 0.338592 -0.103952
v 0.349162 0.341602 -0.088127
v 0.303644 0.345559 -0.072391
v 0.258668 0.350677 -0.056764
v 0.214137 0.356742 -0.041226
v 0.169903 0.363440 -0.025748
v 0.265104 0.835072 -0.228934
v 0.224334 0.844618 -0.199074
v 0.183564 0.854164 -0.169214
v 0.142794 0.863710 -0.139353
v 0.102024 0.873256 -0.109493
v 0.061254 0.882802 -0.079633
v 0.020484 0.892348 -0.049772
v -0.097422 1.314873 -0.197810
v -0.104053 1.320257 -0.163772
v -0.110684 1.325641 -0.129735
v -0.117315 1.331025 -0.095697
v -0.123945 1.336409 -0.061659
v -0.130576 1.341793 -0.027621
v -0.137207 1.347177 0.006416
v -0.258842 1.642370 -0.073090
v -0.243131 1.643283 -0.054811
v -0.227420 1.644196 -0.036531
v -0.211709 1.645109 -0.018251
v -0.195998 1.646021 0.000029
v -0.180287 1.646934 0.018309
v -0.164576 1.647847 0.036588
v 0.334456 0.029454 -0.071647
v 0.308317 0.029715 -0.061539
v 0.284653 0.029903 -0.052374
v 0.264702 0.029982 -0.044624
v 0.249449 0.029932 -0.038662
v 0.238860 0.029810 -0.034478
v 0.232679 0.029723 -0.031983
v -0.164867 1.676405 0.036288
v -0.181803 1.675780 0.019966
v -0.198738 1.675151 0.003644
v -0.215673 1.674517 -0.012678
v -0.232608 1.673876 -0.029001
v -0.249542 1.673230 -0.045323
v -0.266476 1.672580 -0.061646
v -0.165640 1.703170 0.035186
v -0.183433 1.702843 0.020650
v -0.201225 1.702487 0.006113
v -0.219013 1.702087 -0.008424
v -0.236797 1.701633 -0.022961
v -0.254579 1.701136 -0.037500
v -0.272359 1.700609 -0.052038
v -0.167074 1.728095 0.033376
v -0.185326 1.728161 0.020485
v -0.203572 1.728127 0.007593
v -0.221807 1.727946 -0.005300
v -0.240031 1.727584 -0.018197
v -0.258246 1.727072 -0.031094
v -0.276453 1.726463 -0.043993
v -0.169345 1.751134 0.030954
v -0.187627 1.751771 0.019599
v -0.205894 1.752173 0.008240
v -0.224138 1.752224 -0.003122
v -0.242353 1.751845 -0.014490
v -0.260546 1.751115 -0.025862
v -0.278722 1.750150 -0.037237
v -0.172611 1.772268 0.028016
v -0.190453 1.773755 0.018118
v -0.208287 1.774767 0.008213
v -0.226087 1.775088 -0.001701
v -0.243833 1.774579 -0.011625
v -0.261521 1.773379 -0.021557
v -0.279156 1.771705 -0.031494
v -0.176938 1.791588 0.024666
v -0.193793 1.794370 0.016182
v -0.210759 1.796224 0.007677
v -0.227749 1.796863 -0.000849
v -0.244648 1.796120 -0.009392
v -0.261363 1.794161 -0.017943
v -0.277845 1.791273 -0.026496
v -0.182306 1.809294 0.021014
v -0.197570 1.813955 0.013936
v -0.213297 1.816909 0.006802
v -0.229219 1.817911 -0.000375
v -0.245005 1.816851 -0.007578
v -0.260339 1.813835 -0.014785
v -0.274985 1.809110 -0.021978
v 0.187223 -0.043119 -0.015251
v 0.087901 -0.101835 0.031002
v 0.104616 -0.106666 0.022565
v 0.122718 -0.110252 0.013427
v 0.142022 -0.112509 0.003712
v 0.091265 -0.085095 0.029468
v 0.112231 -0.087759 0.019164
v 0.133871 -0.089851 0.008540
v 0.155892 -0.091632 -0.002267
v 0.095874 -0.067113 0.027266
v 0.120079 -0.068128 0.015652
v 0.145082 -0.068613 0.003698
v 0.170376 -0.069498 -0.008382
v 0.204157 -0.111142 -0.027077
v 0.222220 -0.095504 -0.034749
v 0.240340 -0.078504 -0.042070
v 0.258693 -0.060075 -0.049020
v 0.183023 -0.112949 -0.016712
v 0.200031 -0.094739 -0.023914
v 0.217355 -0.075796 -0.031000
v 0.235343 -0.056281 -0.038026
v 0.162220 -0.113420 -0.006395
v 0.177944 -0.093355 -0.013091
v 0.194273 -0.072489 -0.019873
v 0.212202 -0.051325 -0.027095
v 0.315420 0.004398 -0.067006
v 0.291187 0.006217 -0.057027
v 0.269506 0.008463 -0.048069
v 0.251748 0.011383 -0.040685
v 0.296374 -0.018771 -0.061615
v 0.273051 -0.015667 -0.051451
v 0.252122 -0.011692 -0.042275
v 0.235550 -0.006134 -0.034924
v 0.277411 -0.040208 -0.055574
v 0.254159 -0.036350 -0.044975
v 0.232509 -0.031275 -0.035039
v 0.215379 -0.023370 -0.027044
v 0.227846 0.024634 -0.030245
v 0.219242 0.020538 -0.026762
v 0.206772 0.017592 -0.021516
v 0.190403 0.016019 -0.014547
v 0.231166 0.019634 -0.031887
v 0.219808 0.010640 -0.027499
v 0.204725 0.003044 -0.021296
v 0.186061 -0.002364 -0.013339
v 0.239006 0.015153 -0.035311
v 0.224945 0.001506 -0.030080
v 0.206926 -0.011064 -0.022824
v 0.184872 -0.021028 -0.013434
v 0.122376 0.018944 0.014436
v 0.114588 -0.004892 0.018121
v 0.107660 -0.027091 0.021490
v 0.101445 -0.047793 0.024547
v 0.147285 0.017068 0.003830
v 0.140001 -0.005512 0.006869
v 0.133768 -0.027055 0.009560
v 0.127439 -0.047858 0.012363
v 0.170293 0.015951 -0.005974
v 0.164166 -0.004984 -0.003790
v 0.159790 -0.025671 -0.002261
v 0.154602 -0.046835 -0.000294
v 0.276630 0.137299 -0.044361
v 0.140666 0.072175 0.006259
v 0.166858 0.066837 -0.003882
v 0.190223 0.061240 -0.013049
v 0.209197 0.055213 -0.020710
v 0.150460 0.102297 0.001865
v 0.178907 0.095191 -0.008622
v 0.204471 0.087198 -0.018164
v 0.224516 0.077555 -0.025935
v 0.159693 0.135513 -0.002649
v 0.191454 0.126959 -0.013856
v 0.221323 0.116875 -0.024438
v 0.245071 0.103162 -0.033112
v 0.233708 0.035569 -0.031977
v 0.242852 0.041067 -0.035287
v 0.256422 0.046158 -0.040244
v 0.274685 0.050362 -0.046915
v 0.230521 0.041991 -0.030157
v 0.242507 0.053221 -0.034252
v 0.259226 0.064187 -0.040066
v 0.281094 0.073404 -0.047693
v 0.222551 0.048682 -0.026425
v 0.236898 0.065836 -0.031244
v 0.256573 0.084012 -0.037983
v 0.282878 0.100397 -0.047023
v 0.353348 0.056601 -0.075543
v 0.371705 0.086230 -0.079094
v 0.389100 0.118783 -0.082809
v 0.405199 0.154720 -0.087235
v 0.324309 0.055278 -0.064985
v 0.338926 0.083544 -0.067767
v 0.352092 0.115231 -0.070461
v 0.364483 0.151189 -0.073948
v 0.297661 0.053323 -0.055289
v 0.308154 0.079626 -0.057103
v 0.315978 0.109956 -0.058297
v 0.323168 0.146245 -0.060254
v 0.438760 0.285160 -0.108918
v 0.393325 0.286058 -0.093957
v 0.348276 0.287798 -0.079066
v 0.303852 0.290908 -0.064301
v 0.431119 0.237909 -0.100022
v 0.386707 0.237190 -0.085696
v 0.342588 0.237241 -0.071374
v 0.299274 0.239302 -0.057211
v 0.419548 0.194418 -0.092876
v 0.376503 0.192017 -0.079006
v 0.333265 0.189631 -0.064913
v 0.290501 0.189711 -0.050817
v 0.174672 0.309029 -0.020855
v 0.175500 0.259125 -0.016198
v 0.172929 0.213607 -0.011678
v 0.167468 0.172442 -0.007186
v 0.217237 0.301973 -0.035236
v 0.216064 0.251352 -0.029713
v 0.211137 0.204882 -0.024466
v 0.202757 0.163246 -0.019235
v 0.260222 0.295756 -0.049701
v 0.257187 0.244327 -0.043347
v 0.250004 0.196106 -0.037406
v 0.238169 0.152578 -0.031279
v 0.160836 0.422331 -0.030906
v 0.206375 0.415668 -0.047767
v 0.252113 0.409428 -0.064669
v 0.298149 0.403823 -0.081630
v 0.344549 0.398994 -0.098664
v 0.391246 0.394801 -0.115758
v 0.438142 0.391032 -0.132892
v 0.147863 0.485010 -0.036080
v 0.194301 0.478121 -0.054571
v 0.240864 0.471499 -0.073086
v 0.287614 0.465277 -0.091639
v 0.334594 0.459545 -0.110239
v 0.381761 0.454212 -0.128875
v 0.429053 0.449146 -0.147537
v 0.131564 0.550613 -0.040956
v 0.178449 0.543314 -0.061257
v 0.225406 0.536170 -0.081573
v 0.272471 0.529257 -0.101910
v 0.319670 0.522627 -0.122275
v 0.366977 0.516229 -0.142661
v 0.414356 0.509985 -0.163061
v 0.112519 0.618279 -0.045215
v 0.159354 0.610459 -0.067446
v 0.206226 0.602718 -0.089684
v 0.253154 0.595096 -0.111933
v 0.300150 0.587618 -0.134196
v 0.347201 0.580259 -0.156470
v 0.394289 0.572979 -0.178751
v 0.091309 0.687148 -0.048543
v 0.137552 0.678768 -0.072758
v 0.183812 0.670422 -0.096976
v 0.230095 0.662127 -0.121198
v 0.276406 0.653892 -0.145426
v 0.322741 0.645707 -0.169659
v 0.369092 0.637556 -0.193896
v 0.068513 0.756356 -0.050623
v 0.113578 0.747454 -0.076813
v 0.158649 0.738561 -0.103004
v 0.203727 0.729683 -0.129196
v 0.248813 0.720824 -0.155390
v 0.293905 0.711979 -0.181586
v 0.339003 0.703144 -0.207782
v 0.044711 0.825043 -0.051138
v 0.087967 0.815727 -0.079231
v 0.131224 0.806413 -0.107324
v 0.174482 0.797100 -0.135418
v 0.217741 0.787789 -0.163511
v 0.261000 0.778481 -0.191605
v 0.304261 0.769173 -0.219699
v -0.003624 0.957544 -0.046328
v 0.033968 0.948006 -0.077761
v 0.071561 0.938469 -0.109194
v 0.109153 0.928931 -0.140627
v 0.146745 0.919394 -0.172060
v 0.184337 0.909856 -0.203493
v 0.221929 0.900319 -0.234926
v -0.027210 1.020449 -0.041078
v 0.006620 1.011140 -0.073851
v 0.040449 1.001831 -0.106623
v 0.074278 0.992522 -0.139396
v 0.108108 0.983214 -0.172169
v 0.141937 0.973905 -0.204942
v 0.175767 0.964596 -0.237714
v -0.049907 1.081017 -0.034414
v -0.020288 1.072120 -0.068260
v 0.009330 1.063223 -0.102106
v 0.038949 1.054326 -0.135951
v 0.068567 1.045429 -0.169797
v 0.098186 1.036532 -0.203643
v 0.127804 1.027635 -0.237489
v -0.071347 1.139202 -0.026727
v -0.046251 1.130862 -0.061346
v -0.021155 1.122524 -0.095965
v 0.003941 1.114185 -0.130584
v 0.029038 1.105846 -0.165202
v 0.054134 1.097507 -0.199821
v 0.079230 1.089168 -0.234440
v -0.091165 1.194956 -0.018409
v -0.070765 1.187284 -0.053467
v -0.050366 1.179613 -0.088525
v -0.029966 1.171941 -0.123583
v -0.009567 1.164269 -0.158642
v 0.010833 1.156598 -0.193700
v 0.031233 1.148926 -0.228758
v -0.108992 1.248235 -0.009852
v -0.093327 1.241302 -0.044982
v -0.077662 1.234370 -0.080112
v -0.061996 1.227438 -0.115242
v -0.046331 1.220506 -0.150372
v -0.030666 1.213574 -0.185502
v -0.015001 1.206642 -0.220632
v -0.124462 1.298991 -0.001446
v -0.113432 1.292833 -0.036247
v -0.102402 1.286676 -0.071048
v -0.091372 1.280519 -0.105849
v -0.080342 1.274361 -0.140650
v -0.069312 1.268204 -0.175451
v -0.058282 1.262047 -0.210252
v -0.146992 1.392775 0.013410
v -0.144411 1.388131 -0.019416
v -0.141831 1.383487 -0.052242
v -0.139250 1.378843 -0.085068
v -0.136669 1.374199 -0.117894
v -0.134088 1.369555 -0.150719
v -0.131507 1.364911 -0.183545
v -0.154110 1.435865 0.019474
v -0.155211 1.431918 -0.011756
v -0.156312 1.427971 -0.042986
v -0.157413 1.424025 -0.074216
v -0.158514 1.420078 -0.105446
v -0.159614 1.416131 -0.136676
v -0.160715 1.412184 -0.167906
v -0.158985 1.476557 0.024612
v -0.163404 1.473261 -0.004721
v -0.167823 1.469963 -0.034055
v -0.172242 1.466666 -0.063389
v -0.176661 1.463369 -0.092722
v -0.181079 1.460072 -0.122056
v -0.185498 1.456775 -0.151389
v -0.162042 1.514960 0.028830
v -0.169420 1.512261 0.001609
v -0.176797 1.509562 -0.025611
v -0.184175 1.506863 -0.052832
v -0.191552 1.504164 -0.080053
v -0.198930 1.501465 -0.107274
v -0.206308 1.498766 -0.134494
v -0.163705 1.551182 0.032132
v -0.173687 1.549025 0.007157
v -0.183669 1.546867 -0.017818
v -0.193650 1.544710 -0.042793
v -0.203632 1.542553 -0.067769
v -0.213613 1.540395 -0.092744
v -0.223595 1.538238 -0.117719
v -0.164399 1.585331 0.034522
v -0.176634 1.583655 0.011842
v -0.188870 1.581979 -0.010839
v -0.201105 1.580303 -0.033519
v -0.213341 1.578627 -0.056200
v -0.225576 1.576951 -0.078880
v -0.237812 1.575275 -0.101561
v -0.164548 1.617517 0.036006
v -0.178691 1.616257 0.015586
v -0.192835 1.614997 -0.004835
v -0.206979 1.613738 -0.025256
v -0.221123 1.612478 -0.045677
v -0.235267 1.611218 -0.066098
v -0.249410 1.609958 -0.086519
vn 0.3824 -0.0885 -0.9198
vn 0.3754 0.1650 -0.9120
vn 0.7606 -0.0345 -0.6483
vn 0.9745 0.1629 0.1541
vn 0.6161 0.1708 0.7689
vn 0.3483 0.1211 0.9295
vn 0.3789 0.0211 0.9252
vn 0.4527 -0.0060 0.8916
vn 0.4474 -0.0773 0.8910
vn 0.3537 -0.1172 0.9280
vn 0.3274 0.2207 0.9188
vn 0.5845 0.4652 0.6648
vn 0.8047 0.5886 0.0771
vn 0.6701 0.4504 -0.5900
vn 0.3906 -0.0634 0.9184
vn 0.6265 0.4156 -0.6593
vn 0.5835 0.3747 -0.7205
vn 0.5414 0.3305 -0.7731
vn 0.5011 0.2857 -0.8169
vn 0.4634 0.2433 -0.8521
vn 0.4299 0.2065 -0.8790
vn 0.4006 0.1790 -0.8986
vn 0.3842 0.1346 -0.9134
vn 0.3886 0.1034 -0.9156
vn 0.3908 0.0719 -0.9177
vn 0.3921 0.0393 -0.9191
vn 0.3923 0.0066 -0.9198
vn 0.3917 -0.0254 -0.9197
vn 0.3892 -0.0571 -0.9194
vn 0.4135 -0.0801 -0.9070
vn 0.4478 -0.0750 -0.8910
vn 0.4865 -0.0703 -0.8709
vn 0.5307 -0.0648 -0.8451
vn 0.5807 -0.0584 -0.8120
vn 0.6365 -0.0511 -0.7696
vn 0.6971 -0.0432 -0.7156
vn 0.8230 -0.0230 -0.5676
vn 0.8798 -0.0064 -0.4753
vn 0.9271 0.0155 -0.3746
vn 0.9622 0.0421 -0.2691
vn 0.9842 0.0720 -0.1617
vn 0.9931 0.1035 -0.0547
vn 0.9896 0.1348 0.0506
vn 0.9492 0.1829 0.2559
vn 0.9150 0.1912 0.3553
vn 0.8728 0.1905 0.4493
vn 0.8244 0.1849 0.5349
vn 0.7721 0.1778 0.6101
vn 0.7185 0.1719 0.6739
vn 0.6659 0.1694 0.7265
vn 0.5698 0.1737 0.8032
vn 0.5269 0.1744 0.8318
vn 0.4873 0.1721 0.8561
vn 0.4510 0.1674 0.8767
vn 0.4182 0.1602 0.8941
vn 0.3897 0.1506 0.9086
vn 0.3661 0.1377 0.9203
vn 0.3371 0.1025 0.9359
vn 0.3321 0.0852 0.9394
vn 0.3320 0.0696 0.9407
vn 0.3355 0.0556 0.9404
vn 0.3419 0.0432 0.9387
vn 0.3514 0.0324 0.9357
vn 0.3640 0.0246 0.9311
vn 0.3937 0.0199 0.9190
vn 0.4065 0.0183 0.9135
vn 0.4171 0.0156 0.9087
vn 0.4259 0.0117 0.9047
vn 0.4337 0.0068 0.9010
vn 0.4408 0.0016 0.8976
vn 0.4473 -0.0030 0.8944
vn 0.4406 -0.0762 0.8945
vn 0.4322 -0.0791 0.8983
vn 0.4222 -0.0840 0.9026
vn 0.4106 -0.0904 0.9073
vn 0.3977 -0.0974 0.9123
vn 0.3836 -0.1046 0.9176
vn 0.3686 -0.1121 0.9228
vn 0.3400 -0.1079 0.9342
vn 0.3276 -0.0809 0.9414
vn 0.3165 -0.0409 0.9477
vn 0.3078 0.0068 0.9514
vn 0.3032 0.0581 0.9511
vn 0.3043 0.1112 0.9460
vn 0.3123 0.1658 0.9354
vn 0.3490 0.2699 0.8974
vn 0.3760 0.3096 0.8734
vn 0.4068 0.3419 0.8472
vn 0.4401 0.3694 0.8185
vn 0.4750 0.3939 0.7869
vn 0.5111 0.4171 0.7516
vn 0.5477 0.4403 0.7114
vn 0.6208 0.4924 0.6100
vn 0.6557 0.5206 0.5469
vn 0.6880 0.5475 0.4763
vn 0.7170 0.5708 0.4000
vn 0.7424 0.5885 0.3201
vn 0.7647 0.5986 0.2386
vn 0.7851 0.5990 0.1574
vn 0.8210 0.5709 -0.0038
vn 0.8285 0.5531 -0.0874
vn 0.8254 0.5372 -0.1735
vn 0.8114 0.5230 -0.2609
vn 0.7869 0.5096 -0.3481
vn 0.7533 0.4951 -0.4330
vn 0.7132 0.4766 -0.5141
vn 0.4473 -0.0661 0.8919
vn 0.4482 -0.0568 0.8921
vn 0.4491 -0.0480 0.8922
vn 0.4499 -0.0391 0.8922
vn 0.4504 -0.0302 0.8923
vn 0.4508 -0.0214 0.8924
vn 0.4516 -0.0129 0.8921
vn 0.3929 -0.0627 0.9174
vn 0.3928 -0.0587 0.9178
vn 0.3881 -0.0491 0.9203
vn 0.3824 -0.0358 0.9233
vn 0.3785 -0.0203 0.9254
vn 0.3772 -0.0039 0.9261
vn 0.3776 0.0128 0.9259
vn 0.3281 0.2103 0.9209
vn 0.3308 0.1916 0.9240
vn 0.3347 0.1746 0.9260
vn 0.3393 0.1597 0.9270
vn 0.3434 0.1469 0.9276
vn 0.3460 0.1356 0.9284
vn 0.3471 0.1250 0.9295
vn 0.5942 0.4522 0.6652
vn 0.5997 0.4138 0.6849
vn 0.6043 0.3734 0.7039
vn 0.6077 0.3312 0.7218
vn 0.6098 0.2873 0.7386
vn 0.6106 0.2420 0.7540
vn 0.6100 0.1955 0.7679
vn 0.8213 0.5660 0.0717
vn 0.8489 0.5217 0.0841
vn 0.8764 0.4717 0.0975
vn 0.9029 0.4152 0.1116
vn 0.9274 0.3520 0.1264
vn 0.9489 0.2819 0.1418
vn 0.9660 0.2053 0.1573
vn 0.6785 0.4221 -0.6012
vn 0.6985 0.3653 -0.6153
vn 0.7170 0.3030 -0.6278
vn 0.7331 0.2353 -0.6381
vn 0.7462 0.1626 -0.6455
vn 0.7555 0.0857 -0.6495
vn 0.7603 0.0057 -0.6495
vn 0.3573 -0.1083 0.9277
vn 0.3586 -0.0925 0.9289
vn 0.3603 -0.0782 0.9295
vn 0.3627 -0.0670 0.9295
vn 0.3662 -0.0599 0.9286
vn 0.3721 -0.0573 0.9264
vn 0.3821 -0.0595 0.9222
vn 0.6965 -0.0063 -0.7175
vn 0.6935 0.0676 -0.7173
vn 0.6869 0.1390 -0.7133
vn 0.6771 0.2071 -0.7061
vn 0.6646 0.2715 -0.6961
vn 0.6500 0.3317 -0.6837
vn 0.6337 0.3876 -0.6695
vn 0.6353 -0.0179 -0.7720
vn 0.6340 0.0489 -0.7718
vn 0.6298 0.1135 -0.7684
vn 0.6229 0.1757 -0.7623
vn 0.6136 0.2354 -0.7537
vn 0.6022 0.2926 -0.7428
vn 0.5892 0.3471 -0.7297
vn 0.5790 -0.0288 -0.8148
vn 0.5793 0.0308 -0.8146
vn 0.5771 0.0879 -0.8119
vn 0.5725 0.1431 -0.8073
vn 0.5655 0.1971 -0.8008
vn 0.5565 0.2504 -0.7923
vn 0.5457 0.3030 -0.7813
vn 0.5283 -0.0385 -0.8482
vn 0.5303 0.0143 -0.8477
vn 0.5300 0.0639 -0.8456
vn 0.5271 0.1117 -0.8424
vn 0.5215 0.1592 -0.8382
vn 0.5137 0.2077 -0.8325
vn 0.5039 0.2579 -0.8243
vn 0.4832 -0.0470 -0.8742
vn 0.4871 -0.0005 -0.8734
vn 0.4882 0.0422 -0.8717
vn 0.4865 0.0833 -0.8697
vn 0.4819 0.1247 -0.8673
vn 0.4746 0.1681 -0.8640
vn 0.4648 0.2150 -0.8589
vn 0.4433 -0.0545 -0.8947
vn 0.4483 -0.0138 -0.8938
vn 0.4499 0.0235 -0.8928
vn 0.4489 0.0602 -0.8916
vn 0.4453 0.0972 -0.8901
vn 0.4393 0.1355 -0.8881
vn 0.4296 0.1780 -0.8853
vn 0.4053 -0.0638 -0.9119
vn 0.4103 -0.0265 -0.9116
vn 0.4113 0.0087 -0.9114
vn 0.4109 0.0443 -0.9106
vn 0.4088 0.0799 -0.9091
vn 0.4051 0.1155 -0.9070
vn 0.3969 0.1535 -0.9049
vn 0.4163 -0.0346 0.9086
vn 0.4481 -0.0091 0.8940
vn 0.4470 -0.0195 0.8943
vn 0.4464 -0.0293 0.8943
vn 0.4458 -0.0389 0.8943
vn 0.4405 -0.0043 0.8978
vn 0.4392 -0.0153 0.8982
vn 0.4384 -0.0256 0.8984
vn 0.4377 -0.0358 0.8984
vn 0.4328 0.0010 0.9015
vn 0.4315 -0.0110 0.9020
vn 0.4300 -0.0227 0.9026
vn 0.4284 -0.0345 0.9029
vn 0.4437 -0.0699 0.8935
vn 0.4355 -0.0706 0.8974
vn 0.4257 -0.0750 0.9018
vn 0.4141 -0.0812 0.9066
vn 0.4441 -0.0582 0.8941
vn 0.4361 -0.0572 0.8981
vn 0.4267 -0.0603 0.9024
vn 0.4155 -0.0661 0.9072
vn 0.4450 -0.0484 0.8942
vn 0.4369 -0.0461 0.8983
vn 0.4275 -0.0468 0.9028
vn 0.4165 -0.0515 0.9077
vn 0.3723 -0.1022 0.9225
vn 0.3734 -0.0856 0.9237
vn 0.3743 -0.0698 0.9247
vn 0.3751 -0.0564 0.9253
vn 0.3872 -0.0949 0.9171
vn 0.3886 -0.0785 0.9181
vn 0.3894 -0.0626 0.9189
vn 0.3895 -0.0487 0.9197
vn 0.4013 -0.0880 0.9117
vn 0.4028 -0.0724 0.9124
vn 0.4038 -0.0573 0.9131
vn 0.4030 -0.0433 0.9142
vn 0.3898 -0.0509 0.9195
vn 0.3949 -0.0487 0.9174
vn 0.3950 -0.0433 0.9177
vn 0.3929 -0.0334 0.9190
vn 0.3821 -0.0448 0.9231
vn 0.3927 -0.0411 0.9187
vn 0.3983 -0.0373 0.9165
vn 0.4010 -0.0298 0.9156
vn 0.3769 -0.0472 0.9250
vn 0.3901 -0.0404 0.9199
vn 0.4001 -0.0354 0.9158
vn 0.4075 -0.0283 0.9128
vn 0.3921 0.0118 0.9198
vn 0.4050 0.0109 0.9143
vn 0.4157 0.0091 0.9095
vn 0.4247 0.0057 0.9053
vn 0.3914 -0.0045 0.9202
vn 0.4040 -0.0043 0.9147
vn 0.4146 -0.0048 0.9100
vn 0.4234 -0.0071 0.9059
vn 0.3915 -0.0200 0.9200
vn 0.4028 -0.0185 0.9151
vn 0.4125 -0.0180 0.9108
vn 0.4212 -0.0201 0.9068
vn 0.3287 0.0104 0.9444
vn 0.3631 0.0169 0.9316
vn 0.3629 0.0010 0.9318
vn 0.3649 -0.0157 0.9309
vn 0.3703 -0.0332 0.9283
vn 0.3507 0.0257 0.9361
vn 0.3503 0.0116 0.9366
vn 0.3521 -0.0047 0.9360
vn 0.3580 -0.0243 0.9334
vn 0.3414 0.0377 0.9392
vn 0.3403 0.0261 0.9400
vn 0.3405 0.0114 0.9402
vn 0.3450 -0.0094 0.9385
vn 0.3823 -0.0684 0.9215
vn 0.3708 -0.0672 0.9263
vn 0.3613 -0.0669 0.9301
vn 0.3536 -0.0701 0.9328
vn 0.3826 -0.0635 0.9217
vn 0.3701 -0.0617 0.9269
vn 0.3578 -0.0584 0.9320
vn 0.3461 -0.0576 0.9364
vn 0.3776 -0.0502 0.9246
vn 0.3655 -0.0453 0.9297
vn 0.3525 -0.0366 0.9351
vn 0.3382 -0.0304 0.9406
vn 0.3434 -0.1039 0.9334
vn 0.3308 -0.0818 0.9401
vn 0.3194 -0.0454 0.9465
vn 0.3100 0.0001 0.9507
vn 0.3452 -0.0897 0.9342
vn 0.3331 -0.0704 0.9403
vn 0.3219 -0.0371 0.9460
vn 0.3125 0.0048 0.9499
vn 0.3483 -0.0780 0.9341
vn 0.3375 -0.0618 0.9393
vn 0.3271 -0.0315 0.9445
vn 0.3173 0.0084 0.9483
vn 0.3127 0.1555 0.9370
vn 0.3155 0.1422 0.9382
vn 0.3198 0.1304 0.9385
vn 0.3255 0.1207 0.9378
vn 0.3049 0.1016 0.9470
vn 0.3075 0.0946 0.9468
vn 0.3120 0.0883 0.9460
vn 0.3186 0.0839 0.9442
vn 0.3044 0.0498 0.9512
vn 0.3068 0.0492 0.9505
vn 0.3113 0.0485 0.9491
vn 0.3190 0.0494 0.9465
vn 0.3362 0.1036 0.9361
vn 0.3313 0.0839 0.9398
vn 0.3314 0.0665 0.9411
vn 0.3350 0.0513 0.9408
vn 0.3344 0.1082 0.9362
vn 0.3293 0.0831 0.9406
vn 0.3294 0.0613 0.9422
vn 0.3334 0.0427 0.9418
vn 0.3309 0.1136 0.9368
vn 0.3252 0.0825 0.9421
vn 0.3261 0.0546 0.9437
vn 0.3316 0.0309 0.9429
vn 0.3644 0.1447 0.9199
vn 0.3641 0.1609 0.9174
vn 0.3624 0.1776 0.9149
vn 0.3594 0.1955 0.9125
vn 0.3559 0.2151 0.9094
vn 0.3529 0.2365 0.9053
vn 0.3505 0.2595 0.8999
vn 0.3874 0.1601 0.9079
vn 0.3877 0.1810 0.9038
vn 0.3869 0.2023 0.8997
vn 0.3850 0.2245 0.8952
vn 0.3826 0.2479 0.8900
vn 0.3804 0.2727 0.8837
vn 0.3785 0.2987 0.8761
vn 0.4154 0.1721 0.8932
vn 0.4161 0.1970 0.8877
vn 0.4160 0.2222 0.8818
vn 0.4150 0.2480 0.8754
vn 0.4135 0.2746 0.8681
vn 0.4119 0.3022 0.8597
vn 0.4103 0.3304 0.8500
vn 0.4475 0.1813 0.8757
vn 0.4486 0.2100 0.8687
vn 0.4489 0.2388 0.8611
vn 0.4485 0.2679 0.8527
vn 0.4475 0.2974 0.8434
vn 0.4462 0.3273 0.8330
vn 0.4446 0.3574 0.8213
vn 0.4833 0.1882 0.8550
vn 0.4845 0.2206 0.8465
vn 0.4850 0.2529 0.8371
vn 0.4848 0.2852 0.8268
vn 0.4839 0.3174 0.8155
vn 0.4826 0.3496 0.8031
vn 0.4807 0.3815 0.7895
vn 0.5223 0.1929 0.8307
vn 0.5235 0.2292 0.8206
vn 0.5239 0.2653 0.8094
vn 0.5236 0.3009 0.7971
vn 0.5224 0.3360 0.7837
vn 0.5205 0.3706 0.7693
vn 0.5180 0.4043 0.7538
vn 0.5645 0.1952 0.8020
vn 0.5656 0.2361 0.7902
vn 0.5656 0.2764 0.7770
vn 0.5646 0.3158 0.7626
vn 0.5626 0.3542 0.7470
vn 0.5597 0.3914 0.7304
vn 0.5559 0.4274 0.7129
vn 0.6589 0.1969 0.7260
vn 0.6586 0.2495 0.7099
vn 0.6564 0.3002 0.6921
vn 0.6524 0.3487 0.6728
vn 0.6469 0.3948 0.6524
vn 0.6400 0.4382 0.6312
vn 0.6319 0.4789 0.6093
vn 0.7104 0.2020 0.6742
vn 0.7085 0.2605 0.6559
vn 0.7042 0.3163 0.6357
vn 0.6976 0.3689 0.6142
vn 0.6892 0.4183 0.5917
vn 0.6792 0.4641 0.5686
vn 0.6681 0.5064 0.5452
vn 0.7630 0.2102 0.6112
vn 0.7588 0.2740 0.5909
vn 0.7514 0.3342 0.5689
vn 0.7416 0.3902 0.5458
vn 0.7296 0.4419 0.5219
vn 0.7161 0.4893 0.4978
vn 0.7015 0.5324 0.4738
vn 0.8145 0.2197 0.5369
vn 0.8072 0.2879 0.5153
vn 0.7963 0.3515 0.4923
vn 0.7826 0.4099 0.4685
vn 0.7668 0.4632 0.4444
vn 0.7495 0.5114 0.4204
vn 0.7313 0.5547 0.3969
vn 0.8625 0.2275 0.4520
vn 0.8517 0.2992 0.4302
vn 0.8370 0.3652 0.4074
vn 0.8195 0.4253 0.3842
vn 0.7999 0.4795 0.3610
vn 0.7790 0.5279 0.3383
vn 0.7575 0.5711 0.3164
vn 0.9047 0.2302 0.3585
vn 0.8907 0.3043 0.3378
vn 0.8726 0.3721 0.3164
vn 0.8516 0.4333 0.2951
vn 0.8287 0.4880 0.2741
vn 0.8047 0.5366 0.2539
vn 0.7804 0.5796 0.2346
vn 0.9395 0.2238 0.2593
vn 0.9232 0.2995 0.2408
vn 0.9027 0.3685 0.2221
vn 0.8793 0.4306 0.2037
vn 0.8540 0.4860 0.1859
vn 0.8278 0.5350 0.1689
vn 0.8014 0.5782 0.1528
vn 0.9826 0.1776 0.0535
vn 0.9660 0.2553 0.0411
vn 0.9446 0.3268 0.0293
vn 0.9199 0.3916 0.0181
vn 0.8931 0.4498 0.0077
vn 0.8651 0.5016 -0.0018
vn 0.8367 0.5475 -0.0106
vn 0.9878 0.1468 -0.0522
vn 0.9721 0.2263 -0.0617
vn 0.9514 0.2998 -0.0703
vn 0.9270 0.3668 -0.0780
vn 0.9002 0.4272 -0.0847
vn 0.8719 0.4812 -0.0906
vn 0.8431 0.5291 -0.0957
vn 0.9804 0.1158 -0.1596
vn 0.9661 0.1974 -0.1667
vn 0.9463 0.2734 -0.1723
vn 0.9226 0.3430 -0.1765
vn 0.8961 0.4060 -0.1797
vn 0.8679 0.4624 -0.1818
vn 0.8389 0.5125 -0.1831
vn 0.9597 0.0864 -0.2674
vn 0.9470 0.1701 -0.2724
vn 0.9287 0.2486 -0.2752
vn 0.9060 0.3208 -0.2763
vn 0.8802 0.3863 -0.2758
vn 0.8525 0.4451 -0.2742
vn 0.8238 0.4975 -0.2716
vn 0.9257 0.0600 -0.3736
vn 0.9149 0.1453 -0.3767
vn 0.8983 0.2257 -0.3771
vn 0.8771 0.3001 -0.3751
vn 0.8526 0.3678 -0.3712
vn 0.8260 0.4288 -0.3659
vn 0.7982 0.4832 -0.3596
vn 0.8792 0.0376 -0.4749
vn 0.8704 0.1233 -0.4766
vn 0.8560 0.2045 -0.4749
vn 0.8369 0.2801 -0.4703
vn 0.8144 0.3492 -0.4634
vn 0.7897 0.4118 -0.4547
vn 0.7637 0.4678 -0.4449
vn 0.8228 0.0197 -0.5680
vn 0.8160 0.1038 -0.5686
vn 0.8040 0.1840 -0.5654
vn 0.7877 0.2592 -0.5589
vn 0.7681 0.3285 -0.5497
vn 0.7461 0.3916 -0.5385
vn 0.7226 0.4485 -0.5259
vt 0.125000 0.889688
vt 0.250000 0.889719
vt 0.250000 0.905451
vt 0.125000 0.905433
vt 0.375000 0.889737
vt 0.375000 0.905463
vt 0.500000 0.889743
vt 0.500000 0.905467
vt 0.625000 0.889737
vt 0.625000 0.905463
vt 0.750000 0.889719
vt 0.750000 0.905451
vt 0.875000 0.889688
vt 0.875000 0.905433
vt 0.250000 0.921197
vt 0.125000 0.921187
vt 0.375000 0.921204
vt 0.500000 0.921207
vt 0.625000 0.921204
vt 0.750000 0.921197
vt 0.875000 0.921187
vt 0.250000 0.936951
vt 0.125000 0.936946
vt 0.375000 0.936955
vt 0.500000 0.936956
vt 0.625000 0.936955
vt 0.750000 0.936951
vt 0.875000 0.936946
vt 0.250000 0.952710
vt 0.125000 0.952708
vt 0.375000 0.952712
vt 0.500000 0.952712
vt 0.625000 0.952712
vt 0.750000 0.952710
vt 0.875000 0.952708
vt 0.250000 0.968472
vt 0.125000 0.968471
vt 0.375000 0.968472
vt 0.500000 0.968472
vt 0.625000 0.968472
vt 0.750000 0.968472
vt 0.875000 0.968471
vt 0.250000 0.984235
vt 0.125000 0.984235
vt 0.375000 0.984235
vt 0.500000 0.984236
vt 0.625000 0.984235
vt 0.750000 0.984235
vt 0.875000 0.984235
vt 0.000000 0.873881
vt 0.125000 0.873969
vt 0.000000 0.889646
vt 0.250000 0.874010
vt 0.375000 0.874030
vt 0.500000 0.874037
vt 0.625000 0.874030
vt 0.750000 0.874009
vt 0.875000 0.873969
vt 1.000000 0.873881
vt 1.000000 0.889646
vt 1.000000 0.905411
vt 1.000000 0.921176
vt 1.000000 0.936941
vt 1.000000 0.952706
vt 1.000000 0.968470
vt 1.000000 0.984235
vt 1.000000 1.000000
vt 0.875000 1.000000
vt 0.750000 1.000000
vt 0.625000 1.000000
vt 0.500000 1.000000
vt 0.375000 1.000000
vt 0.250000 1.000000
vt 0.125000 1.000000
vt 0.000000 0.984235
vt 0.000000 1.000000
vt 0.000000 0.968470
vt 0.000000 0.952706
vt 0.000000 0.936941
vt 0.000000 0.921176
vt 0.000000 0.905411
vt 0.124925 0.265258
vt 0.249892 0.265928
vt 0.249132 0.282909
vt 0.124403 0.281553
vt 0.374925 0.266425
vt 0.374403 0.284059
vt 0.500000 0.266622
vt 0.500000 0.284558
vt 0.246718 0.299698
vt 0.122942 0.297677
vt 0.372237 0.301780
vt 0.500000 0.302985
vt 0.875075 0.265258
vt 0.875597 0.281553
vt 0.750868 0.282909
vt 0.750109 0.265928
vt 0.877058 0.297677
vt 0.753282 0.299698
vt 0.880127 0.313511
vt 0.759766 0.315917
vt 0.625597 0.284059
vt 0.625075 0.266425
vt 0.627764 0.301780
vt 0.637587 0.318956
vt 0.894875 0.359045
vt 0.794257 0.359976
vt 0.784831 0.345843
vt 0.890584 0.344107
vt 0.702733 0.361198
vt 0.687052 0.348146
vt 0.625217 0.362881
vt 0.604167 0.351507
vt 0.771688 0.331246
vt 0.885096 0.328964
vt 0.662348 0.334297
vt 0.566637 0.339254
vt 0.500000 0.370801
vt 0.475722 0.367843
vt 0.500000 0.361902
vt 0.524278 0.367843
vt 0.434286 0.365141
vt 0.457926 0.356257
vt 0.374783 0.362881
vt 0.395833 0.351507
vt 0.542074 0.356257
vt 0.565714 0.365141
vt 0.500000 0.347253
vt 0.433363 0.339254
vt 0.105125 0.359045
vt 0.109416 0.344107
vt 0.215169 0.345843
vt 0.205743 0.359976
vt 0.114904 0.328964
vt 0.228312 0.331246
vt 0.119873 0.313511
vt 0.240234 0.315917
vt 0.312948 0.348146
vt 0.297267 0.361198
vt 0.337652 0.334296
vt 0.362413 0.318956
vt 0.500000 0.323881
vt 0.000000 0.248881
vt 0.125000 0.248881
vt 0.000000 0.264506
vt 0.250000 0.248881
vt 0.375000 0.248881
vt 0.500000 0.248881
vt 0.000000 0.280131
vt 0.000000 0.295756
vt 0.000000 0.311381
vt 1.000000 0.248881
vt 1.000000 0.264506
vt 0.875000 0.248881
vt 1.000000 0.280131
vt 1.000000 0.295756
vt 1.000000 0.311381
vt 0.750000 0.248881
vt 0.625000 0.248881
vt 1.000000 0.373881
vt 0.896593 0.373881
vt 1.000000 0.358256
vt 0.797743 0.373881
vt 0.708008 0.373881
vt 0.631945 0.373881
vt 1.000000 0.342631
vt 1.000000 0.327006
vt 0.500000 0.373881
vt 0.492079 0.373881
vt 0.507921 0.373881
vt 0.467882 0.373881
vt 0.426758 0.373881
vt 0.368056 0.373881
vt 0.532118 0.373881
vt 0.573242 0.373881
vt 0.000000 0.373881
vt 0.000000 0.358256
vt 0.103407 0.373881
vt 0.000000 0.342631
vt 0.000000 0.327006
vt 0.202257 0.373881
vt 0.291992 0.373881
vt 0.105125 0.388716
vt 0.205743 0.387783
vt 0.215169 0.401892
vt 0.109416 0.403640
vt 0.297267 0.386561
vt 0.312948 0.399586
vt 0.374783 0.384878
vt 0.395833 0.396229
vt 0.228312 0.416424
vt 0.114904 0.418745
vt 0.337652 0.413359
vt 0.433363 0.408417
vt 0.500000 0.376961
vt 0.524279 0.379919
vt 0.500000 0.385855
vt 0.475722 0.379919
vt 0.565715 0.382619
vt 0.542074 0.391490
vt 0.625217 0.384878
vt 0.604167 0.396229
vt 0.457926 0.391490
vt 0.434286 0.382619
vt 0.500000 0.400460
vt 0.566637 0.408417
vt 0.894875 0.388716
vt 0.890584 0.403640
vt 0.784831 0.401892
vt 0.794257 0.387783
vt 0.885096 0.418745
vt 0.771688 0.416424
vt 0.880127 0.434126
vt 0.759766 0.431619
vt 0.687052 0.399586
vt 0.702733 0.386561
vt 0.662348 0.413359
vt 0.637587 0.428528
vt 0.875075 0.481822
vt 0.750109 0.480556
vt 0.750868 0.464051
vt 0.875597 0.465780
vt 0.625075 0.479637
vt 0.625597 0.462641
vt 0.500000 0.479281
vt 0.500000 0.462044
vt 0.753282 0.447607
vt 0.877058 0.449837
vt 0.627764 0.445388
vt 0.500000 0.444137
vt 0.124925 0.481822
vt 0.124403 0.465780
vt 0.249132 0.464051
vt 0.249891 0.480556
vt 0.122942 0.449837
vt 0.246718 0.447607
vt 0.119873 0.434126
vt 0.240234 0.431619
vt 0.374403 0.462641
vt 0.374925 0.479637
vt 0.372236 0.445388
vt 0.362413 0.428528
vt 0.500000 0.423631
vt 0.000000 0.389506
vt 0.000000 0.405131
vt 0.000000 0.420756
vt 0.000000 0.436381
vt 1.000000 0.389506
vt 1.000000 0.405131
vt 1.000000 0.420756
vt 1.000000 0.436381
vt 1.000000 0.498881
vt 0.875000 0.497861
vt 1.000000 0.483256
vt 0.750000 0.496972
vt 0.625000 0.496342
vt 0.500000 0.496103
vt 1.000000 0.467631
vt 1.000000 0.452006
vt 0.000000 0.498881
vt 0.000000 0.483256
vt 0.125000 0.497861
vt 0.000000 0.467631
vt 0.000000 0.452006
vt 0.250000 0.496972
vt 0.375000 0.496342
vt 0.125000 0.513823
vt 0.250000 0.513227
vt 0.250000 0.529326
vt 0.125000 0.529701
vt 0.375000 0.512805
vt 0.375000 0.529060
vt 0.500000 0.512645
vt 0.500000 0.528959
vt 0.625000 0.512805
vt 0.625000 0.529060
vt 0.750000 0.513227
vt 0.750000 0.529326
vt 0.875000 0.513823
vt 0.875000 0.529701
vt 0.250000 0.545290
vt 0.125000 0.545507
vt 0.375000 0.545136
vt 0.500000 0.545078
vt 0.625000 0.545136
vt 0.750000 0.545290
vt 0.875000 0.545507
vt 0.250000 0.561143
vt 0.125000 0.561254
vt 0.375000 0.561064
vt 0.500000 0.561034
vt 0.625000 0.561064
vt 0.750000 0.561143
vt 0.875000 0.561254
vt 0.250000 0.576906
vt 0.125000 0.576952
vt 0.375000 0.576872
vt 0.500000 0.576860
vt 0.625000 0.576872
vt 0.750000 0.576906
vt 0.875000 0.576952
vt 0.250000 0.592601
vt 0.125000 0.592615
vt 0.375000 0.592592
vt 0.500000 0.592588
vt 0.625000 0.592592
vt 0.750000 0.592601
vt 0.875000 0.592615
vt 0.250000 0.608253
vt 0.125000 0.608254
vt 0.375000 0.608251
vt 0.500000 0.608251
vt 0.625000 0.608251
vt 0.750000 0.608253
vt 0.875000 0.608254
vt 0.000000 0.514506
vt 1.000000 0.514506
vt 1.000000 0.530131
vt 1.000000 0.545756
vt 1.000000 0.561381
vt 1.000000 0.577006
vt 1.000000 0.592631
vt 1.000000 0.608256
vt 1.000000 0.623881
vt 0.875000 0.623881
vt 0.750000 0.623881
vt 0.625000 0.623881
vt 0.500000 0.623881
vt 0.375000 0.623881
vt 0.250000 0.623881
vt 0.125000 0.623881
vt 0.000000 0.608256
vt 0.000000 0.623881
vt 0.000000 0.592631
vt 0.000000 0.577006
vt 0.000000 0.561381
vt 0.000000 0.545756
vt 0.000000 0.530131
vt 0.125000 0.639506
vt 0.250000 0.639506
vt 0.250000 0.655131
vt 0.125000 0.655131
vt 0.375000 0.639506
vt 0.375000 0.655131
vt 0.500000 0.639506
vt 0.500000 0.655131
vt 0.625000 0.639506
vt 0.625000 0.655131
vt 0.750000 0.639506
vt 0.750000 0.655131
vt 0.875000 0.639506
vt 0.875000 0.655131
vt 0.250000 0.670756
vt 0.125000 0.670756
vt 0.375000 0.670756
vt 0.500000 0.670756
vt 0.625000 0.670756
vt 0.750000 0.670756
vt 0.875000 0.670756
vt 0.250000 0.686381
vt 0.125000 0.686381
vt 0.375000 0.686381
vt 0.500000 0.686381
vt 0.625000 0.686381
vt 0.750000 0.686381
vt 0.875000 0.686381
vt 0.250000 0.702006
vt 0.125000 0.702006
vt 0.375000 0.702006
vt 0.500000 0.702006
vt 0.625000 0.702006
vt 0.750000 0.702006
vt 0.875000 0.702006
vt 0.250000 0.717631
vt 0.125000 0.717631
vt 0.375000 0.717631
vt 0.500000 0.717631
vt 0.625000 0.717631
vt 0.750000 0.717631
vt 0.875000 0.717631
vt 0.250000 0.733256
vt 0.125000 0.733256
vt 0.375000 0.733256
vt 0.500000 0.733256
vt 0.625000 0.733256
vt 0.750000 0.733256
vt 0.875000 0.733256
vt 0.000000 0.639506
vt 1.000000 0.639506
vt 1.000000 0.655131
vt 1.000000 0.670756
vt 1.000000 0.686381
vt 1.000000 0.702006
vt 1.000000 0.717631
vt 1.000000 0.733256
vt 1.000000 0.748881
vt 0.875000 0.748881
vt 0.750000 0.748881
vt 0.625000 0.748881
vt 0.500000 0.748881
vt 0.375000 0.748881
vt 0.250000 0.748881
vt 0.125000 0.748881
vt 0.000000 0.733256
vt 0.000000 0.748881
vt 0.000000 0.717631
vt 0.000000 0.702006
vt 0.000000 0.686381
vt 0.000000 0.670756
vt 0.000000 0.655131
vt 0.125000 0.764506
vt 0.250000 0.764506
vt 0.250000 0.780133
vt 0.125000 0.780132
vt 0.375000 0.764507
vt 0.375000 0.780133
vt 0.500000 0.764507
vt 0.500000 0.780133
vt 0.625000 0.764506
vt 0.625000 0.780133
vt 0.750000 0.764507
vt 0.750000 0.780133
vt 0.875000 0.764506
vt 0.875000 0.780132
vt 0.250000 0.795761
vt 0.125000 0.795759
vt 0.375000 0.795762
vt 0.500000 0.795763
vt 0.625000 0.795762
vt 0.750000 0.795761
vt 0.875000 0.795759
vt 0.250000 0.811392
vt 0.125000 0.811387
vt 0.375000 0.811396
vt 0.500000 0.811397
vt 0.625000 0.811396
vt 0.750000 0.811392
vt 0.875000 0.811387
vt 0.250000 0.827028
vt 0.125000 0.827018
vt 0.375000 0.827035
vt 0.500000 0.827037
vt 0.625000 0.827035
vt 0.750000 0.827028
vt 0.875000 0.827018
vt 0.250000 0.842672
vt 0.125000 0.842653
vt 0.375000 0.842684
vt 0.500000 0.842688
vt 0.625000 0.842684
vt 0.750000 0.842672
vt 0.875000 0.842653
vt 0.250000 0.858329
vt 0.125000 0.858298
vt 0.375000 0.858347
vt 0.500000 0.858353
vt 0.625000 0.858347
vt 0.750000 0.858329
vt 0.875000 0.858298
vt 0.000000 0.764506
vt 1.000000 0.764506
vt 1.000000 0.780131
vt 1.000000 0.795756
vt 1.000000 0.811381
vt 1.000000 0.827006
vt 1.000000 0.842631
vt 1.000000 0.858256
vt 0.000000 0.858256
vt 0.000000 0.842631
vt 0.000000 0.827006
vt 0.000000 0.811381
vt 0.000000 0.795756
vt 0.000000 0.780131
s 1
f 156/1/156 157/2/157 164/3/164 163/4/163
f 157/2/157 158/5/158 165/6/165 164/3/164
f 158/5/158 159/7/159 166/8/166 165/6/165
f 159/7/159 160/9/160 167/10/167 166/8/166
f 160/9/160 161/11/161 168/12/168 167/10/167
f 161/11/161 162/13/162 169/14/169 168/12/168
f 163/4/163 164/3/164 171/15/171 170/16/170
f 164/3/164 165/6/165 172/17/172 171/15/171
f 165/6/165 166/8/166 173/18/173 172/17/172
f 166/8/166 167/10/167 174/19/174 173/18/173
f 167/10/167 168/12/168 175/20/175 174/19/174
f 168/12/168 169/14/169 176/21/176 175/20/175
f 170/16/170 171/15/171 178/22/178 177/23/177
f 171/15/171 172/17/172 179/24/179 178/22/178
f 172/17/172 173/18/173 180/25/180 179/24/179
f 173/18/173 174/19/174 181/26/181 180/25/180
f 174/19/174 175/20/175 182/27/182 181/26/181
f 175/20/175 176/21/176 183/28/183 182/27/182
f 177/23/177 178/22/178 185/29/185 184/30/184
f 178/22/178 179/24/179 186/31/186 185/29/185
f 179/24/179 180/25/180 187/32/187 186/31/186
f 180/25/180 181/26/181 188/33/188 187/32/187
f 181/26/181 182/27/182 189/34/189 188/33/188
f 182/27/182 183/28/183 190/35/190 189/34/189
f 184/30/184 185/29/185 192/36/192 191/37/191
f 185/29/185 186/31/186 193/38/193 192/36/192
f 186/31/186 187/32/187 194/39/194 193/38/193
f 187/32/187 188/33/188 195/40/195 194/39/194
f 188/33/188 189/34/189 196/41/196 195/40/195
f 189/34/189 190/35/190 197/42/197 196/41/196
f 191/37/191 192/36/192 199/43/199 198/44/198
f 192/36/192 193/38/193 200/45/200 199/43/199
f 193/38/193 194/39/194 201/46/201 200/45/200
f 194/39/194 195/40/195 202/47/202 201/46/201
f 195/40/195 196/41/196 203/48/203 202/47/202
f 196/41/196 197/42/197 204/49/204 203/48/203
f 3/50/3 148/51/148 156/1/156 36/52/36
f 148/51/148 147/53/147 157/2/157 156/1/156
f 147/53/147 146/54/146 158/5/158 157/2/157
f 146/54/146 145/55/145 159/7/159 158/5/158
f 145/55/145 144/56/144 160/9/160 159/7/159
f 144/56/144 143/57/143 161/11/161 160/9/160
f 143/57/143 142/58/142 162/13/162 161/11/161
f 142/58/142 14/59/14 16/60/16 162/13/162
f 162/13/162 16/60/16 17/61/17 169/14/169
f 169/14/169 17/61/17 18/62/18 176/21/176
f 176/21/176 18/62/18 19/63/19 183/28/183
f 183/28/183 19/63/19 20/64/20 190/35/190
f 190/35/190 20/64/20 21/65/21 197/42/197
f 197/42/197 21/65/21 22/66/22 204/49/204
f 204/49/204 22/66/22 2/67/2 23/68/23
f 203/48/203 204/49/204 23/68/23 24/69/24
f 202/47/202 203/48/203 24/69/24 25/70/25
f 201/46/201 202/47/202 25/70/25 26/71/26
f 200/45/200 201/46/201 26/71/26 27/72/27
f 199/43/199 200/45/200 27/72/27 28/73/28
f 198/44/198 199/43/199 28/73/28 29/74/29
f 30/75/30 198/44/198 29/74/29 1/76/1
f 31/77/31 191/37/191 198/44/198 30/75/30
f 32/78/32 184/30/184 191/37/191 31/77/31
f 33/79/33 177/23/177 184/30/184 32/78/32
f 34/80/34 170/16/170 177/23/177 33/79/33
f 35/81/35 163/4/163 170/16/170 34/80/34
f 36/52/36 156/1/156 163/4/163 35/81/35
f 206/82/206 207/83/207 211/84/211 210/85/210
f 207/83/207 208/86/208 212/87/212 211/84/211
f 208/86/208 209/88/209 213/89/213 212/87/212
f 210/85/210 211/84/211 215/90/215 214/91/214
f 211/84/211 212/87/212 216/92/216 215/90/215
f 212/87/212 213/89/213 217/93/217 216/92/216
f 218/94/218 219/95/219 223/96/223 222/97/222
f 219/95/219 220/98/220 224/99/224 223/96/223
f 220/98/220 221/100/221 225/101/225 224/99/224
f 222/97/222 223/96/223 227/102/227 226/103/226
f 223/96/223 224/99/224 228/104/228 227/102/227
f 224/99/224 225/101/225 229/105/229 228/104/228
f 230/106/230 231/107/231 235/108/235 234/109/234
f 231/107/231 232/110/232 236/111/236 235/108/235
f 232/110/232 233/112/233 237/113/237 236/111/236
f 234/109/234 235/108/235 239/114/239 238/115/238
f 235/108/235 236/111/236 240/116/240 239/114/239
f 236/111/236 237/113/237 241/117/241 240/116/240
f 242/118/242 243/119/243 247/120/247 246/121/246
f 243/119/243 244/122/244 248/123/248 247/120/247
f 244/122/244 245/124/245 249/125/249 248/123/248
f 246/121/246 247/120/247 251/126/251 250/127/250
f 247/120/247 248/123/248 252/128/252 251/126/251
f 248/123/248 249/125/249 253/129/253 252/128/252
f 254/130/254 255/131/255 259/132/259 258/133/258
f 255/131/255 256/134/256 260/135/260 259/132/259
f 256/134/256 257/136/257 261/137/261 260/135/260
f 258/133/258 259/132/259 263/138/263 262/139/262
f 259/132/259 260/135/260 264/140/264 263/138/263
f 260/135/260 261/137/261 265/141/265 264/140/264
f 226/103/226 227/102/227 213/89/213 209/88/209
f 227/102/227 228/104/228 217/93/217 213/89/213
f 238/115/238 239/114/239 225/101/225 221/100/221
f 239/114/239 240/116/240 229/105/229 225/101/225
f 250/127/250 251/126/251 237/113/237 233/112/233
f 251/126/251 252/128/252 241/117/241 237/113/237
f 262/139/262 263/138/263 249/125/249 245/124/245
f 263/138/263 264/140/264 253/129/253 249/125/249
f 214/91/214 215/90/215 261/137/261 257/136/257
f 215/90/215 216/92/216 265/141/265 261/137/261
f 216/92/216 217/93/217 205/142/205 265/141/265
f 228/104/228 229/105/229 205/142/205 217/93/217
f 240/116/240 241/117/241 205/142/205 229/105/229
f 252/128/252 253/129/253 205/142/205 241/117/241
f 264/140/264 265/141/265 205/142/205 253/129/253
f 8/143/8 113/144/113 206/82/206 71/145/71
f 113/144/113 112/146/112 207/83/207 206/82/206
f 112/146/112 111/147/111 208/86/208 207/83/207
f 111/147/111 110/148/110 209/88/209 208/86/208
f 71/145/71 206/82/206 210/85/210 70/149/70
f 70/149/70 210/85/210 214/91/214 69/150/69
f 69/150/69 214/91/214 257/136/257 68/151/68
f 9/152/9 72/153/72 218/94/218 107/154/107
f 72/153/72 73/155/73 219/95/219 218/94/218
f 73/155/73 74/156/74 220/98/220 219/95/219
f 74/156/74 75/157/75 221/100/221 220/98/220
f 107/154/107 218/94/218 222/97/222 108/158/108
f 108/158/108 222/97/222 226/103/226 109/159/109
f 109/159/109 226/103/226 209/88/209 110/148/110
f 10/160/10 149/161/149 230/106/230 78/162/78
f 149/161/149 150/163/150 231/107/231 230/106/230
f 150/163/150 151/164/151 232/110/232 231/107/231
f 151/164/151 152/165/152 233/112/233 232/110/232
f 78/162/78 230/106/230 234/109/234 77/166/77
f 77/166/77 234/109/234 238/115/238 76/167/76
f 76/167/76 238/115/238 221/100/221 75/157/75
f 15/168/15 114/169/114 242/118/242 155/170/155
f 114/169/114 115/171/115 243/119/243 242/118/242
f 115/171/115 116/172/116 244/122/244 243/119/243
f 116/172/116 117/173/117 245/124/245 244/122/244
f 155/170/155 242/118/242 246/121/246 154/174/154
f 154/174/154 246/121/246 250/127/250 153/175/153
f 153/175/153 250/127/250 233/112/233 152/165/152
f 7/176/7 65/177/65 254/130/254 120/178/120
f 65/177/65 66/179/66 255/131/255 254/130/254
f 66/179/66 67/180/67 256/134/256 255/131/255
f 67/180/67 68/151/68 257/136/257 256/134/256
f 120/178/120 254/130/254 258/133/258 119/181/119
f 119/181/119 258/133/258 262/139/262 118/182/118
f 118/182/118 262/139/262 245/124/245 117/173/117
f 267/183/267 268/184/268 272/185/272 271/186/271
f 268/184/268 269/187/269 273/188/273 272/185/272
f 269/187/269 270/189/270 274/190/274 273/188/273
f 271/186/271 272/185/272 276/191/276 275/192/275
f 272/185/272 273/188/273 277/193/277 276/191/276
f 273/188/273 274/190/274 278/194/278 277/193/277
f 279/195/279 280/196/280 284/197/284 283/198/283
f 280/196/280 281/199/281 285/200/285 284/197/284
f 281/199/281 282/201/282 286/202/286 285/200/285
f 283/198/283 284/197/284 288/203/288 287/204/287
f 284/197/284 285/200/285 289/205/289 288/203/288
f 285/200/285 286/202/286 290/206/290 289/205/289
f 291/207/291 292/208/292 296/209/296 295/210/295
f 292/208/292 293/211/293 297/212/297 296/209/296
f 293/211/293 294/213/294 298/214/298 297/212/297
f 295/210/295 296/209/296 300/215/300 299/216/299
f 296/209/296 297/212/297 301/217/301 300/215/300
f 297/212/297 298/214/298 302/218/302 301/217/301
f 303/219/303 304/220/304 308/221/308 307/222/307
f 304/220/304 305/223/305 309/224/309 308/221/308
f 305/223/305 306/225/306 310/226/310 309/224/309
f 307/222/307 308/221/308 312/227/312 311/228/311
f 308/221/308 309/224/309 313/229/313 312/227/312
f 309/224/309 310/226/310 314/230/314 313/229/313
f 315/231/315 316/232/316 320/233/320 319/234/319
f 316/232/316 317/235/317 321/236/321 320/233/320
f 317/235/317 318/237/318 322/238/322 321/236/321
f 319/234/319 320/233/320 324/239/324 323/240/323
f 320/233/320 321/236/321 325/241/325 324/239/324
f 321/236/321 322/238/322 326/242/326 325/241/325
f 287/204/287 288/203/288 274/190/274 270/189/270
f 288/203/288 289/205/289 278/194/278 274/190/274
f 299/216/299 300/215/300 286/202/286 282/201/282
f 300/215/300 301/217/301 290/206/290 286/202/286
f 311/228/311 312/227/312 298/214/298 294/213/294
f 312/227/312 313/229/313 302/218/302 298/214/298
f 323/240/323 324/239/324 310/226/310 306/225/306
f 324/239/324 325/241/325 314/230/314 310/226/310
f 275/192/275 276/191/276 322/238/322 318/237/318
f 276/191/276 277/193/277 326/242/326 322/238/322
f 277/193/277 278/194/278 266/243/266 326/242/326
f 289/205/289 290/206/290 266/243/266 278/194/278
f 301/217/301 302/218/302 266/243/266 290/206/290
f 313/229/313 314/230/314 266/243/266 302/218/302
f 325/241/325 326/242/326 266/243/266 314/230/314
f 7/176/7 120/178/120 267/183/267 64/244/64
f 120/178/120 119/181/119 268/184/268 267/183/267
f 119/181/119 118/182/118 269/187/269 268/184/268
f 118/182/118 117/173/117 270/189/270 269/187/269
f 64/244/64 267/183/267 271/186/271 63/245/63
f 63/245/63 271/186/271 275/192/275 62/246/62
f 62/246/62 275/192/275 318/237/318 61/247/61
f 15/168/15 155/170/155 279/195/279 114/169/114
f 155/170/155 154/174/154 280/196/280 279/195/279
f 154/174/154 153/175/153 281/199/281 280/196/280
f 153/175/153 152/165/152 282/201/282 281/199/281
f 114/169/114 279/195/279 283/198/283 115/171/115
f 115/171/115 283/198/283 287/204/287 116/172/116
f 116/172/116 287/204/287 270/189/270 117/173/117
f 10/160/10 79/248/79 291/207/291 149/161/149
f 79/248/79 80/249/80 292/208/292 291/207/291
f 80/249/80 81/250/81 293/211/293 292/208/292
f 81/250/81 82/251/82 294/213/294 293/211/293
f 149/161/149 291/207/291 295/210/295 150/163/150
f 150/163/150 295/210/295 299/216/299 151/164/151
f 151/164/151 299/216/299 282/201/282 152/165/152
f 11/252/11 121/253/121 303/219/303 85/254/85
f 121/253/121 122/255/122 304/220/304 303/219/303
f 122/255/122 123/256/123 305/223/305 304/220/304
f 123/256/123 124/257/124 306/225/306 305/223/305
f 85/254/85 303/219/303 307/222/307 84/258/84
f 84/258/84 307/222/307 311/228/311 83/259/83
f 83/259/83 311/228/311 294/213/294 82/251/82
f 6/260/6 58/261/58 315/231/315 127/262/127
f 58/261/58 59/263/59 316/232/316 315/231/315
f 59/263/59 60/264/60 317/235/317 316/232/316
f 60/264/60 61/247/61 318/237/318 317/235/317
f 127/262/127 315/231/315 319/234/319 126/265/126
f 126/265/126 319/234/319 323/240/323 125/266/125
f 125/266/125 323/240/323 306/225/306 124/257/124
f 327/267/327 328/268/328 335/269/335 334/270/334
f 328/268/328 329/271/329 336/272/336 335/269/335
f 329/271/329 330/273/330 337/274/337 336/272/336
f 330/273/330 331/275/331 338/276/338 337/274/337
f 331/275/331 332/277/332 339/278/339 338/276/338
f 332/277/332 333/279/333 340/280/340 339/278/339
f 334/270/334 335/269/335 342/281/342 341/282/341
f 335/269/335 336/272/336 343/283/343 342/281/342
f 336/272/336 337/274/337 344/284/344 343/283/343
f 337/274/337 338/276/338 345/285/345 344/284/344
f 338/276/338 339/278/339 346/286/346 345/285/345
f 339/278/339 340/280/340 347/287/347 346/286/346
f 341/282/341 342/281/342 349/288/349 348/289/348
f 342/281/342 343/283/343 350/290/350 349/288/349
f 343/283/343 344/284/344 351/291/351 350/290/350
f 344/284/344 345/285/345 352/292/352 351/291/351
f 345/285/345 346/286/346 353/293/353 352/292/352
f 346/286/346 347/287/347 354/294/354 353/293/353
f 348/289/348 349/288/349 356/295/356 355/296/355
f 349/288/349 350/290/350 357/297/357 356/295/356
f 350/290/350 351/291/351 358/298/358 357/297/357
f 351/291/351 352/292/352 359/299/359 358/298/358
f 352/292/352 353/293/353 360/300/360 359/299/359
f 353/293/353 354/294/354 361/301/361 360/300/360
f 355/296/355 356/295/356 363/302/363 362/303/362
f 356/295/356 357/297/357 364/304/364 363/302/363
f 357/297/357 358/298/358 365/305/365 364/304/364
f 358/298/358 359/299/359 366/306/366 365/305/365
f 359/299/359 360/300/360 367/307/367 366/306/366
f 360/300/360 361/301/361 368/308/368 367/307/367
f 362/303/362 363/302/363 370/309/370 369/310/369
f 363/302/363 364/304/364 371/311/371 370/309/370
f 364/304/364 365/305/365 372/312/372 371/311/371
f 365/305/365 366/306/366 373/313/373 372/312/372
f 366/306/366 367/307/367 374/314/374 373/313/373
f 367/307/367 368/308/368 375/315/375 374/314/374
f 6/260/6 127/262/127 327/267/327 57/316/57
f 127/262/127 126/265/126 328/268/328 327/267/327
f 126/265/126 125/266/125 329/271/329 328/268/328
f 125/266/125 124/257/124 330/273/330 329/271/329
f 124/257/124 123/256/123 331/275/331 330/273/330
f 123/256/123 122/255/122 332/277/332 331/275/331
f 122/255/122 121/253/121 333/279/333 332/277/332
f 121/253/121 11/252/11 86/317/86 333/279/333
f 333/279/333 86/317/86 87/318/87 340/280/340
f 340/280/340 87/318/87 88/319/88 347/287/347
f 347/287/347 88/319/88 89/320/89 354/294/354
f 354/294/354 89/320/89 90/321/90 361/301/361
f 361/301/361 90/321/90 91/322/91 368/308/368
f 368/308/368 91/322/91 92/323/92 375/315/375
f 375/315/375 92/323/92 12/324/12 128/325/128
f 374/314/374 375/315/375 128/325/128 129/326/129
f 373/313/373 374/314/374 129/326/129 130/327/130
f 372/312/372 373/313/373 130/327/130 131/328/131
f 371/311/371 372/312/372 131/328/131 132/329/132
f 370/309/370 371/311/371 132/329/132 133/330/133
f 369/310/369 370/309/370 133/330/133 134/331/134
f 51/332/51 369/310/369 134/331/134 5/333/5
f 52/334/52 362/303/362 369/310/369 51/332/51
f 53/335/53 355/296/355 362/303/362 52/334/52
f 54/336/54 348/289/348 355/296/355 53/335/53
f 55/337/55 341/282/341 348/289/348 54/336/54
f 56/338/56 334/270/334 341/282/341 55/337/55
f 57/316/57 327/267/327 334/270/334 56/338/56
f 376/339/376 377/340/377 384/341/384 383/342/383
f 377/340/377 378/343/378 385/344/385 384/341/384
f 378/343/378 379/345/379 386/346/386 385/344/385
f 379/345/379 380/347/380 387/348/387 386/346/386
f 380/347/380 381/349/381 388/350/388 387/348/387
f 381/349/381 382/351/382 389/352/389 388/350/388
f 383/342/383 384/341/384 391/353/391 390/354/390
f 384/341/384 385/344/385 392/355/392 391/353/391
f 385/344/385 386/346/386 393/356/393 392/355/392
f 386/346/386 387/348/387 394/357/394 393/356/393
f 387/348/387 388/350/388 395/358/395 394/357/394
f 388/350/388 389/352/389 396/359/396 395/358/395
f 390/354/390 391/353/391 398/360/398 397/361/397
f 391/353/391 392/355/392 399/362/399 398/360/398
f 392/355/392 393/356/393 400/363/400 399/362/399
f 393/356/393 394/357/394 401/364/401 400/363/400
f 394/357/394 395/358/395 402/365/402 401/364/401
f 395/358/395 396/359/396 403/366/403 402/365/402
f 397/361/397 398/360/398 405/367/405 404/368/404
f 398/360/398 399/362/399 406/369/406 405/367/405
f 399/362/399 400/363/400 407/370/407 406/369/406
f 400/363/400 401/364/401 408/371/408 407/370/407
f 401/364/401 402/365/402 409/372/409 408/371/408
f 402/365/402 403/366/403 410/373/410 409/372/409
f 404/368/404 405/367/405 412/374/412 411/375/411
f 405/367/405 406/369/406 413/376/413 412/374/412
f 406/369/406 407/370/407 414/377/414 413/376/413
f 407/370/407 408/371/408 415/378/415 414/377/414
f 408/371/408 409/372/409 416/379/416 415/378/415
f 409/372/409 410/373/410 417/380/417 416/379/416
f 411/375/411 412/374/412 419/381/419 418/382/418
f 412/374/412 413/376/413 420/383/420 419/381/419
f 413/376/413 414/377/414 421/384/421 420/383/420
f 414/377/414 415/378/415 422/385/422 421/384/421
f 415/378/415 416/379/416 423/386/423 422/385/422
f 416/379/416 417/380/417 424/387/424 423/386/423
f 5/333/5 134/331/134 376/339/376 50/388/50
f 134/331/134 133/330/133 377/340/377 376/339/376
f 133/330/133 132/329/132 378/343/378 377/340/377
f 132/329/132 131/328/131 379/345/379 378/343/378
f 131/328/131 130/327/130 380/347/380 379/345/379
f 130/327/130 129/326/129 381/349/381 380/347/380
f 129/326/129 128/325/128 382/351/382 381/349/381
f 128/325/128 12/324/12 93/389/93 382/351/382
f 382/351/382 93/389/93 94/390/94 389/352/389
f 389/352/389 94/390/94 95/391/95 396/359/396
f 396/359/396 95/391/95 96/392/96 403/366/403
f 403/366/403 96/392/96 97/393/97 410/373/410
f 410/373/410 97/393/97 98/394/98 417/380/417
f 417/380/417 98/394/98 99/395/99 424/387/424
f 424/387/424 99/395/99 13/396/13 135/397/135
f 423/386/423 424/387/424 135/397/135 136/398/136
f 422/385/422 423/386/423 136/398/136 137/399/137
f 421/384/421 422/385/422 137/399/137 138/400/138
f 420/383/420 421/384/421 138/400/138 139/401/139
f 419/381/419 420/383/420 139/401/139 140/402/140
f 418/382/418 419/381/419 140/402/140 141/403/141
f 44/404/44 418/382/418 141/403/141 4/405/4
f 45/406/45 411/375/411 418/382/418 44/404/44
f 46/407/46 404/368/404 411/375/411 45/406/45
f 47/408/47 397/361/397 404/368/404 46/407/46
f 48/409/48 390/354/390 397/361/397 47/408/47
f 49/410/49 383/342/383 390/354/390 48/409/48
f 50/388/50 376/339/376 383/342/383 49/410/49
f 425/411/425 426/412/426 433/413/433 432/414/432
f 426/412/426 427/415/427 434/416/434 433/413/433
f 427/415/427 428/417/428 435/418/435 434/416/434
f 428/417/428 429/419/429 436/420/436 435/418/435
f 429/419/429 430/421/430 437/422/437 436/420/436
f 430/421/430 431/423/431 438/424/438 437/422/437
f 432/414/432 433/413/433 440/425/440 439/426/439
f 433/413/433 434/416/434 441/427/441 440/425/440
f 434/416/434 435/418/435 442/428/442 441/427/441
f 435/418/435 436/420/436 443/429/443 442/428/442
f 436/420/436 437/422/437 444/430/444 443/429/443
f 437/422/437 438/424/438 445/431/445 444/430/444
f 439/426/439 440/425/440 447/432/447 446/433/446
f 440/425/440 441/427/441 448/434/448 447/432/447
f 441/427/441 442/428/442 449/435/449 448/434/448
f 442/428/442 443/429/443 450/436/450 449/435/449
f 443/429/443 444/430/444 451/437/451 450/436/450
f 444/430/444 445/431/445 452/438/452 451/437/451
f 446/433/446 447/432/447 454/439/454 453/440/453
f 447/432/447 448/434/448 455/441/455 454/439/454
f 448/434/448 449/435/449 456/442/456 455/441/455
f 449/435/449 450/436/450 457/443/457 456/442/456
f 450/436/450 451/437/451 458/444/458 457/443/457
f 451/437/451 452/438/452 459/445/459 458/444/458
f 453/440/453 454/439/454 461/446/461 460/447/460
f 454/439/454 455/441/455 462/448/462 461/446/461
f 455/441/455 456/442/456 463/449/463 462/448/462
f 456/442/456 457/443/457 464/450/464 463/449/463
f 457/443/457 458/444/458 465/451/465 464/450/464
f 458/444/458 459/445/459 466/452/466 465/451/465
f 460/447/460 461/446/461 468/453/468 467/454/467
f 461/446/461 462/448/462 469/455/469 468/453/468
f 462/448/462 463/449/463 470/456/470 469/455/469
f 463/449/463 464/450/464 471/457/471 470/456/470
f 464/450/464 465/451/465 472/458/472 471/457/471
f 465/451/465 466/452/466 473/459/473 472/458/472
f 4/405/4 141/403/141 425/411/425 43/460/43
f 141/403/141 140/402/140 426/412/426 425/411/425
f 140/402/140 139/401/139 427/415/427 426/412/426
f 139/401/139 138/400/138 428/417/428 427/415/427
f 138/400/138 137/399/137 429/419/429 428/417/428
f 137/399/137 136/398/136 430/421/430 429/419/429
f 136/398/136 135/397/135 431/423/431 430/421/430
f 135/397/135 13/396/13 100/461/100 431/423/431
f 431/423/431 100/461/100 101/462/101 438/424/438
f 438/424/438 101/462/101 102/463/102 445/431/445
f 445/431/445 102/463/102 103/464/103 452/438/452
f 452/438/452 103/464/103 104/465/104 459/445/459
f 459/445/459 104/465/104 105/466/105 466/452/466
f 466/452/466 105/466/105 106/467/106 473/459/473
f 473/459/473 106/467/106 14/59/14 142/58/142
f 472/458/472 473/459/473 142/58/142 143/57/143
f 471/457/471 472/458/472 143/57/143 144/56/144
f 470/456/470 471/457/471 144/56/144 145/55/145
f 469/455/469 470/456/470 145/55/145 146/54/146
f 468/453/468 469/455/469 146/54/146 147/53/147
f 467/454/467 468/453/468 147/53/147 148/51/148
f 37/468/37 467/454/467 148/51/148 3/50/3
f 38/469/38 460/447/460 467/454/467 37/468/37
f 39/470/39 453/440/453 460/447/460 38/469/38
f 40/471/40 446/433/446 453/440/453 39/470/39
f 41/472/41 439/426/439 446/433/446 40/471/40
f 42/473/42 432/414/432 439/426/439 41/472/41
f 43/460/43 425/411/425 432/414/432 42/473/42
