# Blender 5.1.2
# www.blender.org
mtllib Cloud_Metaball.mtl
o Mball.011
v -0.600000 2.145250 0.200000
v -0.200000 1.831759 0.200000
v -0.200000 2.188878 0.600000
v -0.213562 2.200000 0.600000
v -0.600000 2.200000 0.258487
v -0.600000 2.403969 0.600000
v -1.000000 2.442810 0.600000
v -1.000000 2.200000 0.204899
v -1.400000 2.324976 0.600000
v -1.400000 2.200000 0.376906
v -1.400000 2.035751 0.200000
v -1.000000 2.195413 0.200000
v -1.400000 1.800000 0.047644
v -1.000000 1.800000 -0.071773
v -1.400000 1.400000 -0.141065
v -1.119348 1.400000 -0.200000
v -1.000000 1.432666 -0.200000
v -1.400000 1.297591 -0.200000
v -1.800000 1.097400 -0.200000
v -1.800000 1.400000 0.121736
v -1.800000 1.000000 -0.325790
v -1.400000 1.000000 -0.429544
v -1.800000 0.796632 -0.600000
v -1.400000 0.824430 -0.600000
v -1.000000 0.851359 -0.600000
v -1.000000 1.000000 -0.471381
v -1.400000 0.600000 -0.811817
v -1.000000 0.600000 -0.818640
v -1.400000 0.247389 -1.000000
v -1.000000 0.240946 -1.000000
v -1.400000 0.200000 -1.015960
v -1.000000 0.200000 -1.012755
v -1.400000 -0.200000 -1.054043
v -1.000000 -0.200000 -1.039227
v -1.400000 -0.456195 -1.000000
v -1.000000 -0.381389 -1.000000
v -1.400000 -0.600000 -0.944024
v -1.000000 -0.600000 -0.910197
v -1.400000 -1.000000 -0.620901
v -1.306777 -1.000000 -0.600000
v -1.000000 -0.956963 -0.600000
v -1.400000 -1.016555 -0.600000
v -0.600000 -0.942065 -0.600000
v -0.600000 -0.600000 -0.918077
v -1.000000 -1.000000 -0.536218
v -0.600000 -1.000000 -0.506258
v -1.000000 -1.145357 -0.200000
v -0.600000 -1.125705 -0.200000
v -0.200000 -1.184429 -0.200000
v -0.200000 -1.000000 -0.552101
v -0.600000 -1.216559 0.200000
v -0.200000 -1.372669 0.200000
v -0.600000 -1.264793 0.600000
v -0.413180 -1.400000 0.600000
v -0.200000 -1.400000 0.261663
v -0.129822 -1.400000 0.200000
v -0.200000 -1.555935 0.600000
v 0.200000 -1.721150 0.600000
v 0.200000 -1.481973 0.200000
v 0.200000 -1.400000 0.069098
v 0.600000 -1.442803 0.200000
v 0.600000 -1.400000 0.146468
v 0.200000 -1.230880 -0.200000
v 0.600000 -1.124030 -0.200000
v 0.707251 -1.400000 0.200000
v 1.000000 -1.188257 0.200000
v 1.000000 -1.000000 0.027885
v 0.781263 -1.000000 -0.200000
v 1.000000 -0.728378 -0.200000
v 0.600000 -0.785915 -0.600000
v 0.600000 -1.000000 -0.352470
v 1.000000 -0.600000 -0.299702
v 0.781611 -0.600000 -0.600000
v 1.000000 -0.200000 -0.532603
v 0.960857 -0.200000 -0.600000
v 1.000000 0.200000 -0.530196
v 0.960788 0.200000 -0.600000
v 1.000000 0.530214 -0.200000
v 0.960788 0.600000 -0.200000
v 0.775880 0.600000 -0.600000
v 1.000000 0.562277 0.200000
v 0.973994 0.600000 0.200000
v 1.000000 0.484738 0.600000
v 0.887905 0.600000 0.600000
v 1.000000 0.393897 1.000000
v 0.739244 0.600000 1.000000
v 0.600000 0.710253 1.000000
v 0.600000 0.874091 0.600000
v 0.372089 1.000000 1.000000
v 0.499243 1.000000 0.600000
v 0.267773 1.400000 1.000000
v 0.273743 1.400000 0.600000
v 0.200000 1.356885 0.200000
v 0.581394 1.000000 0.200000
v 0.200000 1.400000 0.291422
v 0.200000 1.166271 -0.200000
v 0.533727 1.000000 -0.200000
v 0.600000 0.983576 0.200000
v 0.600000 0.960927 -0.200000
v 0.200000 0.960824 -0.600000
v 0.600000 0.775880 -0.600000
v 0.200000 1.000000 -0.532700
v -0.200000 0.975397 -0.600000
v -0.200000 1.000000 -0.569850
v -0.200000 1.329887 -0.200000
v -0.600000 1.000000 -0.513666
v -0.432673 1.400000 -0.200000
v -0.600000 1.400000 -0.219720
v -0.600000 1.437883 -0.200000
v -0.200000 1.400000 -0.133018
v -0.200000 1.800000 0.178192
v -0.600000 1.800000 -0.034455
v -1.000000 1.400000 -0.213509
v -0.200000 0.600000 -0.961727
v 0.200000 0.600000 -0.960788
v -0.200000 0.531749 -1.000000
v 0.200000 0.530196 -1.000000
v -0.200000 0.200000 -1.116414
v 0.200000 0.200000 -1.115109
v -0.200000 -0.200000 -1.117510
v 0.200000 -0.200000 -1.115109
v -0.200000 -0.537955 -1.000000
v 0.200000 -0.530196 -1.000000
v -0.200000 -0.600000 -0.965886
v 0.200000 -0.600000 -0.960788
v -0.200000 -0.970444 -0.600000
v 0.200000 -0.966538 -0.600000
v 0.200000 -1.000000 -0.553119
v 0.600000 -0.600000 -0.776062
v 0.530196 -0.200000 -1.000000
v -0.600000 -0.428317 -1.000000
v -0.600000 -0.200000 -1.062363
v 0.530196 0.200000 -1.000000
v 0.600000 -0.200000 -0.960788
v 0.600000 0.200000 -0.960788
v -0.600000 0.361125 -1.000000
v -0.600000 0.200000 -1.050208
v 0.600000 0.600000 -0.775880
v -0.600000 0.600000 -0.874021
v -0.600000 0.907117 -0.600000
v 0.157883 1.400000 0.200000
v 0.200000 1.558418 0.600000
v 0.091381 1.800000 0.600000
v -0.175780 1.800000 0.200000
v 0.200000 1.695744 1.000000
v 0.163859 1.800000 1.000000
v -0.111376 2.200000 1.000000
v -0.200000 2.200000 0.626707
v -0.200000 2.177413 1.400000
v -0.200000 2.200000 1.349348
v 0.080659 1.800000 1.400000
v -0.200000 2.275861 1.000000
v -0.600000 2.394906 1.400000
v -0.600000 2.474588 1.000000
v -0.227546 2.200000 1.400000
v -0.600000 2.200000 1.737727
v -1.000000 2.438459 1.400000
v -1.000000 2.510123 1.000000
v -1.400000 2.367799 1.400000
v -1.400000 2.400080 1.000000
v -1.400000 2.334601 1.800000
v -1.000000 2.296568 1.800000
v -1.400000 2.319916 2.200000
v -1.000000 2.200000 2.078809
v -1.076013 2.200000 2.200000
v -1.000000 2.165076 2.200000
v -0.694687 2.200000 1.800000
v -0.600000 2.155808 1.800000
v -0.600000 1.934827 2.200000
v -1.000000 2.076742 2.600000
v -0.600000 1.828317 2.600000
v -1.000000 1.961335 3.000000
v -0.600000 1.800000 2.736133
v -0.729481 1.800000 3.000000
v -0.600000 1.728195 3.000000
v -0.554461 1.800000 2.600000
v -0.200000 1.620545 2.600000
v -0.200000 1.549385 3.000000
v -0.402569 1.800000 2.200000
v -0.200000 1.671226 2.200000
v -0.200000 1.800000 1.869157
v 0.200000 1.432711 2.200000
v 0.200000 1.455310 2.600000
v -0.600000 1.468971 3.400000
v -0.200000 1.400000 3.299525
v -0.422460 1.400000 3.400000
v -0.200000 1.326600 3.400000
v -0.600000 1.089023 3.800000
v -0.600000 1.400000 3.471864
v -0.200000 1.000000 3.702861
v -0.409851 1.000000 3.800000
v -0.200000 0.863497 3.800000
v 0.200000 1.000000 3.506546
v 0.200000 0.600000 3.708912
v 0.037631 0.600000 3.800000
v 0.200000 0.200000 3.797869
v 0.196828 0.200000 3.800000
v 0.200000 0.181661 3.800000
v 0.600000 0.200000 3.521276
v 0.600000 -0.200000 3.502477
v 0.232047 -0.200000 3.800000
v 0.733671 0.200000 3.400000
v 0.703623 -0.200000 3.400000
v 0.600000 0.600000 3.428928
v 0.629890 0.600000 3.400000
v 0.600000 0.657716 3.400000
v 0.600000 1.000000 3.109769
v 0.664416 1.000000 3.000000
v 0.916626 0.600000 3.000000
v 0.343718 1.000000 3.400000
v 0.200000 1.121842 3.400000
v 0.200000 1.379289 3.000000
v 0.600000 1.070364 3.000000
v 0.200000 1.400000 2.934619
v 0.300701 1.400000 2.600000
v 0.600000 1.186594 2.600000
v 0.248140 1.400000 2.200000
v 0.600000 1.137959 2.200000
v 0.200000 1.392575 1.800000
v 0.543863 1.000000 1.800000
v 0.600000 1.000000 1.899381
v 0.200000 1.400000 1.885156
v 0.600000 0.939917 1.800000
v 0.356034 1.000000 1.400000
v 0.600000 0.716724 1.400000
v 0.753700 0.600000 1.400000
v 0.934853 0.600000 1.800000
v 1.000000 0.600000 2.030669
v 1.000000 0.653048 2.200000
v 0.744662 1.000000 2.200000
v 1.000000 0.525008 1.800000
v 1.233625 0.200000 1.800000
v 1.215937 0.200000 2.200000
v 1.032323 0.600000 2.200000
v 1.000000 0.409065 1.400000
v 1.196908 0.200000 1.400000
v 1.400000 -0.195380 1.800000
v 1.400000 -0.106755 1.400000
v 1.447582 -0.200000 1.400000
v 1.401538 -0.200000 1.800000
v 1.464674 -0.600000 1.800000
v 1.566442 -0.600000 1.400000
v 1.414962 -1.000000 1.800000
v 1.554884 -1.000000 1.400000
v 1.400000 -1.044436 1.800000
v 1.400000 -1.378901 1.400000
v 1.400000 -1.000000 1.827435
v 1.386839 -1.400000 1.400000
v 1.205517 -1.400000 1.800000
v 1.000000 -1.586837 1.800000
v 1.000000 -1.759195 1.400000
v 1.382074 -1.400000 1.000000
v 1.000000 -1.754618 1.000000
v 1.186856 -1.400000 0.600000
v 1.000000 -1.569901 0.600000
v 1.000000 -1.400000 0.406824
v 1.397690 -1.000000 0.600000
v 1.138149 -1.000000 0.200000
v 1.400000 -0.990358 0.600000
v 1.400000 -0.600000 0.486739
v 1.275608 -0.600000 0.200000
v 1.400000 -0.283237 0.600000
v 1.379324 -0.200000 0.600000
v 1.282625 -0.200000 0.200000
v 1.205743 0.200000 0.600000
v 1.185509 0.200000 0.200000
v 1.120029 0.200000 -0.200000
v 1.150781 -0.200000 -0.200000
v 1.062165 -0.600000 -0.200000
v 1.400000 -0.200000 0.720720
v 1.445540 -0.600000 0.600000
v 1.561865 -0.600000 1.000000
v 1.437720 -0.200000 1.000000
v 1.400000 -1.000000 0.604610
v 1.550811 -1.000000 1.000000
v 1.400000 -1.371259 1.000000
v 0.600000 -1.733129 0.600000
v 0.600000 -1.800000 0.725081
v 0.909100 -1.800000 1.000000
v 0.600000 -1.890143 1.000000
v 0.200000 -1.874971 1.000000
v 0.200000 -1.800000 0.762054
v 0.200000 -1.878988 1.400000
v 0.600000 -1.894063 1.400000
v 0.200000 -1.800000 1.662162
v 0.600000 -1.800000 1.698765
v 0.918276 -1.800000 1.400000
v -0.031580 -1.800000 1.400000
v -0.200000 -1.647803 1.800000
v 0.200000 -1.743360 1.800000
v -0.200000 -1.705300 1.400000
v -0.022245 -1.800000 1.000000
v -0.200000 -1.699998 1.000000
v -0.200000 -1.676295 2.200000
v 0.200000 -1.612631 2.200000
v -0.200000 -1.779669 2.600000
v 0.200000 -1.553338 2.600000
v 0.425125 -1.400000 2.600000
v 0.600000 -1.400000 2.346833
v 0.600000 -1.487459 2.200000
v 0.600000 -1.261391 2.600000
v 0.600000 -1.039404 3.000000
v 0.316539 -1.400000 3.000000
v 0.627953 -1.000000 3.000000
v 0.858416 -1.000000 2.600000
v 0.600000 -1.000000 3.058952
v 0.600000 -0.600000 3.387517
v 0.859408 -0.600000 3.000000
v 0.418976 -1.000000 3.400000
v 0.590321 -0.600000 3.400000
v 0.600000 -0.570657 3.400000
v 0.200000 -1.000000 3.682198
v 0.200000 -0.600000 3.788379
v 0.200000 -1.380673 3.400000
v 0.186817 -1.400000 3.400000
v -0.091778 -1.400000 3.800000
v 0.092049 -1.000000 3.800000
v -0.200000 -1.528485 3.800000
v -0.184512 -1.800000 3.400000
v -0.200000 -1.800000 3.425818
v -0.200000 -1.811147 3.400000
v -0.097873 -1.800000 3.000000
v -0.200000 -1.872255 3.000000
v -0.600000 -1.979728 3.400000
v -0.600000 -2.031716 3.000000
v -0.200000 -1.800000 2.666523
v -0.243686 -1.800000 2.600000
v -0.600000 -1.935980 2.600000
v -0.600000 -1.800000 2.364738
v -1.000000 -1.943019 2.600000
v -1.000000 -1.800000 2.359823
v -1.000000 -1.986005 3.400000
v -1.000000 -2.037906 3.000000
v -1.000000 -1.800000 3.770005
v -0.600000 -1.800000 3.743891
v -1.400000 -1.855476 3.400000
v -1.400000 -1.800000 3.542524
v -1.517624 -1.800000 3.400000
v -1.400000 -1.913697 3.000000
v -1.651071 -1.800000 3.000000
v -1.800000 -1.665232 3.400000
v -1.800000 -1.728280 3.000000
v -2.200000 -1.439198 3.400000
v -2.200000 -1.508804 3.000000
v -1.800000 -1.657342 2.600000
v -2.200000 -1.466907 2.600000
v -1.800000 -1.442203 2.200000
v -1.950296 -1.400000 2.200000
v -2.200000 -1.400000 2.379728
v -2.200000 -1.335233 2.200000
v -1.800000 -1.400000 2.140133
v -1.800000 -1.151398 1.800000
v -2.200000 -1.152473 1.800000
v -2.600000 -1.198535 2.200000
v -2.600000 -1.057297 1.800000
v -2.200000 -1.000000 1.515055
v -2.600000 -1.000000 1.684589
v -2.716009 -1.000000 1.800000
v -3.000000 -0.790923 1.800000
v -2.600000 -0.839982 1.400000
v -2.948019 -0.600000 1.400000
v -3.000000 -0.600000 1.470005
v -3.000000 -0.545038 1.400000
v -3.214839 -0.200000 1.400000
v -3.357146 -0.200000 1.800000
v -3.164245 -0.600000 1.800000
v -3.000000 -0.200000 1.072042
v -3.244596 -0.600000 2.200000
v -3.392010 -0.200000 2.200000
v -3.400000 -0.149735 2.200000
v -3.400000 0.042315 1.800000
v -3.405526 0.200000 1.800000
v -3.417052 0.200000 2.200000
v -3.400000 0.344553 2.200000
v -3.400000 0.269554 1.800000
v -3.400000 0.200000 2.346118
v -3.357110 0.600000 2.200000
v -3.288419 0.600000 2.600000
v -3.354375 0.200000 2.600000
v -3.250997 1.000000 2.200000
v -3.195291 1.000000 2.600000
v -3.097455 1.400000 2.200000
v -3.082952 1.400000 2.600000
v -3.000000 1.371285 1.800000
v -3.000000 1.400000 1.840753
v -3.195958 1.000000 1.800000
v -3.000000 1.594199 2.200000
v -2.981939 1.400000 1.800000
v -2.659236 1.800000 1.800000
v -2.874630 1.800000 2.200000
v -2.600000 2.113116 2.200000
v -2.600000 1.857255 1.800000
v -2.600000 1.800000 1.737287
v -2.266200 1.800000 1.400000
v -2.200000 1.867055 1.400000
v -2.200000 2.137156 1.800000
v -2.600000 1.455134 1.400000
v -2.600000 1.400000 1.353734
v -2.239165 1.400000 1.000000
v -2.200000 1.468612 1.000000
v -2.200000 1.800000 1.316517
v -2.600000 1.000000 1.063499
v -2.527740 1.000000 1.000000
v -2.600000 0.919589 1.000000
v -2.600000 0.629232 0.600000
v -2.279750 1.000000 0.600000
v -2.600000 0.600000 0.525588
v -2.550183 0.600000 0.200000
v -2.200000 0.972836 0.200000
v -2.200000 1.000000 0.306851
v -2.200000 1.107862 0.600000
v -2.175092 1.000000 0.200000
v -1.861361 1.400000 0.200000
v -2.038618 1.400000 0.600000
v -1.800000 1.494690 0.200000
v -1.800000 1.800000 0.419671
v -1.891751 1.800000 0.600000
v -1.800000 1.965812 0.600000
v -1.800000 2.108536 1.000000
v -2.024306 1.800000 1.000000
v -2.200000 1.400000 0.945863
v -2.600000 0.532353 0.200000
v -2.624519 0.600000 0.600000
v -2.815502 0.200000 0.600000
v -2.756221 0.200000 0.200000
v -2.814195 -0.200000 0.600000
v -2.790818 -0.200000 0.200000
v -2.643025 -0.600000 0.600000
v -2.681838 -0.600000 0.200000
v -2.600000 -0.658659 0.600000
v -2.600000 -0.744359 0.200000
v -2.600000 -0.689509 -0.200000
v -2.649149 -0.600000 -0.200000
v -2.600000 -0.600000 -0.333710
v -2.600000 -0.200000 -0.550353
v -2.756608 -0.200000 -0.200000
v -2.600000 0.200000 -0.471694
v -2.713345 0.200000 -0.200000
v -2.600000 0.455744 -0.200000
v -2.433120 -0.600000 -0.600000
v -2.566024 -0.200000 -0.600000
v -2.200000 -0.600000 -0.800273
v -2.200000 -0.200000 -0.920958
v -2.200000 0.200000 -0.873207
v -2.513816 0.200000 -0.600000
v -2.200000 0.600000 -0.624072
v -2.228839 0.600000 -0.600000
v -2.200000 0.623067 -0.600000
v -2.200000 0.856544 -0.200000
v -2.497960 0.600000 -0.200000
v -1.800000 0.600000 -0.803083
v -1.862399 0.200000 -1.000000
v -1.800000 0.235454 -1.000000
v -1.800000 0.200000 -1.012155
v -1.800000 -0.200000 -1.054534
v -2.020781 -0.200000 -1.000000
v -1.800000 -0.468617 -1.000000
v -2.200000 -0.856013 -0.600000
v -1.917127 -1.000000 -0.600000
v -1.800000 -1.000000 -0.636359
v -1.800000 -0.600000 -0.949650
v -1.800000 -1.028972 -0.600000
v -2.200000 -1.082940 -0.200000
v -1.800000 -1.220884 -0.200000
v -2.200000 -1.000000 -0.399873
v -2.200000 -1.116757 0.200000
v -1.800000 -1.250813 0.200000
v -2.200000 -1.000000 0.597394
v -2.198107 -1.000000 0.600000
v -1.800000 -1.133578 0.600000
v -2.200000 -0.999073 0.600000
v -1.800000 -1.000000 0.878857
v -1.400000 -1.000000 0.789188
v -1.400000 -1.116574 0.600000
v -1.000000 -1.000000 0.808182
v -1.000000 -1.093488 0.600000
v -1.000000 -1.173508 0.200000
v -1.400000 -1.237554 0.200000
v -1.400000 -1.207883 -0.200000
v -0.833584 -1.000000 1.000000
v -0.600000 -1.277789 1.000000
v -2.370514 -1.000000 0.200000
v -2.323474 -1.000000 -0.200000
v -2.600000 -0.688179 1.000000
v -2.698850 -0.600000 1.000000
v -3.000000 -0.035587 1.000000
v -2.958034 -0.200000 1.000000
v -3.000000 0.200000 0.980829
v -3.013112 0.200000 1.000000
v -3.000000 0.289492 1.000000
v -2.877111 0.600000 1.000000
v -3.000000 0.600000 1.133947
v -3.201031 0.600000 1.400000
v -3.286413 0.200000 1.400000
v -3.000000 0.982299 1.400000
v -3.000000 1.000000 1.414562
v -3.340121 0.600000 1.800000
v -2.988634 1.000000 1.400000
v -2.653663 1.400000 1.400000
v -3.400000 0.200000 1.768721
v -1.968779 1.000000 -0.200000
v -2.600000 2.173017 2.600000
v -2.911336 1.800000 2.600000
v -2.600000 2.043931 3.000000
v -2.796601 1.800000 3.000000
v -2.600000 1.800000 3.263774
v -2.600000 1.518079 3.400000
v -2.635525 1.400000 3.400000
v -2.946903 1.400000 3.000000
v -3.000000 1.165816 3.000000
v -2.745008 1.000000 3.400000
v -3.000000 1.000000 3.068202
v -3.000000 0.600000 3.225744
v -2.881481 0.600000 3.400000
v -3.000000 0.200804 3.400000
v -3.000233 0.200000 3.400000
v -3.213855 0.200000 3.000000
v -3.135741 0.600000 3.000000
v -3.061006 -0.200000 3.400000
v -3.239871 -0.200000 3.000000
v -3.000000 -0.571051 3.400000
v -3.000000 -0.600000 3.378198
v -3.149057 -0.600000 3.000000
v -3.000000 -0.874644 3.000000
v -2.991379 -0.600000 3.400000
v -2.755197 -1.000000 3.400000
v -2.900586 -1.000000 3.000000
v -2.600000 -1.149852 3.400000
v -2.600000 -1.256769 3.000000
v -2.600000 -1.000000 3.732234
v -2.565880 -1.000000 3.800000
v -2.200000 -1.292436 3.800000
v -2.200000 -1.400000 3.520451
v -2.260278 -1.400000 3.400000
v -2.023000 -1.400000 3.800000
v -2.200000 -1.095069 4.200000
v -1.800000 -1.317062 4.200000
v -1.800000 -1.400000 4.042533
v -1.800000 -1.516805 3.800000
v -1.573142 -1.400000 4.200000
v -1.400000 -1.448231 4.200000
v -1.400000 -1.680970 3.800000
v -1.400000 -1.400000 4.273063
v -1.800000 -1.087078 4.600000
v -1.400000 -1.171659 4.600000
v -1.800000 -1.000000 4.731022
v -1.400000 -1.000000 4.811898
v -1.800000 -0.724802 5.000000
v -1.400000 -0.801794 5.000000
v -1.800000 -0.600000 5.074544
v -1.400000 -0.600000 5.124843
v -1.800000 -0.200000 5.188783
v -1.400000 -0.200000 5.234529
v -1.800000 0.200000 5.151270
v -1.400000 0.200000 5.197197
v -1.800000 0.519884 5.000000
v -1.400000 0.596725 5.000000
v -1.800000 0.600000 4.940156
v -1.400000 0.600000 4.997552
v -1.800000 0.875511 4.600000
v -1.400000 0.926149 4.600000
v -1.800000 1.000000 4.277631
v -1.400000 1.000000 4.408207
v -1.038055 1.000000 4.200001
v -1.000000 0.989373 4.200000
v -1.000000 0.813132 4.600000
v -1.400000 1.065005 4.200000
v -1.000000 1.000000 4.176842
v -0.600000 0.774520 4.200000
v -0.600000 0.600000 4.425509
v -0.718488 0.600000 4.600000
v -0.600000 0.445290 4.600000
v -0.440275 0.600000 4.200000
v -0.246881 0.200000 4.200001
v -0.486825 0.200000 4.600000
v -0.200000 0.200000 4.143419
v -0.200000 0.600000 3.960310
v -0.200000 0.008775 4.200000
v -0.600000 0.200000 4.773400
v -0.600000 -0.200000 4.832830
v -0.425981 -0.200000 4.600000
v -0.600000 -0.600000 4.708591
v -0.495206 -0.600000 4.600000
v -0.600000 -0.802770 4.600000
v -0.200000 -0.600000 4.238011
v -0.200000 -0.766914 4.200000
v -0.279160 -1.000000 4.200000
v -0.600000 -1.000000 4.474821
v -0.200000 -1.000000 4.119403
v -0.171939 -0.600000 4.200000
v -0.790166 -1.000000 4.600000
v -1.000000 -1.113429 4.600000
v -0.600000 -1.354175 4.200000
v -0.689336 -1.400000 4.200000
v -1.000000 -1.400000 4.293018
v -1.000000 -1.479512 4.200000
v -0.600000 -1.400000 4.159967
v -0.600000 -1.757160 3.800000
v -1.000000 -1.781522 3.800000
v -0.200000 -1.400000 3.899123
v -1.000000 -1.000000 4.709168
v -0.200000 -0.200000 4.244398
v -0.977676 -0.600000 5.000000
v -0.777548 -0.200000 5.000000
v -1.000000 -0.600000 5.012577
v -1.000000 -0.200000 5.134148
v -1.000000 0.200000 5.093483
v -0.839656 0.200000 5.000000
v -1.000000 0.416491 5.000000
v -1.000000 -0.621403 5.000000
v -2.200000 0.628817 4.600000
v -2.200000 0.829858 4.200000
v -1.893924 1.000000 4.200000
v -1.800000 1.031245 4.200000
v -2.200000 1.149479 3.800000
v -1.800000 1.332076 3.800000
v -2.200000 1.000000 3.941956
v -2.200000 1.400000 3.658098
v -1.800000 1.400000 3.750377
v -2.200000 1.800000 3.503324
v -1.800000 1.800000 3.548172
v -2.424134 1.800000 3.400000
v -2.600000 1.400000 3.429950
v -2.200000 1.956046 3.400000
v -1.400000 1.400000 3.729041
v -1.400000 1.323403 3.800000
v -2.600000 1.000000 3.553816
v -2.351624 1.000000 3.800000
v -2.600000 0.661671 3.800000
v -1.000000 0.600000 4.867410
v -2.200000 0.600000 4.638131
v -2.228034 0.600000 4.600000
v -2.200000 0.200000 4.928834
v -2.464321 0.200000 4.600000
v -2.200000 -0.200000 4.976386
v -2.510115 -0.200000 4.600000
v -2.200000 -0.600000 4.829766
v -2.388293 -0.600000 4.600000
v -2.200000 -0.843080 4.600000
v -2.600000 -0.600000 4.253897
v -2.600000 -0.200000 4.442461
v -2.629693 -0.600000 4.200000
v -2.723209 -0.200000 4.200000
v -2.664431 0.200000 4.200000
v -2.600000 0.200000 4.339705
v -2.600000 0.350350 4.200000
v -2.825389 0.200000 3.800000
v -2.637081 0.600000 3.800000
v -2.600000 0.600000 3.869480
v -2.436628 0.600000 4.200000
v -2.600000 -0.657852 4.200000
v -2.600000 -0.962751 3.800000
v -2.826362 -0.600000 3.800000
v -2.323252 -1.000000 4.200000
v -2.897446 -0.200000 3.800000
v -3.000000 -0.200000 3.539141
v -3.000000 0.200000 3.400440
v -2.169567 -0.200000 5.000000
v -1.969188 -0.600000 5.000000
v -2.108243 0.200000 5.000000
v -1.986571 -1.000000 4.600000
v -2.200000 -1.000000 4.368918
v -3.236110 -0.600000 2.600000
v -3.353274 -0.200000 2.600000
v -3.040181 1.000000 3.000000
v -3.000000 1.400000 2.880935
v -2.563476 2.200000 2.600000
v -2.377398 2.200000 3.000000
v -2.200000 2.274279 3.000000
v -2.200000 2.376768 2.600000
v -2.200000 2.200000 3.132284
v -1.800000 2.317312 3.000000
v -1.800000 2.200000 3.202115
v -1.800000 2.017955 3.400000
v -1.400777 2.200000 3.000000
v -1.800000 2.415896 2.600000
v -1.400000 2.309727 2.600000
v -1.400000 2.200000 2.999193
v -1.400000 2.199641 3.000000
v -1.200673 2.200000 2.600000
v -2.200000 2.328577 2.200000
v -1.800000 2.376851 2.200000
v -3.000000 1.617805 2.600000
v -3.000000 -0.922278 2.200000
v -3.000000 -0.957684 2.600000
v -2.960222 -1.000000 2.600000
v -2.914476 -1.000000 2.200000
v -2.600000 -1.268870 2.600000
v -2.200000 -0.950012 1.400000
v -2.200000 -0.899767 1.000000
v -1.400000 -1.559099 2.200000
v -1.400000 -1.400000 2.051904
v -2.337595 -1.400000 2.600000
v -2.379361 -1.400000 3.000000
v -1.400000 -1.825838 2.600000
v -1.462629 -1.800000 2.600000
v -1.400000 -1.800000 2.546812
v 0.200000 -1.527961 3.000000
v 0.200000 -1.400000 3.370502
v 0.187452 -0.600000 3.800000
v 0.200000 -0.519301 3.800000
v -0.169417 -0.200000 4.200000
v 0.200000 -0.200000 3.825808
v 1.000000 -1.000000 2.421979
v 1.000000 -1.231800 2.200000
v 0.777156 -1.400000 2.200000
v 1.000000 -1.400000 2.024972
v 0.600000 -1.747603 1.800000
v 1.172843 -1.000000 2.200000
v 1.000000 -0.797393 2.600000
v 1.096175 -0.600000 2.600000
v 1.305919 -0.600000 2.200000
v 1.181081 -0.200000 2.600000
v 1.312296 -0.200000 2.200000
v 1.159033 0.200000 2.600000
v 1.001829 -0.200000 3.000000
v 1.025231 0.200000 3.000000
v 1.000000 0.338056 3.000000
v 1.000000 0.600000 2.775363
v 1.038489 0.600000 2.600000
v 1.000000 0.675193 2.600000
v 1.000000 0.200000 3.044456
v 1.000000 -0.206598 3.000000
v 1.000000 -0.600000 2.757922
v 1.000000 -0.200000 3.002965
v 1.400000 -0.600000 1.974612
v -0.600000 -1.691419 2.200000
v -0.600000 -1.466358 1.800000
v -1.000000 -1.656710 2.200000
v -0.698784 -1.400000 1.800000
v -1.000000 -1.400000 1.984107
v -1.000000 -1.154041 1.800000
v -0.600000 -1.400000 1.651557
v -0.600000 -1.311460 1.400000
v -0.781360 -1.000000 1.400000
v -1.000000 -1.000000 1.688367
v -0.532375 -1.400000 1.400000
v -0.508055 -1.400000 1.000000
v -1.400000 -1.087901 1.800000
v -1.400000 -1.000000 1.729061
v -1.400000 -0.735422 1.400000
v -1.000000 -0.682692 1.400000
v -1.000000 -0.859189 1.000000
v -1.400000 -0.860475 1.000000
v -1.800000 -0.918748 1.400000
v -1.800000 -0.953241 1.000000
v -1.800000 -1.000000 1.590060
v 1.400000 -0.200000 1.807682
v 1.400000 -0.128638 1.000000
v 1.182527 0.200000 1.000000
v 0.783597 1.000000 2.600000
v 0.200000 1.400000 1.462809
v 0.206384 1.400000 1.400000
v 0.200000 1.422908 1.400000
v 0.193363 1.400000 1.800000
v -0.151412 1.800000 1.800000
v 0.158862 1.400000 3.000000
v -0.600000 1.000000 3.907418
v -1.000000 1.234209 3.800000
v -1.000000 1.400000 3.626335
v -1.000000 1.800000 3.249701
v -0.200000 1.853775 1.800000
v -1.800000 2.284214 1.800000
v -1.788212 2.200000 1.400000
v -1.703408 2.200000 1.000000
v -1.800000 2.193304 1.400000
v -1.800000 2.200000 1.429902
v -1.588250 2.200000 0.600000
v -1.616465 1.800000 0.200000
v -2.200000 2.200000 1.911006
v -2.062630 2.200000 1.800000
v -2.480940 2.200000 2.200000
v -1.400000 1.868910 3.400000
v -1.275128 1.800000 3.400000
v -1.000000 1.656649 3.400000
v -1.400000 1.800000 3.451362
vn 0.2820 0.6350 -0.7192
vn 0.5610 0.5443 -0.6238
vn 0.6681 0.6336 -0.3902
vn 0.5079 0.7708 -0.3846
vn 0.2877 0.7566 -0.5872
vn 0.2633 0.9053 -0.3333
vn -0.0846 0.9360 -0.3416
vn -0.0892 0.7871 -0.6104
vn -0.3910 0.8642 -0.3168
vn -0.4268 0.7224 -0.5440
vn -0.4263 0.5904 -0.6853
vn -0.0892 0.6578 -0.7479
vn -0.3886 0.4546 -0.8015
vn -0.0827 0.4674 -0.8802
vn -0.3288 0.4936 -0.8052
vn -0.1376 0.3345 -0.9323
vn -0.0621 0.3813 -0.9223
vn -0.2439 0.5897 -0.7699
vn -0.4292 0.6810 -0.5933
vn -0.5927 0.5062 -0.6265
vn -0.3009 0.7277 -0.6163
vn -0.1368 0.6684 -0.7311
vn -0.2115 0.7439 -0.6340
vn -0.0585 0.7031 -0.7087
vn -0.0688 0.6673 -0.7416
vn -0.0806 0.6203 -0.7802
vn -0.0206 0.5818 -0.8131
vn -0.0653 0.5681 -0.8203
vn -0.0060 0.3935 -0.9193
vn -0.0526 0.3747 -0.9256
vn 0.0039 0.2040 -0.9790
vn -0.0344 0.1858 -0.9820
vn 0.0150 -0.0582 -0.9982
vn -0.0146 -0.0814 -0.9966
vn 0.0329 -0.2909 -0.9562
vn 0.0081 -0.2999 -0.9539
vn 0.0435 -0.4999 -0.8650
vn 0.0334 -0.5307 -0.8469
vn 0.0678 -0.7093 -0.7016
vn 0.1255 -0.7949 -0.5936
vn 0.0675 -0.7539 -0.6536
vn 0.0878 -0.8461 -0.5258
vn -0.0221 -0.7680 -0.6400
vn -0.0527 -0.5606 -0.8264
vn 0.0770 -0.8767 -0.4749
vn -0.0200 -0.8835 -0.4680
vn 0.0718 -0.9626 -0.2613
vn -0.0819 -0.9421 -0.3250
vn -0.1246 -0.8987 -0.4204
vn -0.0491 -0.8618 -0.5049
vn -0.2274 -0.9638 -0.1393
vn -0.3125 -0.8775 -0.3638
vn -0.4572 -0.8855 -0.0829
vn -0.6083 -0.7521 -0.2535
vn -0.4493 -0.8131 -0.3700
vn -0.2717 -0.8373 -0.4745
vn -0.4708 -0.8174 -0.3320
vn -0.1801 -0.8698 -0.4594
vn -0.0962 -0.8462 -0.5241
vn -0.0450 -0.8288 -0.5577
vn 0.1841 -0.8010 -0.5696
vn 0.2578 -0.7685 -0.5857
vn 0.0458 -0.8416 -0.5381
vn 0.3475 -0.7391 -0.5770
vn 0.3852 -0.7111 -0.5882
vn 0.5914 -0.5673 -0.5731
vn 0.6669 -0.4924 -0.5593
vn 0.5606 -0.5918 -0.5792
vn 0.7186 -0.4566 -0.5245
vn 0.4643 -0.6330 -0.6194
vn 0.4205 -0.6963 -0.5816
vn 0.7776 -0.3804 -0.5006
vn 0.6771 -0.4351 -0.5934
vn 0.8675 -0.1385 -0.4778
vn 0.7745 -0.1608 -0.6118
vn 0.8752 0.2166 -0.4325
vn 0.7930 0.1889 -0.5792
vn 0.8777 0.4245 -0.2225
vn 0.7927 0.5762 -0.1990
vn 0.7104 0.4976 -0.4977
vn 0.8442 0.5359 0.0152
vn 0.7573 0.6502 0.0614
vn 0.7570 0.6426 0.1183
vn 0.6786 0.7084 0.1942
vn 0.6986 0.7130 0.0593
vn 0.6344 0.7651 0.1104
vn 0.7016 0.7011 0.1272
vn 0.7194 0.6616 0.2116
vn 0.8669 0.4831 0.1230
vn 0.8093 0.5716 0.1352
vn 0.9494 0.3016 0.0876
vn 0.8992 0.4362 -0.0331
vn 0.6248 0.7346 -0.2646
vn 0.6767 0.7357 -0.0285
vn 0.7962 0.5425 -0.2680
vn 0.3961 0.8196 -0.4139
vn 0.4892 0.8272 -0.2766
vn 0.6858 0.7252 0.0619
vn 0.5861 0.7839 -0.2050
vn 0.2034 0.7780 -0.5944
vn 0.4980 0.7098 -0.4981
vn 0.2818 0.8151 -0.5062
vn -0.0477 0.7345 -0.6769
vn 0.0297 0.7643 -0.6442
vn 0.2320 0.7290 -0.6440
vn -0.0531 0.6513 -0.7570
vn 0.1212 0.6288 -0.7681
vn 0.0349 0.5148 -0.8566
vn 0.1146 0.4528 -0.8842
vn 0.3932 0.6065 -0.6911
vn 0.4851 0.4999 -0.7175
vn 0.2426 0.4628 -0.8526
vn -0.0731 0.4785 -0.8751
vn -0.0803 0.5850 -0.8070
vn 0.1793 0.5843 -0.7915
vn -0.0867 0.4115 -0.9073
vn 0.1868 0.4108 -0.8924
vn -0.0726 0.1675 -0.9832
vn 0.1638 0.1627 -0.9730
vn -0.0622 -0.1544 -0.9861
vn 0.1648 -0.1617 -0.9730
vn -0.0514 -0.3974 -0.9162
vn 0.1932 -0.3988 -0.8964
vn -0.0416 -0.5841 -0.8106
vn 0.1863 -0.5670 -0.8024
vn -0.0292 -0.7756 -0.6306
vn 0.1604 -0.7456 -0.6468
vn 0.1349 -0.8114 -0.5687
vn 0.4955 -0.4906 -0.7169
vn 0.4182 -0.2058 -0.8847
vn -0.0738 -0.3452 -0.9356
vn -0.0950 -0.1215 -0.9880
vn 0.4031 0.1872 -0.8958
vn 0.5770 -0.1875 -0.7949
vn 0.5741 0.1815 -0.7984
vn -0.1389 0.3820 -0.9137
vn -0.1164 0.1718 -0.9782
vn 0.4988 0.4985 -0.7090
vn -0.1401 0.5689 -0.8104
vn -0.1078 0.6738 -0.7310
vn 0.6028 0.6631 -0.4438
vn 0.8846 0.4165 -0.2098
vn 0.8076 0.5112 -0.2941
vn 0.6640 0.5074 -0.5493
vn 0.9478 0.3166 0.0390
vn 0.8865 0.4624 0.0177
vn 0.7493 0.6621 0.0137
vn 0.6713 0.7133 -0.2013
vn 0.6619 0.6476 0.3775
vn 0.6429 0.7326 0.2238
vn 0.8426 0.4301 0.3240
vn 0.5460 0.8378 0.0032
vn 0.2887 0.9062 0.3090
vn 0.2733 0.9619 0.0075
vn 0.4919 0.7767 0.3934
vn 0.3649 0.7937 0.4867
vn 0.0053 0.9718 0.2359
vn -0.0757 0.9971 -0.0069
vn -0.2535 0.9650 0.0675
vn -0.3778 0.9244 -0.0531
vn 0.0143 0.9958 0.0908
vn 0.1664 0.9459 0.2784
vn 0.2148 0.9763 0.0283
vn 0.2998 0.9185 0.2578
vn 0.4083 0.8950 0.1796
vn 0.4481 0.8563 0.2568
vn 0.3047 0.8707 0.3860
vn 0.4541 0.7547 0.4735
vn 0.5189 0.7972 0.3084
vn 0.4992 0.8400 0.2126
vn 0.5181 0.8305 0.2046
vn 0.4614 0.7986 0.3864
vn 0.4812 0.8495 0.2164
vn 0.4838 0.7803 0.3965
vn 0.4206 0.8297 0.3670
vn 0.5017 0.8440 0.1897
vn 0.4344 0.8914 0.1292
vn 0.3627 0.8783 0.3115
vn 0.5172 0.8193 0.2476
vn 0.5320 0.8318 0.1585
vn 0.6287 0.6887 0.3612
vn 0.5097 0.8590 -0.0480
vn 0.4530 0.8888 0.0694
vn 0.3091 0.7351 0.6034
vn 0.3467 0.7879 0.5089
vn 0.2653 0.7214 0.6397
vn 0.3250 0.7220 0.6108
vn 0.3019 0.7248 0.6194
vn 0.2662 0.6864 0.6768
vn 0.3613 0.5663 0.7408
vn 0.3540 0.6689 0.6537
vn 0.4537 0.5102 0.7307
vn 0.4463 0.5137 0.7328
vn 0.5049 0.3002 0.8093
vn 0.5100 0.3374 0.7913
vn 0.5440 0.1086 0.8320
vn 0.5679 0.1955 0.7995
vn 0.6288 0.0715 0.7743
vn 0.6238 0.0700 0.7785
vn 0.6605 -0.0919 0.7452
vn 0.6380 -0.0255 0.7696
vn 0.7458 0.0674 0.6627
vn 0.7458 -0.1300 0.6534
vn 0.6044 0.2703 0.7494
vn 0.7215 0.2806 0.6330
vn 0.6483 0.4117 0.6405
vn 0.6551 0.5730 0.4924
vn 0.7426 0.5736 0.3457
vn 0.8228 0.3816 0.4211
vn 0.5661 0.5340 0.6280
vn 0.4453 0.6788 0.5839
vn 0.4984 0.7877 0.3620
vn 0.6323 0.7039 0.3237
vn 0.4777 0.8569 0.1936
vn 0.5484 0.8349 0.0477
vn 0.6493 0.7580 0.0621
vn 0.5618 0.8235 -0.0788
vn 0.6592 0.7314 -0.1747
vn 0.7535 0.6495 -0.1018
vn 0.7008 0.6272 -0.3399
vn 0.7150 0.6108 -0.3402
vn 0.5588 0.8252 -0.0820
vn 0.6990 0.6313 -0.3360
vn 0.8424 0.5294 -0.1008
vn 0.6933 0.6999 -0.1717
vn 0.6331 0.7565 -0.1642
vn 0.6778 0.6928 -0.2463
vn 0.7826 0.5944 -0.1851
vn 0.8176 0.5608 -0.1309
vn 0.7444 0.6358 -0.2041
vn 0.7594 0.6296 -0.1642
vn 0.8681 0.4954 -0.0330
vn 0.9394 0.3312 0.0887
vn 0.8840 0.4649 -0.0483
vn 0.6959 0.7105 -0.1044
vn 0.8092 0.5859 -0.0443
vn 0.9191 0.3776 0.1127
vn 0.8753 0.4834 0.0117
vn 0.9328 0.3555 0.0602
vn 0.9374 0.2829 0.2030
vn 0.9548 0.0425 0.2941
vn 0.9885 0.1028 0.1108
vn 0.9109 -0.2117 0.3541
vn 0.9670 -0.2105 0.1438
vn 0.8127 -0.4145 0.4096
vn 0.8783 -0.4459 0.1725
vn 0.8458 -0.3000 0.4411
vn 0.7754 -0.6086 0.1681
vn 0.7006 -0.5644 0.4367
vn 0.4916 -0.7537 0.4361
vn 0.5380 -0.8255 0.1706
vn 0.7641 -0.6182 -0.1845
vn 0.5414 -0.8179 -0.1949
vn 0.6973 -0.5536 -0.4553
vn 0.4829 -0.7463 -0.4581
vn 0.5315 -0.6108 -0.5869
vn 0.8161 -0.3241 -0.4784
vn 0.7693 -0.4004 -0.4978
vn 0.8959 -0.1376 -0.4223
vn 0.9100 -0.0171 -0.4142
vn 0.8919 -0.1480 -0.4273
vn 0.9578 0.1450 -0.2481
vn 0.9491 0.2710 -0.1606
vn 0.9591 0.1004 -0.2646
vn 0.8728 0.4878 -0.0150
vn 0.9296 0.3515 -0.1110
vn 0.9375 0.2319 -0.2594
vn 0.9310 -0.0336 -0.3635
vn 0.8537 -0.2802 -0.4390
vn 0.9152 0.3776 -0.1408
vn 0.9505 0.0358 -0.3087
vn 0.9845 0.1058 -0.1400
vn 0.9284 0.3605 -0.0903
vn 0.8847 -0.2548 -0.3904
vn 0.9635 -0.1998 -0.1785
vn 0.8710 -0.4515 -0.1937
vn 0.1794 -0.8460 -0.5020
vn 0.1642 -0.9013 -0.4008
vn 0.3717 -0.9044 -0.2097
vn 0.1208 -0.9801 -0.1574
vn -0.1758 -0.9723 -0.1541
vn -0.2225 -0.8968 -0.3825
vn -0.1767 -0.9744 0.1389
vn 0.1220 -0.9822 0.1427
vn -0.1493 -0.9363 0.3179
vn 0.1693 -0.9092 0.3803
vn 0.3587 -0.9164 0.1773
vn -0.3841 -0.9169 0.1082
vn -0.2918 -0.9565 -0.0002
vn -0.0500 -0.9456 0.3215
vn -0.5571 -0.8304 0.0102
vn -0.4124 -0.8905 -0.1921
vn -0.5597 -0.8134 -0.1583
vn 0.0390 -0.9918 -0.1219
vn 0.1888 -0.9670 0.1709
vn 0.4021 -0.8898 -0.2160
vn 0.4801 -0.8711 0.1033
vn 0.6175 -0.7254 0.3040
vn 0.5006 -0.7486 0.4348
vn 0.3442 -0.8300 0.4388
vn 0.6310 -0.6683 0.3939
vn 0.7331 -0.5848 0.3473
vn 0.7097 -0.6713 0.2136
vn 0.7381 -0.5239 0.4252
vn 0.6846 -0.5383 0.4916
vn 0.7830 -0.4439 0.4358
vn 0.7957 -0.3249 0.5111
vn 0.7900 -0.3612 0.4955
vn 0.7693 -0.3704 0.5206
vn 0.7597 -0.2497 0.6004
vn 0.7394 -0.2043 0.6416
vn 0.7054 -0.3256 0.6296
vn 0.7041 -0.1629 0.6912
vn 0.7679 -0.4672 0.4381
vn 0.7329 -0.5557 0.3925
vn 0.6845 -0.4562 0.5686
vn 0.7200 -0.2773 0.6361
vn 0.5253 -0.6302 0.5718
vn 0.6382 -0.7175 0.2791
vn 0.5241 -0.7280 0.4420
vn 0.4656 -0.8464 0.2586
vn 0.6438 -0.7651 -0.0139
vn 0.4728 -0.8806 -0.0318
vn 0.1924 -0.9377 0.2894
vn 0.1925 -0.9802 -0.0466
vn 0.5150 -0.8304 -0.2124
vn 0.3597 -0.8555 -0.3726
vn 0.1744 -0.9160 -0.3613
vn 0.1646 -0.8248 -0.5410
vn -0.1247 -0.9239 -0.3617
vn -0.1220 -0.8205 -0.5585
vn -0.1323 -0.9495 0.2844
vn -0.1393 -0.9891 -0.0472
vn -0.1045 -0.8741 0.4744
vn 0.2175 -0.8265 0.5193
vn -0.3457 -0.9029 0.2554
vn -0.3144 -0.8671 0.3864
vn -0.4072 -0.8810 0.2408
vn -0.3521 -0.9353 -0.0360
vn -0.4151 -0.9095 -0.0211
vn -0.4475 -0.8647 0.2284
vn -0.4435 -0.8963 -0.0039
vn -0.4958 -0.8417 0.2138
vn -0.4875 -0.8728 0.0242
vn -0.3820 -0.8720 -0.3062
vn -0.4182 -0.8836 -0.2108
vn -0.2554 -0.8049 -0.5356
vn -0.2651 -0.8379 -0.4771
vn -0.3265 -0.8986 -0.2931
vn -0.2532 -0.8969 -0.3626
vn -0.1635 -0.7588 -0.6305
vn 0.0226 -0.8051 -0.5927
vn -0.1035 -0.8910 -0.4421
vn -0.4134 -0.8816 -0.2280
vn -0.3426 -0.8615 -0.3748
vn -0.0742 -0.8859 -0.4579
vn -0.3472 -0.8233 -0.4491
vn -0.5086 -0.7860 -0.3513
vn -0.6509 -0.6921 -0.3120
vn -0.4235 -0.8291 -0.3650
vn -0.6195 -0.6529 -0.4358
vn -0.6632 -0.6233 -0.4144
vn -0.7458 -0.5004 -0.4398
vn -0.8502 -0.3048 -0.4293
vn -0.9289 -0.2945 -0.2244
vn -0.8153 -0.5200 -0.2545
vn -0.8020 -0.3365 -0.4935
vn -0.8769 -0.4759 -0.0671
vn -0.9660 -0.2582 -0.0159
vn -0.9938 -0.1081 0.0265
vn -0.9782 -0.1069 -0.1781
vn -0.9947 0.0261 -0.0994
vn -0.9984 0.0321 0.0455
vn -0.9870 0.1481 0.0623
vn -0.9751 0.1532 -0.1601
vn -0.9874 0.0629 0.1451
vn -0.9745 0.2188 0.0490
vn -0.9475 0.1965 0.2524
vn -0.9677 0.0835 0.2378
vn -0.9485 0.3168 -0.0082
vn -0.9385 0.2553 0.2323
vn -0.9207 0.3775 -0.0990
vn -0.9319 0.3198 0.1711
vn -0.8024 0.4553 -0.3859
vn -0.8299 0.4765 -0.2904
vn -0.8871 0.3780 -0.2649
vn -0.8603 0.4794 -0.1736
vn -0.7256 0.5201 -0.4506
vn -0.6727 0.5776 -0.4624
vn -0.7926 0.5610 -0.2388
vn -0.6411 0.7174 -0.2727
vn -0.5893 0.6535 -0.4750
vn -0.6018 0.5685 -0.5609
vn -0.5943 0.5820 -0.5550
vn -0.6139 0.6507 -0.4469
vn -0.4713 0.7628 -0.4428
vn -0.6094 0.5387 -0.5817
vn -0.5987 0.4731 -0.6463
vn -0.6818 0.4673 -0.5629
vn -0.7583 0.4317 -0.4884
vn -0.6876 0.5415 -0.4837
vn -0.5866 0.4816 -0.6511
vn -0.6549 0.5260 -0.5426
vn -0.6371 0.5471 -0.5429
vn -0.7165 0.6228 -0.3141
vn -0.7390 0.5919 -0.3218
vn -0.8098 0.5687 -0.1444
vn -0.7601 0.6367 -0.1297
vn -0.6717 0.7158 -0.1910
vn -0.7568 0.6224 -0.1997
vn -0.7745 0.5335 -0.3399
vn -0.6734 0.6893 -0.2672
vn -0.7431 0.5163 -0.4256
vn -0.8342 0.3899 -0.3901
vn -0.7002 0.4155 -0.5805
vn -0.7470 0.4451 -0.4938
vn -0.8352 0.4208 -0.3540
vn -0.7365 0.5722 -0.3607
vn -0.7162 0.6611 -0.2237
vn -0.8002 0.4906 -0.3449
vn -0.7876 0.4287 -0.4425
vn -0.8542 0.5074 -0.1139
vn -0.7930 0.5151 -0.3254
vn -0.9356 0.1986 -0.2919
vn -0.9627 0.2485 -0.1070
vn -0.9590 -0.2177 -0.1815
vn -0.9911 -0.1155 -0.0661
vn -0.8558 -0.5155 -0.0426
vn -0.9158 -0.4015 -0.0092
vn -0.7194 -0.6906 0.0741
vn -0.8023 -0.5965 0.0211
vn -0.7857 -0.5736 -0.2317
vn -0.9083 -0.3603 -0.2125
vn -0.8064 -0.4153 -0.4210
vn -0.8705 -0.0791 -0.4858
vn -0.9677 -0.0758 -0.2405
vn -0.8347 0.2894 -0.4686
vn -0.9395 0.2475 -0.2370
vn -0.8276 0.4901 -0.2738
vn -0.6941 -0.4147 -0.5884
vn -0.7598 -0.0765 -0.6456
vn -0.4672 -0.4095 -0.7836
vn -0.5186 -0.0686 -0.8523
vn -0.4929 0.2835 -0.8226
vn -0.7236 0.2913 -0.6257
vn -0.4435 0.5623 -0.6980
vn -0.6139 0.5681 -0.5481
vn -0.4500 0.7074 -0.5451
vn -0.5593 0.7571 -0.3377
vn -0.7230 0.6256 -0.2931
vn -0.1720 0.5889 -0.7897
vn -0.2874 0.2735 -0.9179
vn -0.1383 0.4078 -0.9025
vn -0.1065 0.2103 -0.9718
vn -0.1167 -0.0502 -0.9919
vn -0.3272 -0.0722 -0.9422
vn -0.1570 -0.2848 -0.9456
vn -0.4858 -0.6325 -0.6033
vn -0.2930 -0.7501 -0.5929
vn -0.1101 -0.6937 -0.7118
vn -0.1516 -0.4728 -0.8680
vn -0.1074 -0.8474 -0.5200
vn -0.4243 -0.8789 -0.2180
vn -0.1371 -0.9590 -0.2479
vn -0.4801 -0.7663 -0.4269
vn -0.4379 -0.8944 0.0915
vn -0.1412 -0.9847 0.1021
vn -0.4776 -0.8350 0.2734
vn -0.3300 -0.9016 0.2796
vn -0.1238 -0.9233 0.3635
vn -0.5179 -0.8265 0.2207
vn -0.0422 -0.9138 0.4040
vn 0.0548 -0.8651 0.4986
vn 0.0576 -0.9279 0.3685
vn -0.3353 -0.7935 0.5079
vn -0.1943 -0.9445 0.2649
vn -0.0068 -0.9998 0.0168
vn 0.0834 -0.9918 0.0965
vn 0.0863 -0.9639 -0.2520
vn -0.7156 -0.6396 0.2807
vn -0.7204 -0.6931 0.0244
vn -0.6516 -0.7551 0.0724
vn -0.6483 -0.7241 -0.2353
vn -0.5684 -0.8099 -0.1449
vn -0.7251 -0.6314 -0.2748
vn -0.8729 -0.1109 -0.4752
vn -0.8577 -0.3123 -0.4083
vn -0.8557 0.1026 -0.5073
vn -0.8299 0.0204 -0.5575
vn -0.8098 0.2472 -0.5321
vn -0.7039 0.4198 -0.5730
vn -0.7141 0.3428 -0.6104
vn -0.8474 0.3080 -0.4324
vn -0.9013 0.0322 -0.4319
vn -0.7288 0.4254 -0.5366
vn -0.7584 0.4354 -0.4850
vn -0.9451 0.2550 -0.2042
vn -0.6265 0.5008 -0.5972
vn -0.6019 0.5421 -0.5864
vn -0.9673 0.0507 -0.2487
vn -0.4726 0.7758 -0.4180
vn -0.6697 0.7396 0.0673
vn -0.8410 0.5332 0.0922
vn -0.6184 0.6746 0.4031
vn -0.7944 0.4570 0.4002
vn -0.6273 0.4693 0.6215
vn -0.6221 0.2791 0.7315
vn -0.7244 0.2201 0.6533
vn -0.8370 0.2745 0.4734
vn -0.8584 0.2180 0.4643
vn -0.7535 0.2612 0.6033
vn -0.8089 0.2234 0.5439
vn -0.8145 0.2275 0.5337
vn -0.8077 0.2781 0.5199
vn -0.8603 0.2296 0.4552
vn -0.8835 0.1623 0.4394
vn -0.9148 0.1163 0.3867
vn -0.8865 0.1947 0.4198
vn -0.9104 -0.0162 0.4135
vn -0.9369 -0.0766 0.3410
vn -0.9055 -0.2052 0.3715
vn -0.8677 -0.3524 0.3506
vn -0.8944 -0.3588 0.2670
vn -0.8092 -0.5424 0.2258
vn -0.8553 -0.3773 0.3551
vn -0.7349 -0.6070 0.3024
vn -0.7048 -0.6889 0.1693
vn -0.6151 -0.7451 0.2577
vn -0.5847 -0.8033 0.1131
vn -0.6991 -0.6279 0.3421
vn -0.6461 -0.6676 0.3699
vn -0.5329 -0.7736 0.3428
vn -0.5086 -0.8116 0.2877
vn -0.5467 -0.8065 0.2249
vn -0.4563 -0.8200 0.3455
vn -0.5053 -0.7644 0.4004
vn -0.3729 -0.8138 0.4458
vn -0.3604 -0.8357 0.4143
vn -0.3928 -0.8420 0.3698
vn -0.2534 -0.8457 0.4696
vn -0.1791 -0.8250 0.5360
vn -0.2683 -0.8492 0.4549
vn -0.1047 -0.8042 0.5850
vn -0.2915 -0.8025 0.5206
vn -0.0413 -0.7893 0.6127
vn -0.2830 -0.7213 0.6322
vn 0.0264 -0.7171 0.6965
vn -0.2733 -0.5942 0.7565
vn 0.0561 -0.6067 0.7929
vn -0.2538 -0.3780 0.8903
vn 0.0659 -0.3948 0.9164
vn -0.2783 -0.0838 0.9568
vn 0.0672 -0.0887 0.9938
vn -0.2684 0.2523 0.9297
vn 0.0630 0.2627 0.9628
vn -0.3003 0.5024 0.8108
vn 0.0669 0.5265 0.8476
vn -0.3005 0.6515 0.6966
vn 0.0656 0.6790 0.7312
vn -0.2911 0.8316 0.4730
vn 0.0577 0.8648 0.4988
vn -0.2578 0.8968 0.3596
vn 0.0453 0.9382 0.3430
vn 0.1941 0.9255 0.3253
vn 0.3396 0.8274 0.4473
vn 0.3706 0.7844 0.4973
vn 0.0586 0.8976 0.4368
vn 0.2842 0.8187 0.4990
vn 0.5149 0.6719 0.5324
vn 0.6647 0.5915 0.4564
vn 0.6038 0.6085 0.5149
vn 0.7125 0.4423 0.5447
vn 0.6830 0.4496 0.5756
vn 0.7689 0.2776 0.5759
vn 0.8139 0.2456 0.5265
vn 0.6718 0.2538 0.6959
vn 0.5966 0.3819 0.7059
vn 0.7670 0.1409 0.6260
vn 0.7266 0.2659 0.6336
vn 0.7248 -0.0596 0.6864
vn 0.8121 -0.0010 0.5836
vn 0.6563 -0.2983 0.6930
vn 0.7471 -0.2123 0.6298
vn 0.5923 -0.3937 0.7030
vn 0.7868 -0.1256 0.6043
vn 0.7163 -0.2331 0.6577
vn 0.6124 -0.3745 0.6963
vn 0.5286 -0.4728 0.7050
vn 0.6544 -0.3169 0.6865
vn 0.7741 -0.0823 0.6277
vn 0.4235 -0.5533 0.7173
vn 0.2178 -0.7055 0.6744
vn 0.4117 -0.5831 0.7003
vn 0.2307 -0.6955 0.6805
vn 0.1087 -0.7555 0.6460
vn 0.0370 -0.7853 0.6181
vn 0.3405 -0.6428 0.6862
vn 0.2500 -0.7530 0.6087
vn -0.0709 -0.8382 0.5408
vn 0.5526 -0.4854 0.6775
vn 0.2996 -0.6367 0.7105
vn 0.8223 0.0403 0.5677
vn 0.5335 -0.3401 0.7744
vn 0.5984 -0.0835 0.7969
vn 0.3574 -0.3753 0.8553
vn 0.3786 -0.0866 0.9215
vn 0.3628 0.2403 0.9004
vn 0.5896 0.2592 0.7650
vn 0.4067 0.4661 0.7857
vn 0.3641 -0.5099 0.7794
vn -0.5480 0.7089 0.4441
vn -0.5514 0.7128 0.4335
vn -0.3856 0.7867 0.4821
vn -0.1922 0.8657 0.4622
vn -0.4542 0.5483 0.7022
vn -0.1346 0.6858 0.7153
vn -0.5636 0.6103 0.5567
vn -0.3440 0.3840 0.8568
vn -0.0561 0.5238 0.8500
vn -0.2630 0.4472 0.8549
vn 0.0187 0.5115 0.8591
vn -0.4690 0.4761 0.7439
vn -0.5913 0.2316 0.7725
vn -0.2644 0.6356 0.7254
vn 0.1426 0.6180 0.7731
vn 0.0874 0.7542 0.6509
vn -0.6305 0.3804 0.6766
vn -0.6097 0.5556 0.5653
vn -0.7303 0.4678 0.4979
vn 0.4067 0.6244 0.6668
vn -0.5798 0.5663 0.5858
vn -0.7016 0.5494 0.4537
vn -0.6630 0.2839 0.6927
vn -0.8042 0.2710 0.5290
vn -0.6828 -0.0872 0.7254
vn -0.8257 -0.0706 0.5596
vn -0.6202 -0.4204 0.6623
vn -0.7533 -0.3823 0.5352
vn -0.5862 -0.6074 0.5362
vn -0.8082 -0.3614 0.4650
vn -0.8776 -0.0582 0.4758
vn -0.8456 -0.3260 0.4227
vn -0.9045 -0.0297 0.4254
vn -0.8842 0.2590 0.3887
vn -0.8626 0.2532 0.4380
vn -0.8153 0.4339 0.3836
vn -0.8852 0.2533 0.3902
vn -0.8135 0.3836 0.4371
vn -0.7309 0.5592 0.3913
vn -0.7242 0.5721 0.3849
vn -0.7479 -0.5128 0.4216
vn -0.7470 -0.5452 0.3804
vn -0.8626 -0.3353 0.3788
vn -0.6352 -0.6560 0.4077
vn -0.9195 -0.0093 0.3931
vn -0.9205 -0.0033 0.3907
vn -0.8962 0.1846 0.4034
vn -0.5371 -0.0904 0.8387
vn -0.4697 -0.4202 0.7764
vn -0.5208 0.2830 0.8054
vn -0.4437 -0.7272 0.5238
vn -0.5536 -0.7088 0.4372
vn -0.9030 -0.4160 0.1071
vn -0.9725 -0.1433 0.1836
vn -0.8790 0.2170 0.4247
vn -0.8920 0.3030 0.3353
vn -0.5187 0.8525 0.0648
vn -0.4584 0.7926 0.4020
vn -0.2395 0.9036 0.3551
vn -0.2635 0.9627 0.0624
vn -0.2618 0.7740 0.5766
vn 0.0805 0.9254 0.3703
vn 0.0968 0.7925 0.6022
vn 0.0782 0.6690 0.7391
vn 0.3140 0.8309 0.4594
vn 0.0635 0.9942 0.0867
vn 0.3338 0.9336 0.1300
vn 0.4002 0.8760 0.2692
vn 0.4027 0.7932 0.4569
vn 0.4670 0.8656 0.1808
vn -0.2845 0.9328 -0.2214
vn -0.0036 0.9932 -0.1167
vn -0.9030 0.4094 0.1304
vn -0.7203 -0.6798 -0.1382
vn -0.7821 -0.6216 0.0440
vn -0.6710 -0.7415 0.0029
vn -0.5933 -0.7846 -0.1798
vn -0.5182 -0.8521 -0.0739
vn -0.1367 -0.9482 -0.2868
vn -0.2978 -0.9544 0.0211
vn -0.2155 -0.7449 -0.6314
vn -0.1114 -0.6775 -0.7270
vn -0.4640 -0.8707 -0.1629
vn -0.5207 -0.8511 0.0674
vn -0.3189 -0.8889 -0.3289
vn -0.3783 -0.8590 -0.3449
vn -0.2913 -0.8105 -0.5082
vn 0.6613 -0.7408 0.1180
vn 0.6961 -0.6662 0.2678
vn 0.7205 -0.1156 0.6838
vn 0.7007 -0.0864 0.7082
vn 0.7670 0.0360 0.6406
vn 0.6692 0.0003 0.7431
vn 0.6647 -0.5135 0.5427
vn 0.6213 -0.5679 0.5399
vn 0.4422 -0.7265 0.5260
vn 0.5541 -0.6076 0.5690
vn 0.2047 -0.8722 0.4442
vn 0.7719 -0.4050 0.4900
vn 0.7701 -0.4094 0.4891
vn 0.8523 -0.2639 0.4515
vn 0.9014 -0.1488 0.4066
vn 0.9365 -0.0372 0.3487
vn 0.9565 0.0814 0.2802
vn 0.9546 0.1864 0.2322
vn 0.8880 -0.1180 0.4445
vn 0.9068 0.0694 0.4159
vn 0.8713 0.2239 0.4367
vn 0.8792 0.3920 0.2708
vn 0.9136 0.3873 0.1239
vn 0.8486 0.5200 0.0972
vn 0.8306 0.0631 0.5533
vn 0.8379 -0.2305 0.4948
vn 0.8086 -0.3393 0.4806
vn 0.8220 -0.1399 0.5521
vn 0.9284 -0.0507 0.3680
vn -0.0462 -0.8781 -0.4763
vn -0.3863 -0.8587 -0.3367
vn -0.1742 -0.7479 -0.6406
vn -0.4344 -0.7548 -0.4916
vn -0.2838 -0.6054 -0.7436
vn -0.3735 -0.6044 -0.7038
vn -0.7072 -0.6509 -0.2761
vn -0.7737 -0.6061 -0.1846
vn -0.7982 -0.5559 -0.2321
vn -0.4003 -0.5972 -0.6951
vn -0.7148 -0.6939 -0.0873
vn -0.7047 -0.7036 -0.0912
vn -0.0095 -0.6796 -0.7335
vn 0.0879 -0.7278 -0.6801
vn 0.1795 -0.9655 -0.1886
vn -0.3583 -0.9161 -0.1801
vn -0.3495 -0.8365 0.4221
vn 0.1357 -0.9054 0.4022
vn 0.1747 -0.9624 -0.2079
vn 0.0737 -0.9676 0.2416
vn 0.1487 -0.8373 -0.5261
vn 0.9483 0.1777 0.2630
vn 0.8710 0.4886 -0.0516
vn 0.8079 0.5893 0.0003
vn 0.7732 0.6292 0.0797
vn 0.8727 0.4866 0.0389
vn 0.9531 0.2889 0.0905
vn 0.9265 0.3338 0.1737
vn 0.7217 0.6918 0.0247
vn 0.7318 0.5754 0.3652
vn 0.4049 0.8345 0.3737
vn 0.3602 0.7425 0.5647
vn 0.2300 0.7597 0.6082
vn 0.2250 0.6763 0.7014
vn 0.4188 0.7066 0.5704
vn 0.6236 0.6349 0.4561
vn -0.1954 0.9651 -0.1744
vn -0.5084 0.8489 -0.1447
vn -0.6040 0.7855 -0.1348
vn -0.5893 0.7692 -0.2469
vn -0.4528 0.8400 -0.2991
vn -0.6144 0.7108 -0.3424
vn -0.6035 0.4532 -0.6560
vn -0.3948 0.8148 -0.4245
vn -0.3399 0.8796 -0.3330
vn -0.4976 0.8181 -0.2883
vn 0.2957 0.6540 0.6963
vn 0.3312 0.6087 0.7209
vn 0.3327 0.6668 0.6669
vn 0.2361 0.5490 0.8018
s 1
f 4//4 3//3 2//2 1//1
f 5//5 4//4 1//1
f 4//4 5//5 6//6
f 6//6 5//5 8//8 7//7
f 7//7 8//8 10//10 9//9
f 10//10 8//8 12//12 11//11
f 12//12 14//14 13//13 11//11
f 14//14 17//17 16//16 15//15
f 13//13 14//14 15//15
f 15//15 16//16 18//18
f 20//20 15//15 18//18 19//19
f 18//18 22//22 21//21 19//19
f 21//21 22//22 24//24 23//23
f 22//22 26//26 25//25 24//24
f 25//25 28//28 27//27 24//24
f 27//27 28//28 30//30 29//29
f 30//30 32//32 31//31 29//29
f 31//31 32//32 34//34 33//33
f 33//33 34//34 36//36 35//35
f 36//36 38//38 37//37 35//35
f 38//38 41//41 40//40 39//39
f 37//37 38//38 39//39
f 39//39 40//40 42//42
f 38//38 44//44 43//43 41//41
f 43//43 46//46 45//45 41//41
f 45//45 46//46 48//48 47//47
f 46//46 50//50 49//49 48//48
f 48//48 49//49 52//52 51//51
f 52//52 55//55 54//54 53//53
f 51//51 52//52 53//53
f 56//56 55//55 52//52
f 56//56 59//59 58//58 57//57
f 55//55 56//56 57//57
f 56//56 60//60 59//59
f 60//60 62//62 61//61 59//59
f 64//64 62//62 60//60 63//63
f 66//66 65//65 62//62 64//64
f 68//68 67//67 66//66 64//64
f 67//67 68//68 69//69
f 69//69 68//68 71//71 70//70
f 73//73 72//72 69//69 70//70
f 73//73 75//75 74//74 72//72
f 75//75 77//77 76//76 74//74
f 77//77 80//80 79//79 78//78
f 76//76 77//77 78//78
f 78//78 79//79 82//82 81//81
f 81//81 82//82 84//84 83//83
f 83//83 84//84 86//86 85//85
f 86//86 84//84 88//88 87//87
f 88//88 90//90 89//89 87//87
f 90//90 92//92 91//91 89//89
f 92//92 90//90 94//94 93//93
f 95//95 92//92 93//93
f 94//94 97//97 96//96 93//93
f 99//99 97//97 94//94 98//98
f 97//97 99//99 101//101 100//100
f 102//102 97//97 100//100
f 104//104 102//102 100//100 103//103
f 96//96 102//102 104//104 105//105
f 107//107 105//105 104//104 106//106
f 108//108 107//107 106//106
f 107//107 108//108 109//109
f 111//111 110//110 107//107 109//109
f 112//112 111//111 109//109
f 107//107 110//110 105//105
f 113//113 108//108 106//106 26//26
f 100//100 115//115 114//114 103//103
f 114//114 115//115 117//117 116//116
f 117//117 119//119 118//118 116//116
f 118//118 119//119 121//121 120//120
f 120//120 121//121 123//123 122//122
f 123//123 125//125 124//124 122//122
f 124//124 125//125 127//127 126//126
f 127//127 128//128 50//50 126//126
f 125//125 129//129 70//70 127//127
f 121//121 130//130 123//123
f 132//132 120//120 122//122 131//131
f 119//119 133//133 130//130 121//121
f 130//130 133//133 135//135 134//134
f 116//116 118//118 137//137 136//136
f 138//138 135//135 133//133 117//117
f 115//115 138//138 117//117
f 139//139 114//114 116//116 136//136
f 106//106 104//104 103//103 140//140
f 141//141 93//93 96//96 105//105
f 110//110 141//141 105//105
f 141//141 95//95 93//93
f 141//141 144//144 143//143 142//142
f 95//95 141//141 142//142
f 142//142 143//143 146//146 145//145
f 147//147 146//146 143//143 3//3
f 148//148 147//147 3//3
f 146//146 147//147 150//150 149//149
f 151//151 146//146 149//149
f 150//150 147//147 152//152
f 150//150 152//152 154//154 153//153
f 155//155 150//150 153//153
f 156//156 155//155 153//153
f 153//153 154//154 158//158 157//157
f 157//157 158//158 160//160 159//159
f 162//162 157//157 159//159 161//161
f 164//164 162//162 161//161 163//163
f 165//165 164//164 163//163
f 164//164 165//165 166//166
f 168//168 167//167 164//164 166//166
f 169//169 168//168 166//166
f 156//156 167//167 168//168
f 171//171 169//169 166//166 170//170
f 173//173 171//171 170//170 172//172
f 174//174 173//173 172//172
f 173//173 174//174 175//175
f 177//177 176//176 173//173 175//175
f 178//178 177//177 175//175
f 180//180 179//179 176//176 177//177
f 181//181 179//179 180//180
f 183//183 182//182 180//180 177//177
f 185//185 178//178 175//175 184//184
f 186//186 185//185 184//184
f 185//185 186//186 187//187
f 187//187 186//186 189//189 188//188
f 191//191 190//190 187//187 188//188
f 190//190 191//191 192//192
f 194//194 193//193 190//190 192//192
f 195//195 194//194 192//192
f 194//194 195//195 197//197 196//196
f 196//196 197//197 198//198
f 200//200 199//199 196//196 198//198
f 201//201 200//200 198//198
f 203//203 202//202 199//199 200//200
f 202//202 205//205 204//204 199//199
f 204//204 205//205 206//206
f 209//209 208//208 207//207 206//206
f 205//205 209//209 206//206
f 207//207 210//210 206//206
f 207//207 213//213 212//212 211//211
f 210//210 207//207 211//211
f 216//216 215//215 214//214 212//212
f 213//213 216//216 212//212
f 214//214 215//215 183//183
f 218//218 217//217 215//215 216//216
f 218//218 221//221 220//220 219//219
f 222//222 217//217 218//218 219//219
f 220//220 221//221 223//223
f 225//225 224//224 220//220 223//223
f 227//227 226//226 225//225 223//223
f 229//229 228//228 227//227 223//223
f 221//221 230//230 229//229 223//223
f 227//227 228//228 231//231
f 234//234 233//233 232//232 231//231
f 228//228 234//234 231//231
f 232//232 236//236 235//235 231//231
f 238//238 236//236 232//232 237//237
f 240//240 239//239 238//238 237//237
f 242//242 239//239 240//240 241//241
f 244//244 242//242 241//241 243//243
f 246//246 244//244 243//243 245//245
f 243//243 247//247 245//245
f 249//249 248//248 246//246 245//245
f 251//251 248//248 249//249 250//250
f 253//253 252//252 248//248 251//251
f 255//255 254//254 252//252 253//253
f 256//256 254//254 255//255
f 257//257 254//254 256//256 66//66
f 258//258 257//257 66//66
f 258//258 261//261 260//260 259//259
f 257//257 258//258 259//259
f 261//261 264//264 263//263 262//262
f 260//260 261//261 262//262
f 264//264 266//266 265//265 263//263
f 268//268 267//267 266//266 264//264
f 269//269 268//268 264//264 261//261
f 263//263 270//270 262//262
f 273//273 272//272 271//271 262//262
f 270//270 273//273 262//262
f 272//272 275//275 274//274 259//259
f 271//271 272//272 259//259
f 274//274 275//275 276//276
f 274//274 257//257 259//259
f 260//260 271//271 259//259
f 253//253 279//279 278//278 277//277
f 255//255 253//253 277//277
f 278//278 279//279 280//280
f 282//282 278//278 280//280 281//281
f 281//281 280//280 284//284 283//283
f 284//284 286//286 285//285 283//283
f 287//287 286//286 284//284
f 285//285 288//288 283//283
f 288//288 285//285 290//290 289//289
f 291//291 288//288 289//289
f 293//293 292//292 288//288 291//291
f 289//289 290//290 295//295 294//294
f 294//294 295//295 297//297 296//296
f 300//300 299//299 298//298 297//297
f 295//295 300//300 297//297
f 298//298 299//299 301//301
f 303//303 298//298 301//301 302//302
f 301//301 305//305 304//304 302//302
f 304//304 306//306 302//302
f 304//304 308//308 307//307 306//306
f 307//307 310//310 309//309 306//306
f 310//310 307//307 311//311
f 309//309 310//310 313//313 312//312
f 309//309 312//312 314//314
f 317//317 316//316 315//315 314//314
f 312//312 317//317 314//314
f 319//319 315//315 316//316 318//318
f 320//320 319//319 318//318
f 319//319 320//320 321//321
f 323//323 322//322 319//319 321//321
f 325//325 323//323 321//321 324//324
f 327//327 326//326 323//323 325//325
f 328//328 327//327 325//325
f 326//326 327//327 296//296
f 329//329 327//327 328//328
f 331//331 329//329 328//328 330//330
f 333//333 325//325 324//324 332//332
f 324//324 335//335 334//334 332//332
f 332//332 334//334 337//337 336//336
f 337//337 338//338 336//336
f 338//338 340//340 339//339 336//336
f 342//342 340//340 338//338 341//341
f 344//344 342//342 341//341 343//343
f 346//346 345//345 342//342 344//344
f 348//348 347//347 345//345 346//346
f 349//349 348//348 346//346
f 348//348 349//349 350//350
f 352//352 351//351 348//348 350//350
f 353//353 352//352 350//350
f 355//355 353//353 350//350 354//354
f 357//357 356//356 353//353 355//355
f 358//358 357//357 355//355
f 360//360 357//357 358//358 359//359
f 362//362 361//361 360//360 359//359
f 361//361 362//362 363//363
f 366//366 365//365 364//364 363//363
f 362//362 366//366 363//363
f 364//364 367//367 363//363
f 369//369 365//365 366//366 368//368
f 371//371 365//365 369//369 370//370
f 373//373 372//372 371//371 370//370
f 375//375 372//372 373//373 374//374
f 373//373 376//376 374//374
f 379//379 378//378 377//377 374//374
f 376//376 379//379 374//374
f 381//381 380//380 377//377 378//378
f 383//383 382//382 380//380 381//381
f 380//380 382//382 385//385 384//384
f 386//386 380//380 384//384
f 385//385 382//382 387//387
f 389//389 388//388 385//385 387//387
f 390//390 389//389 387//387
f 392//392 389//389 390//390 391//391
f 393//393 389//389 392//392
f 395//395 394//394 393//393 392//392
f 396//396 395//395 392//392
f 393//393 394//394 397//397
f 400//400 399//399 398//398 397//397
f 394//394 401//401 400//400 397//397
f 398//398 399//399 403//403 402//402
f 402//402 403//403 404//404
f 403//403 406//406 405//405 404//404
f 409//409 408//408 407//407 405//405
f 406//406 410//410 409//409 405//405
f 410//410 406//406 411//411
f 413//413 412//412 410//410 411//411
f 414//414 413//413 411//411
f 414//414 417//417 416//416 415//415
f 413//413 414//414 415//415
f 416//416 417//417 418//418
f 418//418 417//417 420//420 419//419
f 417//417 414//414 421//421 400//400
f 420//420 417//417 400//400
f 407//407 408//408 422//422
f 424//424 423//423 407//407 422//422
f 425//425 424//424 422//422
f 424//424 425//425 427//427 426//426
f 426//426 427//427 429//429 428//428
f 428//428 429//429 431//431 430//430
f 429//429 433//433 432//432 431//431
f 433//433 434//434 432//432
f 433//433 436//436 435//435 434//434
f 436//436 438//438 437//437 435//435
f 437//437 438//438 439//439
f 435//435 441//441 440//440 434//434
f 440//440 441//441 443//443 442//442
f 441//441 445//445 444//444 443//443
f 445//445 447//447 446//446 444//444
f 446//446 447//447 448//448
f 448//448 447//447 450//450 449//449
f 23//23 451//451 446//446 448//448
f 451//451 453//453 452//452 444//444
f 446//446 451//451 444//444
f 454//454 452//452 453//453
f 456//456 452//452 454//454 455//455
f 456//456 455//455 457//457
f 444//444 452//452 456//456 443//443
f 440//440 442//442 458//458
f 461//461 460//460 459//459 458//458
f 442//442 461//461 458//458
f 459//459 460//460 462//462
f 459//459 462//462 464//464 463//463
f 465//465 459//459 463//463
f 463//463 464//464 467//467 466//466
f 470//470 469//469 468//468 466//466
f 467//467 470//470 466//466
f 468//468 469//469 471//471
f 472//472 469//469 470//470
f 474//474 473//473 472//472 470//470
f 476//476 475//475 473//473 474//474
f 478//478 477//477 476//476 474//474
f 479//479 47//47 477//477 478//478
f 481//481 480//480 475//475 476//476
f 53//53 481//481 476//476
f 467//467 478//478 474//474 470//470
f 468//468 482//482 466//466
f 482//482 483//483 463//463 466//466
f 462//462 42//42 479//479 464//464
f 483//483 465//465 463//463
f 459//459 465//465 458//458
f 456//456 457//457 461//461 442//442
f 443//443 456//456 442//442
f 485//485 428//428 430//430 484//484
f 482//482 468//468 471//471 430//430
f 431//431 482//482 430//430
f 427//427 436//436 433//433 429//429
f 424//424 426//426 487//487 486//486
f 488//488 424//424 486//486
f 487//487 367//367 486//486
f 489//489 488//488 486//486
f 439//439 438//438 425//425 422//422
f 423//423 424//424 488//488 490//490
f 491//491 423//423 490//490
f 492//492 491//491 490//490
f 494//494 493//493 492//492 490//490
f 489//489 494//494 490//490
f 492//492 493//493 495//495
f 497//497 386//386 496//496 495//495
f 493//493 497//497 495//495
f 496//496 498//498 495//495
f 499//499 498//498 496//496 384//384
f 388//388 499//499 384//384
f 493//493 494//494 500//500 375//375
f 497//497 493//493 375//375
f 449//449 450//450 408//408 409//409
f 412//412 501//501 449//449 409//409
f 410//410 412//412 409//409
f 407//407 423//423 405//405
f 405//405 423//423 491//491 404//404
f 403//403 399//399 421//421 411//411
f 406//406 403//403 411//411
f 498//498 499//499 398//398 402//402
f 401//401 420//420 400//400
f 398//398 499//499 397//397
f 401//401 394//394 395//395
f 391//391 390//390 503//503 502//502
f 502//502 503//503 505//505 504//504
f 505//505 506//506 504//504
f 505//505 509//509 508//508 507//507
f 506//506 505//505 507//507
f 511//511 508//508 509//509 510//510
f 512//512 511//511 510//510
f 514//514 511//511 512//512 513//513
f 514//514 513//513 515//515
f 518//518 517//517 516//516 515//515
f 513//513 518//518 515//515
f 516//516 517//517 520//520 519//519
f 520//520 523//523 522//522 521//521
f 519//519 520//520 521//521
f 522//522 523//523 524//524
f 526//526 525//525 522//522 524//524
f 527//527 526//526 524//524
f 526//526 527//527 529//529 528//528
f 530//530 526//526 528//528
f 532//532 531//531 530//530 528//528
f 534//534 533//533 532//532 528//528
f 533//533 534//534 343//343
f 533//533 535//535 532//532
f 535//535 538//538 537//537 536//536
f 532//532 535//535 536//536
f 538//538 535//535 539//539
f 541//541 540//540 538//538 539//539
f 542//542 541//541 539//539
f 543//543 540//540 541//541
f 540//540 543//543 545//545 544//544
f 537//537 540//540 544//544
f 545//545 547//547 546//546 544//544
f 546//546 547//547 549//549 548//548
f 549//549 551//551 550//550 548//548
f 551//551 553//553 552//552 550//550
f 553//553 555//555 554//554 552//552
f 554//554 555//555 557//557 556//556
f 557//557 559//559 558//558 556//556
f 558//558 559//559 561//561 560//560
f 561//561 563//563 562//562 560//560
f 565//565 564//564 563//563 561//561
f 566//566 565//565 561//561
f 563//563 564//564 567//567
f 568//568 564//564 565//565
f 570//570 569//569 565//565 566//566
f 571//571 570//570 566//566
f 570//570 571//571 572//572
f 574//574 573//573 570//570 572//572
f 575//575 574//574 572//572
f 577//577 573//573 574//574 576//576
f 576//576 574//574 578//578
f 579//579 575//575 572//572
f 581//581 575//575 579//579 580//580
f 583//583 581//581 580//580 582//582
f 583//583 582//582 584//584
f 586//586 585//585 583//583 584//584
f 588//588 587//587 586//586 584//584
f 587//587 589//589 586//586
f 590//590 585//585 586//586
f 591//591 588//588 584//584
f 593//593 588//588 591//591 592//592
f 595//595 594//594 593//593 592//592
f 594//594 595//595 596//596
f 598//598 597//597 594//594 596//596
f 599//599 598//598 596//596
f 318//318 600//600 597//597 598//598
f 591//591 601//601 592//592
f 602//602 581//581 583//583 585//585
f 580//580 604//604 603//603 582//582
f 603//603 604//604 606//606 605//605
f 604//604 608//608 607//607 606//606
f 607//607 608//608 609//609
f 603//603 605//605 610//610
f 562//562 613//613 612//612 611//611
f 560//560 562//562 611//611
f 613//613 562//562 614//614
f 613//613 614//614 616//616 615//615
f 617//617 613//613 615//615
f 616//616 619//619 618//618 615//615
f 619//619 621//621 620//620 618//618
f 618//618 620//620 622//622 507//507
f 623//623 618//618 507//507
f 622//622 620//620 624//624
f 626//626 625//625 619//619 616//616
f 615//615 618//618 623//623 627//627
f 628//628 615//615 627//627
f 628//628 627//627 629//629
f 567//567 626//626 616//616 614//614
f 628//628 617//617 615//615
f 613//613 617//617 612//612
f 559//559 630//630 566//566 561//561
f 631//631 558//558 560//560 611//611
f 632//632 631//631 611//611
f 631//631 632//632 634//634 633//633
f 633//633 634//634 636//636 635//635
f 635//635 636//636 638//638 637//637
f 637//637 638//638 639//639
f 638//638 636//636 641//641 640//640
f 641//641 643//643 642//642 640//640
f 645//645 644//644 643//643 641//641
f 644//644 645//645 646//646
f 648//648 647//647 644//644 646//646
f 649//649 648//648 646//646
f 650//650 649//649 646//646
f 640//640 642//642 651//651
f 642//642 653//653 652//652 651//651
f 652//652 531//531 654//654 651//651
f 643//643 655//655 653//653 642//642
f 653//653 655//655 656//656 521//521
f 525//525 653//653 521//521
f 655//655 647//647 657//657 656//656
f 659//659 658//658 635//635 637//637
f 636//636 634//634 645//645 641//641
f 555//555 607//607 609//609 557//557
f 660//660 554//554 556//556
f 554//554 660//660 658//658 552//552
f 605//605 606//606 553//553 551//551
f 552//552 658//658 659//659 550//550
f 610//610 605//605 551//551 549//549
f 550//550 659//659 548//548
f 592//592 601//601 547//547 545//545
f 546//546 661//661 544//544
f 543//543 595//595 592//592 545//545
f 596//596 595//595 543//543 541//541
f 544//544 661//661 662//662 536//536
f 537//537 544//544 536//536
f 662//662 661//661 639//639
f 525//525 526//526 530//530 652//652
f 653//653 525//525 652//652
f 520//520 664//664 663//663 523//523
f 656//656 519//519 521//521
f 522//522 525//525 521//521
f 657//657 516//516 519//519 656//656
f 516//516 657//657 515//515
f 511//511 514//514 648//648 629//629
f 627//627 511//511 629//629
f 512//512 665//665 518//518 513//513
f 509//509 666//666 510//510
f 623//623 508//508 511//511 627//627
f 665//665 512//512 510//510
f 622//622 506//506 507//507
f 668//668 667//667 502//502 504//504
f 670//670 667//667 668//668 669//669
f 668//668 671//671 669//669
f 671//671 673//673 672//672 669//669
f 674//674 673//673 671//671 624//624
f 673//673 675//675 672//672
f 678//678 677//677 676//676 672//672
f 675//675 678//678 672//672
f 678//678 675//675 679//679
f 678//678 680//680 677//677
f 672//672 676//676 670//670 669//669
f 676//676 682//682 681//681 670//670
f 503//503 390//390 387//387 683//683
f 385//385 388//388 384//384
f 380//380 386//386 497//497 377//377
f 665//665 381//381 378//378 518//518
f 377//377 497//497 375//375 374//374
f 372//372 500//500 371//371
f 376//376 373//373 370//370
f 368//368 366//366 359//359 684//684
f 663//663 368//368 684//684 685//685
f 684//684 687//687 686//686 685//685
f 686//686 687//687 354//354 688//688
f 664//664 369//369 368//368 663//663
f 361//361 485//485 484//484 360//360
f 484//484 690//690 689//689 360//360
f 359//359 358//358 687//687 684//684
f 348//348 351//351 347//347
f 351//351 692//692 691//691 347//347
f 693//693 349//349 346//346
f 694//694 693//693 346//346 344//344
f 688//688 693//693 694//694 529//529
f 534//534 694//694 344//344 343//343
f 340//340 696//696 695//695 339//339
f 696//696 697//697 695//695
f 695//695 330//330 333//333 339//339
f 339//339 333//333 332//332 336//336
f 321//321 320//320 335//335 324//324
f 315//315 319//319 322//322 698//698
f 699//699 315//315 698//698
f 303//303 699//699 698//698
f 316//316 600//600 318//318
f 315//315 699//699 314//314
f 316//316 317//317 589//589 600//600
f 313//313 700//700 317//317 312//312
f 700//700 313//313 701//701
f 702//702 590//590 700//700 701//701
f 703//703 702//702 701//701
f 201//201 703//703 701//701
f 705//705 704//704 305//305 301//301
f 299//299 706//706 705//705 301//301
f 706//706 707//707 705//705
f 250//250 707//707 706//706 300//300
f 708//708 250//250 300//300
f 709//709 704//704 705//705
f 709//709 712//712 711//711 710//710
f 704//704 709//709 710//710
f 712//712 714//714 713//713 711//711
f 714//714 233//233 715//715 713//713
f 713//713 715//715 717//717 716//716
f 715//715 720//720 719//719 718//718
f 717//717 715//715 718//718
f 719//719 720//720 721//721
f 722//722 717//717 718//718
f 711//711 713//713 716//716 723//723
f 724//724 711//711 723//723
f 716//716 725//725 723//723
f 726//726 712//712 709//709 247//247
f 711//711 724//724 710//710
f 297//297 298//298 303//303 698//698
f 728//728 289//289 294//294 727//727
f 730//730 728//728 727//727 729//729
f 731//731 730//730 729//729
f 730//730 731//731 732//732
f 734//734 733//733 730//730 732//732
f 736//736 735//735 734//734 732//732
f 737//737 733//733 734//734
f 481//481 738//738 737//737 734//734
f 740//740 736//736 732//732 739//739
f 742//742 736//736 740//740 741//741
f 744//744 743//743 742//742 741//741
f 743//743 480//480 735//735 742//742
f 746//746 744//744 741//741 745//745
f 741//741 740//740 747//747 745//745
f 745//745 747//747 356//356 689//689
f 747//747 740//740 739//739 352//352
f 732//732 731//731 692//692 739//739
f 730//730 733//733 728//728
f 288//288 292//292 281//281 283//283
f 292//292 282//282 281//281
f 287//287 279//279 253//253 251//251
f 249//249 707//707 250//250
f 287//287 251//251 250//250 708//708
f 286//286 287//287 708//708
f 275//275 272//272 242//242 244//244
f 243//243 241//241 726//726 247//247
f 241//241 240//240 748//748 726//726
f 239//239 273//273 749//749 238//238
f 748//748 240//240 237//237
f 236//236 750//750 85//85 235//235
f 233//233 234//234 720//720 715//715
f 229//229 230//230 751//751 721//721
f 224//224 753//753 752//752 219//219
f 220//220 224//224 219//219
f 752//752 753//753 754//754
f 756//756 755//755 752//752 754//754
f 151//151 756//756 754//754
f 752//752 755//755 219//219
f 230//230 221//221 218//218
f 751//751 230//230 218//218 216//216
f 208//208 751//751 216//216 213//213
f 214//214 757//757 212//212
f 205//205 202//202 722//722 718//718
f 209//209 205//205 718//718
f 203//203 200//200 311//311
f 722//722 202//202 203//203 725//725
f 197//197 195//195 577//577 576//576
f 199//199 204//204 194//194 196//196
f 577//577 195//195 192//192
f 758//758 191//191 188//188
f 568//568 758//758 188//188 759//759
f 190//190 193//193 211//211 187//187
f 188//188 189//189 760//760 759//759
f 185//185 757//757 178//178
f 761//761 174//174 172//172
f 173//173 176//176 171//171
f 170//170 680//680 678//678 679//679
f 172//172 170//170 679//679
f 181//181 762//762 168//168 169//169
f 179//179 181//181 169//169
f 181//181 756//756 762//762
f 680//680 165//165 163//163 677//677
f 163//163 161//161 763//763 682//682
f 160//160 765//765 764//764 159//159
f 764//764 765//765 419//419 766//766
f 767//767 764//764 766//766
f 9//9 768//768 765//765 160//160
f 756//756 151//151 149//149 762//762
f 150//150 155//155 149//149
f 89//89 91//91 753//753 224//224
f 98//98 94//94 90//90 88//88
f 87//87 89//89 224//224 225//225
f 85//85 86//86 226//226 235//235
f 265//265 266//266 81//81 83//83
f 266//266 267//267 78//78 81//81
f 135//135 77//77 75//75 134//134
f 76//76 267//267 268//268 74//74
f 74//74 268//268 269//269 72//72
f 129//129 73//73 70//70
f 70//70 71//71 128//128 127//127
f 261//261 258//258 67//67 69//69
f 269//269 261//261 69//69
f 71//71 68//68 64//64
f 256//256 65//65 66//66
f 67//67 258//258 66//66
f 62//62 65//65 61//61
f 58//58 282//282 292//292 293//293
f 57//57 58//58 293//293
f 738//738 54//54 57//57 293//293
f 59//59 61//61 277//277 58//58
f 63//63 60//60 56//56 52//52
f 49//49 63//63 52//52
f 50//50 128//128 63//63 49//49
f 126//126 50//50 46//46 43//43
f 44//44 124//124 126//126 43//43
f 461//461 37//37 39//39 460//460
f 34//34 132//132 131//131 36//36
f 455//455 33//33 35//35 457//457
f 32//32 137//137 132//132 34//34
f 29//29 31//31 454//454 453//453
f 28//28 139//139 136//136 30//30
f 451//451 27//27 29//29 453//453
f 26//26 106//106 140//140 25//25
f 21//21 23//23 448//448 449//449
f 501//501 21//21 449//449
f 21//21 501//501 19//19
f 412//412 413//413 20//20 19//19
f 501//501 412//412 19//19
f 14//14 112//112 109//109 17//17
f 1//1 112//112 14//14 12//12
f 13//13 769//769 11//11
f 158//158 7//7 9//9 160//160
f 10//10 768//768 9//9
f 4//4 148//148 3//3
f 143//143 144//144 2//2 3//3
f 144//144 111//111 2//2
f 147//147 148//148 152//152
f 91//91 92//92 142//142 145//145
f 308//308 724//724 723//723
f 8//8 5//5 1//1 12//12
f 109//109 108//108 113//113 17//17
f 131//131 44//44 38//38 36//36
f 154//154 6//6 7//7 158//158
f 164//164 167//167 162//162
f 11//11 769//769 416//416 418//418
f 768//768 10//10 11//11 418//418
f 20//20 413//413 415//415
f 765//765 768//768 418//418 419//419
f 421//421 399//399 400//400
f 487//487 426//426 428//428 485//485
f 763//763 771//771 770//770 681//681
f 682//682 763//763 681//681
f 770//770 771//771 396//396
f 767//767 771//771 763//763
f 770//770 772//772 681//681
f 509//509 505//505 503//503 683//683
f 666//666 509//509 683//683
f 383//383 666//666 683//683
f 80//80 138//138 101//101
f 138//138 80//80 77//77 135//135
f 79//79 80//80 101//101 99//99
f 267//267 76//76 78//78
f 72//72 269//269 69//69
f 84//84 82//82 98//98 88//88
f 750//750 265//265 83//83 85//85
f 276//276 275//275 244//244 246//246
f 101//101 138//138 115//115 100//100
f 133//133 119//119 117//117
f 134//134 129//129 125//125 123//123
f 130//130 134//134 123//123
f 97//97 102//102 96//96
f 128//128 71//71 64//64 63//63
f 753//753 91//91 145//145 754//754
f 285//285 286//286 708//708 290//290
f 103//103 114//114 139//139 140//140
f 136//136 137//137 32//32 30//30
f 122//122 124//124 44//44 131//131
f 113//113 16//16 17//17
f 40//40 45//45 47//47 479//479
f 42//42 40//40 479//479
f 475//475 480//480 743//743
f 263//263 265//265 750//750 749//749
f 270//270 263//263 749//749
f 271//271 260//260 262//262
f 749//749 750//750 236//236 238//238
f 272//272 273//273 239//239 242//242
f 748//748 714//714 712//712 726//726
f 82//82 79//79 99//99 98//98
f 134//134 75//75 73//73 129//129
f 65//65 256//256 255//255 277//277
f 61//61 65//65 277//277
f 280//280 279//279 287//287 284//284
f 207//207 208//208 213//213
f 723//723 725//725 203//203 311//311
f 307//307 308//308 723//723 311//311
f 706//706 299//299 300//300
f 113//113 26//26 22//22 18//18
f 16//16 113//113 18//18
f 35//35 37//37 461//461 457//457
f 54//54 55//55 57//57
f 737//737 738//738 293//293 291//291
f 140//140 139//139 28//28 25//25
f 137//137 118//118 120//120 132//132
f 45//45 40//40 41//41
f 111//111 144//144 141//141 110//110
f 47//47 48//48 51//51 477//477
f 755//755 756//756 181//181 180//180
f 182//182 222//222 755//755 180//180
f 473//473 475//475 743//743 744//744
f 24//24 27//27 451//451 23//23
f 454//454 31//31 33//33 455//455
f 460//460 39//39 42//42 462//462
f 13//13 15//15 20//20 415//415
f 769//769 13//13 415//415
f 464//464 479//479 478//478 467//467
f 472//472 473//473 744//744 746//746
f 447//447 445//445 437//437 439//439
f 450//450 447//447 439//439
f 437//437 445//445 441//441 435//435
f 458//458 465//465 483//483 432//432
f 434//434 440//440 458//458 432//432
f 408//408 450//450 439//439 422//422
f 425//425 438//438 436//436 427//427
f 432//432 483//483 482//482 431//431
f 430//430 471//471 690//690 484//484
f 156//156 153//153 157//157 162//162
f 167//167 156//156 162//162
f 166//166 165//165 680//680 170//170
f 761//761 172//172 679//679 773//773
f 774//774 761//761 773//773
f 761//761 774//774 775//775
f 775//775 774//774 776//776 625//625
f 760//760 775//775 625//625
f 776//776 774//774 773//773
f 621//621 776//776 773//773 674//674
f 760//760 189//189 184//184 775//775
f 590//590 702//702 602//602 585//585
f 602//602 702//702 578//578
f 159//159 764//764 767//767 763//763
f 161//161 159//159 763//763
f 677//677 163//163 682//682 676//676
f 679//679 675//675 673//673 674//674
f 773//773 679//679 674//674
f 770//770 396//396 392//392 391//391
f 772//772 770//770 391//391
f 388//388 389//389 393//393 397//397
f 499//499 388//388 397//397
f 364//364 494//494 489//489 486//486
f 367//367 364//364 486//486
f 667//667 772//772 391//391 502//502
f 624//624 671//671 668//668 504//504
f 506//506 622//622 624//624 504//504
f 508//508 623//623 507//507
f 647//647 648//648 514//514 515//515
f 657//657 647//647 515//515
f 2//2 111//111 112//112 1//1
f 477//477 51//51 53//53 476//476
f 149//149 155//155 156//156 168//168
f 762//762 149//149 168//168
f 175//175 174//174 761//761 775//775
f 184//184 175//175 775//775
f 421//421 414//414 411//411
f 469//469 472//472 746//746 690//690
f 471//471 469//469 690//690
f 767//767 766//766 395//395 396//396
f 771//771 767//767 396//396
f 356//356 747//747 352//352 353//353
f 620//620 621//621 674//674 624//624
f 539//539 535//535 533//533 343//343
f 341//341 539//539 343//343
f 488//488 489//489 490//490
f 487//487 485//485 361//361 363//363
f 367//367 487//487 363//363
f 500//500 372//372 375//375
f 366//366 362//362 359//359
f 518//518 378//378 379//379 517//517
f 523//523 663//663 685//685 524//524
f 235//235 226//226 227//227 231//231
f 273//273 270//270 749//749
f 248//248 252//252 276//276 246//246
f 234//234 228//228 229//229
f 233//233 714//714 748//748 237//237
f 232//232 233//233 237//237
f 245//245 247//247 709//709 705//705
f 707//707 249//249 245//245 705//705
f 719//719 209//209 718//718
f 716//716 717//717 722//722 725//725
f 92//92 95//95 142//142
f 277//277 278//278 282//282 58//58
f 217//217 222//222 182//182
f 290//290 708//708 300//300 295//295
f 193//193 210//210 211//211
f 703//703 201//201 198//198
f 302//302 306//306 309//309 314//314
f 699//699 303//303 302//302 314//314
f 416//416 769//769 415//415
f 735//735 480//480 481//481 734//734
f 692//692 731//731 729//729 691//691
f 729//729 331//331 697//697 691//691
f 759//759 760//760 625//625 626//626
f 337//337 334//334 599//599 542//542
f 755//755 222//222 219//219
f 254//254 257//257 274//274 276//276
f 252//252 254//254 276//276
f 720//720 234//234 229//229 721//721
f 305//305 704//704 710//710
f 212//212 757//757 185//185 187//187
f 211//211 212//212 187//187
f 206//206 210//210 193//193 194//194
f 204//204 206//206 194//194
f 311//311 200//200 201//201 701//701
f 313//313 310//310 311//311 701//701
f 148//148 4//4 6//6 154//154
f 152//152 148//148 154//154
f 53//53 54//54 738//738 481//481
f 176//176 179//179 169//169 171//171
f 189//189 186//186 184//184
f 570//570 573//573 569//569
f 587//587 588//588 593//593
f 419//419 420//420 401//401 395//395
f 766//766 419//419 395//395
f 690//690 746//746 745//745 689//689
f 681//681 772//772 667//667 670//670
f 350//350 349//349 693//693 688//688
f 354//354 350//350 688//688
f 625//625 776//776 621//621 619//619
f 612//612 650//650 632//632 611//611
f 662//662 654//654 536//536
f 226//226 86//86 87//87 225//225
f 296//296 327//327 329//329 727//727
f 294//294 296//296 727//727
f 208//208 209//209 719//719 721//721
f 751//751 208//208 721//721
f 308//308 304//304 305//305 710//710
f 724//724 308//308 710//710
f 317//317 700//700 590//590 586//586
f 589//589 317//317 586//586
f 335//335 320//320 318//318 598//598
f 735//735 736//736 742//742
f 727//727 329//329 331//331 729//729
f 330//330 328//328 325//325 333//333
f 630//630 571//571 566//566
f 334//334 335//335 598//598 599//599
f 404//404 491//491 492//492 495//495
f 498//498 402//402 404//404 495//495
f 689//689 356//356 357//357 360//360
f 691//691 697//697 696//696 345//345
f 347//347 691//691 345//345
f 685//685 686//686 527//527 524//524
f 634//634 632//632 650//650 646//646
f 645//645 634//634 646//646
f 639//639 638//638 640//640 651//651
f 654//654 662//662 639//639 651//651
f 338//338 337//337 542//542 539//539
f 341//341 338//338 539//539
f 145//145 146//146 151//151 754//754
f 737//737 291//291 289//289 728//728
f 733//733 737//737 728//728
f 214//214 183//183 177//177 178//178
f 757//757 214//214 178//178
f 326//326 322//322 323//323
f 569//569 758//758 568//568 565//565
f 575//575 581//581 602//602 578//578
f 574//574 575//575 578//578
f 594//594 597//597 593//593
f 739//739 692//692 351//351 352//352
f 345//345 696//696 340//340 342//342
f 562//562 563//563 567//567 614//614
f 538//538 540//540 537//537
f 496//496 386//386 384//384
f 494//494 364//364 365//365 371//371
f 500//500 494//494 371//371
f 687//687 358//358 355//355 354//354
f 383//383 381//381 665//665 510//510
f 666//666 383//383 510//510
f 517//517 379//379 664//664 520//520
f 527//527 686//686 688//688 529//529
f 648//648 649//649 629//629
f 530//530 531//531 652//652
f 215//215 217//217 182//182 183//183
f 698//698 322//322 326//326 296//296
f 297//297 698//698 296//296
f 192//192 191//191 758//758 569//569
f 573//573 577//577 192//192 569//569
f 198//198 197//197 576//576 578//578
f 702//702 703//703 198//198 578//578
f 600//600 589//589 587//587 593//593
f 597//597 600//600 593//593
f 572//572 571//571 630//630 609//609
f 608//608 579//579 572//572 609//609
f 579//579 608//608 604//604 580//580
f 584//584 582//582 603//603 610//610
f 601//601 591//591 584//584 610//610
f 697//697 331//331 330//330 695//695
f 568//568 759//759 626//626 567//567
f 564//564 568//568 567//567
f 542//542 599//599 596//596 541//541
f 609//609 630//630 559//559 557//557
f 606//606 607//607 555//555 553//553
f 547//547 601//601 610//610 549//549
f 387//387 382//382 383//383 683//683
f 664//664 379//379 376//376 370//370
f 369//369 664//664 370//370
f 529//529 694//694 534//534 528//528
f 612//612 617//617 628//628 629//629
f 649//649 650//650 612//612 629//629
f 644//644 647//647 655//655 643//643
f 654//654 531//531 532//532 536//536
f 556//556 558//558 631//631 633//633
f 660//660 556//556 633//633
f 658//658 660//660 633//633 635//635
f 548//548 659//659 637//637 639//639
f 661//661 546//546 548//548 639//639
