# Blender 5.1.2
# www.blender.org
mtllib static_mesh_debris.mtl
o Cube_cell.095
v 0.093437 0.461266 -0.071780
v 0.276859 0.365869 -0.102187
v 0.358709 0.254885 -0.171564
v -0.124463 0.295289 0.423239
v -0.417427 0.262694 0.087878
v 0.196267 0.203919 0.247690
v -0.034958 0.230473 0.437824
v 0.329076 0.065009 0.092546
v 0.051545 0.036084 0.297877
v 0.395062 0.065308 -0.058698
v 0.254975 0.066704 -0.287223
v 0.258027 0.029066 -0.272057
v 0.393268 0.064656 -0.064120
v 0.250182 0.119981 -0.308401
v -0.132403 -0.014888 -0.012938
v -0.169316 -0.018939 0.011512
v 0.243001 0.027346 -0.262072
v -0.158205 0.400209 -0.185014
v -0.409880 0.277387 0.024786
v -0.427984 0.268447 0.039925
v -0.416604 0.229407 0.050622
v -0.431304 0.244412 0.052838
v -0.192792 0.004528 0.015275
v -0.185071 -0.003200 0.014042
v 0.254975 0.066704 -0.287223
v 0.258027 0.029066 -0.272057
v 0.250182 0.119981 -0.308401
v -0.132403 -0.014888 -0.012938
v -0.169316 -0.018939 0.011512
v 0.243001 0.027346 -0.262072
v -0.158205 0.400209 -0.185014
v -0.409880 0.277387 0.024786
v -0.427984 0.268447 0.039925
v -0.416604 0.229407 0.050622
v -0.431304 0.244412 0.052838
v -0.192792 0.004528 0.015275
v -0.185071 -0.003200 0.014042
vn 0.1934 0.6175 -0.7624
vn 0.8465 0.3827 0.3701
vn 0.9496 -0.0046 -0.3135
vn 0.8370 -0.1355 -0.5302
vn -0.3073 0.9348 0.1783
vn 0.1964 0.6198 -0.7598
vn 0.4688 0.7555 0.4577
vn 0.4666 0.7561 0.4589
vn 0.4684 0.7514 0.4647
vn 0.5901 -0.2811 0.7568
vn 0.1546 -0.9855 0.0701
vn 0.1553 -0.9856 0.0670
vn 0.1570 -0.9854 0.0665
vn 0.5894 -0.2826 0.7568
vn -0.3102 0.9334 0.1803
vn -0.5563 -0.6258 0.5468
vn -0.5506 -0.6334 0.5437
vn -0.5484 -0.6348 0.5443
vn -0.5475 -0.6355 0.5444
vn -0.9369 0.2568 0.2371
vn 0.8425 0.3880 0.3736
vn -0.4874 -0.3601 -0.7955
vn 0.8407 -0.1423 -0.5224
vt 0.193392 0.193392
vt 0.175447 0.000000
vt 1.000000 0.000000
vt 1.000000 1.000000
vt 1.000000 0.006137
vt 0.000000 0.000000
vt 0.006137 0.006137
vt 0.015034 0.000000
vt 0.192858 0.192858
vt 1.000000 0.193392
vt 1.000000 0.097825
vt 0.175447 0.175447
vt 0.877635 0.000000
vt 1.000000 0.127944
vt 0.127944 0.127944
vt 1.000000 0.129567
vt 0.129567 0.129567
vt 0.168135 0.000000
vt 0.984966 0.000000
vt 0.097825 0.097825
vt 0.548877 0.000000
vt 1.000000 0.097267
vt 0.452691 0.000000
vt 0.097267 0.097267
vt 1.000000 0.096732
vt 0.096732 0.096732
vt 0.091061 0.000000
vt 0.091061 0.091061
vt 0.122365 0.000000
vt 0.547309 0.000000
vt 1.000000 0.451123
vt 0.580872 0.064441
vt 0.573049 0.068195
vt 0.549082 0.018022
vt 0.831865 0.000000
vt 1.000000 0.192858
vt 1.000000 0.010434
vt 0.618114 0.021864
vt 0.612405 0.010209
vt 0.577203 0.068615
vt 0.574416 0.068335
vt 0.533359 0.064060
vt 0.530724 0.057722
vt 0.530736 0.063760
vt 0.529411 0.060591
vt 0.616643 0.016019
vt 0.619602 0.020156
s 0
usemtl 
f 27/1/1 31/2/1 1/3/1 3/4/1
f 10/5/2 3/4/2 8/6/2
f 3/4/3 10/7/3 13/8/3
f 25/9/4 27/10/4 3/4/4
f 32/11/5 4/3/5 1/4/5 31/12/5
f 1/6/6 2/3/6 3/4/6
f 1/6/7 6/3/7 2/4/7
f 1/6/8 4/3/8 6/4/8
f 4/6/9 7/3/9 6/4/9
f 7/6/10 8/3/10 6/4/10
f 8/4/11 9/6/11 29/13/11 28/14/11
f 8/4/12 28/15/12 30/16/12
f 30/17/13 26/18/13 13/19/13
f 7/6/14 9/3/14 8/4/14
f 5/3/15 4/4/15 32/20/15 33/21/15
f 34/22/16 4/4/16 5/6/16 35/23/16
f 4/4/17 34/24/17 36/25/17
f 7/3/18 4/4/18 36/26/18 37/27/18
f 9/3/19 7/4/19 37/28/19 29/29/19
f 35/30/20 5/3/20 33/31/20
f 6/6/21 8/3/21 3/4/21 2/6/21
f 15/32/22 23/33/22 18/34/22
f 13/8/23 26/35/23 25/36/23
f 25/36/23 3/4/23 13/8/23
f 13/19/13 10/37/13 8/4/13
f 8/4/13 30/17/13 13/19/13
f 17/38/22 15/32/22 14/39/22
f 15/32/22 16/40/22 24/41/22
f 14/39/22 15/32/22 18/34/22
f 24/41/22 23/33/22 15/32/22
f 23/33/22 21/42/22 19/43/22
f 21/42/22 22/44/22 20/45/22
f 19/43/22 21/42/22 20/45/22
f 19/43/22 18/34/22 23/33/22
f 14/39/22 11/46/22 17/38/22
f 11/46/22 12/47/22 17/38/22
