# Blender 5.1.2
# www.blender.org
mtllib Bent_Plane.mtl
o Plane
v -1.000000 -0.938957 -0.296052
v 1.000000 -0.938957 -0.296052
v -1.000000 0.938957 -0.296052
v 1.000000 0.938957 -0.296052
v -1.000000 0.768535 -0.191617
v -1.000000 0.586656 -0.108730
v -1.000000 0.396032 -0.048627
v -1.000000 0.199503 -0.012202
v -1.000000 0.000000 0.000000
v -1.000000 -0.199503 -0.012202
v -1.000000 -0.396032 -0.048627
v -1.000000 -0.586656 -0.108730
v -1.000000 -0.768535 -0.191617
v -0.800000 -0.938957 -0.296052
v -0.600000 -0.938957 -0.296052
v -0.400000 -0.938957 -0.296052
v -0.200000 -0.938957 -0.296052
v 0.000000 -0.938957 -0.296052
v 0.200000 -0.938957 -0.296052
v 0.400000 -0.938957 -0.296052
v 0.600000 -0.938957 -0.296052
v 0.800000 -0.938957 -0.296052
v 1.000000 -0.768535 -0.191617
v 1.000000 -0.586656 -0.108730
v 1.000000 -0.396032 -0.048627
v 1.000000 -0.199503 -0.012202
v 1.000000 0.000000 0.000000
v 1.000000 0.199503 -0.012202
v 1.000000 0.396032 -0.048627
v 1.000000 0.586656 -0.108730
v 1.000000 0.768535 -0.191617
v 0.800000 0.938957 -0.296052
v 0.600000 0.938957 -0.296052
v 0.400000 0.938957 -0.296052
v 0.200000 0.938957 -0.296052
v 0.000000 0.938957 -0.296052
v -0.200000 0.938957 -0.296052
v -0.400000 0.938957 -0.296052
v -0.600000 0.938957 -0.296052
v -0.800000 0.938957 -0.296052
v -0.800000 -0.768535 -0.191617
v -0.800000 -0.586656 -0.108730
v -0.800000 -0.396032 -0.048627
v -0.800000 -0.199503 -0.012202
v -0.800000 0.000000 0.000000
v -0.800000 0.199503 -0.012202
v -0.800000 0.396032 -0.048627
v -0.800000 0.586656 -0.108730
v -0.800000 0.768535 -0.191617
v -0.600000 -0.768535 -0.191617
v -0.600000 -0.586656 -0.108730
v -0.600000 -0.396032 -0.048627
v -0.600000 -0.199503 -0.012202
v -0.600000 0.000000 0.000000
v -0.600000 0.199503 -0.012202
v -0.600000 0.396032 -0.048627
v -0.600000 0.586656 -0.108730
v -0.600000 0.768535 -0.191617
v -0.400000 -0.768535 -0.191617
v -0.400000 -0.586656 -0.108730
v -0.400000 -0.396032 -0.048627
v -0.400000 -0.199503 -0.012202
v -0.400000 0.000000 0.000000
v -0.400000 0.199503 -0.012202
v -0.400000 0.396032 -0.048627
v -0.400000 0.586656 -0.108730
v -0.400000 0.768535 -0.191617
v -0.200000 -0.768535 -0.191617
v -0.200000 -0.586656 -0.108730
v -0.200000 -0.396032 -0.048627
v -0.200000 -0.199503 -0.012202
v -0.200000 0.000000 0.000000
v -0.200000 0.199503 -0.012202
v -0.200000 0.396032 -0.048627
v -0.200000 0.586656 -0.108730
v -0.200000 0.768535 -0.191617
v 0.000000 -0.768535 -0.191617
v 0.000000 -0.586656 -0.108730
v 0.000000 -0.396032 -0.048627
v 0.000000 -0.199503 -0.012202
v 0.000000 0.000000 0.000000
v 0.000000 0.199503 -0.012202
v 0.000000 0.396032 -0.048627
v 0.000000 0.586656 -0.108730
v 0.000000 0.768535 -0.191617
v 0.200000 -0.768535 -0.191617
v 0.200000 -0.586656 -0.108730
v 0.200000 -0.396032 -0.048627
v 0.200000 -0.199503 -0.012202
v 0.200000 0.000000 0.000000
v 0.200000 0.199503 -0.012202
v 0.200000 0.396032 -0.048627
v 0.200000 0.586656 -0.108730
v 0.200000 0.768535 -0.191617
v 0.400000 -0.768535 -0.191617
v 0.400000 -0.586656 -0.108730
v 0.400000 -0.396032 -0.048627
v 0.400000 -0.199503 -0.012202
v 0.400000 0.000000 0.000000
v 0.400000 0.199503 -0.012202
v 0.400000 0.396032 -0.048627
v 0.400000 0.586656 -0.108730
v 0.400000 0.768535 -0.191617
v 0.600000 -0.768535 -0.191617
v 0.600000 -0.586656 -0.108730
v 0.600000 -0.396032 -0.048627
v 0.600000 -0.199503 -0.012202
v 0.600000 0.000000 0.000000
v 0.600000 0.199503 -0.012202
v 0.600000 0.396032 -0.048627
v 0.600000 0.586656 -0.108730
v 0.600000 0.768535 -0.191617
v 0.800000 -0.768535 -0.191617
v 0.800000 -0.586656 -0.108730
v 0.800000 -0.396032 -0.048627
v 0.800000 -0.199503 -0.012202
v 0.800000 0.000000 0.000000
v 0.800000 0.199503 -0.012202
v 0.800000 0.396032 -0.048627
v 0.800000 0.586656 -0.108730
v 0.800000 0.768535 -0.191617
vn -0.0000 0.5225 0.8526
vn -0.0000 -0.5225 0.8526
vn -0.0000 -0.4147 0.9100
vn -0.0000 -0.3007 0.9537
vn -0.0000 -0.1822 0.9833
vn -0.0000 -0.0610 0.9981
vn -0.0000 0.0610 0.9981
vn -0.0000 0.1822 0.9833
vn -0.0000 0.3007 0.9537
vn -0.0000 0.4147 0.9100
vt 0.900000 0.900000
vt 1.000000 0.900000
vt 1.000000 1.000000
vt 0.900000 1.000000
vt 0.000000 0.900000
vt 0.100000 0.900000
vt 0.100000 1.000000
vt 0.000000 1.000000
vt 0.200000 0.900000
vt 0.200000 1.000000
vt 0.300000 0.900000
vt 0.300000 1.000000
vt 0.400000 0.900000
vt 0.400000 1.000000
vt 0.500000 0.900000
vt 0.500000 1.000000
vt 0.600000 0.900000
vt 0.600000 1.000000
vt 0.700000 0.900000
vt 0.700000 1.000000
vt 0.800000 0.900000
vt 0.800000 1.000000
vt 0.000000 0.000000
vt 0.100000 0.000000
vt 0.100000 0.100000
vt 0.000000 0.100000
vt 0.100000 0.200000
vt 0.000000 0.200000
vt 0.100000 0.300000
vt 0.000000 0.300000
vt 0.100000 0.400000
vt 0.000000 0.400000
vt 0.100000 0.500000
vt 0.000000 0.500000
vt 0.100000 0.600000
vt 0.000000 0.600000
vt 0.100000 0.700000
vt 0.000000 0.700000
vt 0.100000 0.800000
vt 0.000000 0.800000
vt 0.200000 0.000000
vt 0.200000 0.100000
vt 0.200000 0.200000
vt 0.200000 0.300000
vt 0.200000 0.400000
vt 0.200000 0.500000
vt 0.200000 0.600000
vt 0.200000 0.700000
vt 0.200000 0.800000
vt 0.300000 0.000000
vt 0.300000 0.100000
vt 0.300000 0.200000
vt 0.300000 0.300000
vt 0.300000 0.400000
vt 0.300000 0.500000
vt 0.300000 0.600000
vt 0.300000 0.700000
vt 0.300000 0.800000
vt 0.400000 0.000000
vt 0.400000 0.100000
vt 0.400000 0.200000
vt 0.400000 0.300000
vt 0.400000 0.400000
vt 0.400000 0.500000
vt 0.400000 0.600000
vt 0.400000 0.700000
vt 0.400000 0.800000
vt 0.500000 0.000000
vt 0.500000 0.100000
vt 0.500000 0.200000
vt 0.500000 0.300000
vt 0.500000 0.400000
vt 0.500000 0.500000
vt 0.500000 0.600000
vt 0.500000 0.700000
vt 0.500000 0.800000
vt 0.600000 0.000000
vt 0.600000 0.100000
vt 0.600000 0.200000
vt 0.600000 0.300000
vt 0.600000 0.400000
vt 0.600000 0.500000
vt 0.600000 0.600000
vt 0.600000 0.700000
vt 0.600000 0.800000
vt 0.700000 0.000000
vt 0.700000 0.100000
vt 0.700000 0.200000
vt 0.700000 0.300000
vt 0.700000 0.400000
vt 0.700000 0.500000
vt 0.700000 0.600000
vt 0.700000 0.700000
vt 0.700000 0.800000
vt 0.800000 0.000000
vt 0.800000 0.100000
vt 0.800000 0.200000
vt 0.800000 0.300000
vt 0.800000 0.400000
vt 0.800000 0.500000
vt 0.800000 0.600000
vt 0.800000 0.700000
vt 0.800000 0.800000
vt 0.900000 0.000000
vt 0.900000 0.100000
vt 0.900000 0.200000
vt 0.900000 0.300000
vt 0.900000 0.400000
vt 0.900000 0.500000
vt 0.900000 0.600000
vt 0.900000 0.700000
vt 0.900000 0.800000
vt 1.000000 0.000000
vt 1.000000 0.100000
vt 1.000000 0.200000
vt 1.000000 0.300000
vt 1.000000 0.400000
vt 1.000000 0.500000
vt 1.000000 0.600000
vt 1.000000 0.700000
vt 1.000000 0.800000
s 0
f 121/1/1 31/2/1 4/3/1 32/4/1
f 5/5/1 49/6/1 40/7/1 3/8/1
f 49/6/1 58/9/1 39/10/1 40/7/1
f 58/9/1 67/11/1 38/12/1 39/10/1
f 67/11/1 76/13/1 37/14/1 38/12/1
f 76/13/1 85/15/1 36/16/1 37/14/1
f 85/15/1 94/17/1 35/18/1 36/16/1
f 94/17/1 103/19/1 34/20/1 35/18/1
f 103/19/1 112/21/1 33/22/1 34/20/1
f 112/21/1 121/1/1 32/4/1 33/22/1
f 1/23/2 14/24/2 41/25/2 13/26/2
f 13/26/3 41/25/3 42/27/3 12/28/3
f 12/28/4 42/27/4 43/29/4 11/30/4
f 11/30/5 43/29/5 44/31/5 10/32/5
f 10/32/6 44/31/6 45/33/6 9/34/6
f 9/34/7 45/33/7 46/35/7 8/36/7
f 8/36/8 46/35/8 47/37/8 7/38/8
f 7/38/9 47/37/9 48/39/9 6/40/9
f 6/40/10 48/39/10 49/6/10 5/5/10
f 14/24/2 15/41/2 50/42/2 41/25/2
f 41/25/3 50/42/3 51/43/3 42/27/3
f 42/27/4 51/43/4 52/44/4 43/29/4
f 43/29/5 52/44/5 53/45/5 44/31/5
f 44/31/6 53/45/6 54/46/6 45/33/6
f 45/33/7 54/46/7 55/47/7 46/35/7
f 46/35/8 55/47/8 56/48/8 47/37/8
f 47/37/9 56/48/9 57/49/9 48/39/9
f 48/39/10 57/49/10 58/9/10 49/6/10
f 15/41/2 16/50/2 59/51/2 50/42/2
f 50/42/3 59/51/3 60/52/3 51/43/3
f 51/43/4 60/52/4 61/53/4 52/44/4
f 52/44/5 61/53/5 62/54/5 53/45/5
f 53/45/6 62/54/6 63/55/6 54/46/6
f 54/46/7 63/55/7 64/56/7 55/47/7
f 55/47/8 64/56/8 65/57/8 56/48/8
f 56/48/9 65/57/9 66/58/9 57/49/9
f 57/49/10 66/58/10 67/11/10 58/9/10
f 16/50/2 17/59/2 68/60/2 59/51/2
f 59/51/3 68/60/3 69/61/3 60/52/3
f 60/52/4 69/61/4 70/62/4 61/53/4
f 61/53/5 70/62/5 71/63/5 62/54/5
f 62/54/6 71/63/6 72/64/6 63/55/6
f 63/55/7 72/64/7 73/65/7 64/56/7
f 64/56/8 73/65/8 74/66/8 65/57/8
f 65/57/9 74/66/9 75/67/9 66/58/9
f 66/58/10 75/67/10 76/13/10 67/11/10
f 17/59/2 18/68/2 77/69/2 68/60/2
f 68/60/3 77/69/3 78/70/3 69/61/3
f 69/61/4 78/70/4 79/71/4 70/62/4
f 70/62/5 79/71/5 80/72/5 71/63/5
f 71/63/6 80/72/6 81/73/6 72/64/6
f 72/64/7 81/73/7 82/74/7 73/65/7
f 73/65/8 82/74/8 83/75/8 74/66/8
f 74/66/9 83/75/9 84/76/9 75/67/9
f 75/67/10 84/76/10 85/15/10 76/13/10
f 18/68/2 19/77/2 86/78/2 77/69/2
f 77/69/3 86/78/3 87/79/3 78/70/3
f 78/70/4 87/79/4 88/80/4 79/71/4
f 79/71/5 88/80/5 89/81/5 80/72/5
f 80/72/6 89/81/6 90/82/6 81/73/6
f 81/73/7 90/82/7 91/83/7 82/74/7
f 82/74/8 91/83/8 92/84/8 83/75/8
f 83/75/9 92/84/9 93/85/9 84/76/9
f 84/76/10 93/85/10 94/17/10 85/15/10
f 19/77/2 20/86/2 95/87/2 86/78/2
f 86/78/3 95/87/3 96/88/3 87/79/3
f 87/79/4 96/88/4 97/89/4 88/80/4
f 88/80/5 97/89/5 98/90/5 89/81/5
f 89/81/6 98/90/6 99/91/6 90/82/6
f 90/82/7 99/91/7 100/92/7 91/83/7
f 91/83/8 100/92/8 101/93/8 92/84/8
f 92/84/9 101/93/9 102/94/9 93/85/9
f 93/85/10 102/94/10 103/19/10 94/17/10
f 20/86/2 21/95/2 104/96/2 95/87/2
f 95/87/3 104/96/3 105/97/3 96/88/3
f 96/88/4 105/97/4 106/98/4 97/89/4
f 97/89/5 106/98/5 107/99/5 98/90/5
f 98/90/6 107/99/6 108/100/6 99/91/6
f 99/91/7 108/100/7 109/101/7 100/92/7
f 100/92/8 109/101/8 110/102/8 101/93/8
f 101/93/9 110/102/9 111/103/9 102/94/9
f 102/94/10 111/103/10 112/21/10 103/19/10
f 21/95/2 22/104/2 113/105/2 104/96/2
f 104/96/3 113/105/3 114/106/3 105/97/3
f 105/97/4 114/106/4 115/107/4 106/98/4
f 106/98/5 115/107/5 116/108/5 107/99/5
f 107/99/6 116/108/6 117/109/6 108/100/6
f 108/100/7 117/109/7 118/110/7 109/101/7
f 109/101/8 118/110/8 119/111/8 110/102/8
f 110/102/9 119/111/9 120/112/9 111/103/9
f 111/103/10 120/112/10 121/1/10 112/21/10
f 22/104/2 2/113/2 23/114/2 113/105/2
f 113/105/3 23/114/3 24/115/3 114/106/3
f 114/106/4 24/115/4 25/116/4 115/107/4
f 115/107/5 25/116/5 26/117/5 116/108/5
f 116/108/6 26/117/6 27/118/6 117/109/6
f 117/109/7 27/118/7 28/119/7 118/110/7
f 118/110/8 28/119/8 29/120/8 119/111/8
f 119/111/9 29/120/9 30/121/9 120/112/9
f 120/112/10 30/121/10 31/2/10 121/1/10
