# Blender 5.1.2
# www.blender.org
mtllib sm_tornado_lelu.mtl
o Cylinder
v 0.000000 -1.000000 -1.482005
v -1.966407 7.937387 4.501518
v 0.383571 -1.000000 -1.431507
v -3.066855 7.937387 3.840892
v 0.741002 -1.000000 -1.283454
v -3.958437 7.937387 2.918009
v 1.047936 -1.000000 -1.047936
v -4.580383 7.937387 1.795716
v 1.283454 -1.000000 -0.741002
v -4.890298 7.937387 0.550447
v 1.431507 -1.000000 -0.383571
v -4.867055 7.937387 -0.732974
v 1.482005 -1.000000 -0.000000
v -4.512234 7.937387 -1.967106
v 1.431507 -1.000000 0.383571
v -3.850016 7.937387 -3.067837
v 1.283454 -1.000000 0.741002
v -2.925536 7.937387 -3.960127
v 1.047936 -1.000000 1.047936
v -1.801804 7.937387 -4.583121
v 0.741002 -1.000000 1.283454
v -0.555411 7.937387 -4.894316
v 0.383571 -1.000000 1.431507
v 0.728694 7.937387 -4.872464
v 0.000000 -1.000000 1.482005
v 1.963000 7.937387 -4.519037
v -0.383571 -1.000000 1.431507
v 3.063391 7.937387 -3.858125
v -0.741002 -1.000000 1.283454
v 3.954883 7.937387 -2.934799
v -1.047936 -1.000000 1.047936
v 4.576733 7.937387 -1.812023
v -1.283454 -1.000000 0.741002
v 4.886569 7.937387 -0.566363
v -1.431507 -1.000000 0.383571
v 4.863286 7.937387 0.717254
v -1.482005 -1.000000 -0.000000
v 4.508476 7.937387 1.951333
v -1.431507 -1.000000 -0.383571
v 3.846315 7.937387 3.051778
v -1.283454 -1.000000 -0.741002
v 2.921925 7.937387 3.943624
v -1.047936 -1.000000 -1.047936
v 1.798290 7.937387 4.566137
v -0.741002 -1.000000 -1.283454
v 0.551976 7.937387 4.876940
v -0.383571 -1.000000 -1.431507
v -0.732090 7.937387 4.854892
v 0.000000 -1.000000 -1.482005
v 0.000278 -0.426360 -1.161188
v 0.083854 0.117174 -1.277017
v 0.288395 0.675760 -1.445941
v 0.528480 1.234347 -1.634313
v 0.608943 1.792934 -1.887107
v 0.415805 2.351521 -2.189389
v -0.148257 2.910107 -2.453892
v -1.019061 3.468694 -2.435800
v -2.022231 4.027281 -1.948066
v -2.765661 4.585850 -1.066303
v -3.157544 5.097193 0.060002
v -3.210777 5.554454 1.177187
v -3.004908 6.012369 2.176355
v -2.632324 6.525672 3.046836
v -3.265364 6.525673 2.304324
v -3.395251 6.012369 1.392534
v -3.368313 5.554455 0.438217
v -3.130344 5.097194 -0.558139
v -2.602100 4.585850 -1.570936
v -1.764750 4.027281 -2.358967
v -0.732113 3.468695 -2.731566
v 0.225180 2.910108 -2.654352
v 0.819773 2.351521 -2.284502
v 1.010074 1.792934 -1.896049
v 0.915329 1.234347 -1.593047
v 0.648671 0.675760 -1.398510
v 0.410311 0.117174 -1.234038
v 0.300802 -0.426360 -1.121623
v 0.383571 -1.000000 -1.431507
v -3.686104 6.525673 1.389619
v -3.562161 6.012369 0.487090
v -3.316824 5.554455 -0.369243
v -2.925931 5.097194 -1.201713
v -2.298184 4.585850 -2.038654
v -1.363871 4.027281 -2.713593
v -0.332291 3.468695 -2.948594
v 0.619031 2.910108 -2.760289
v 1.220658 2.351521 -2.283530
v 1.399268 1.792934 -1.805475
v 1.279280 1.234347 -1.453965
v 0.984395 0.675760 -1.259448
v 0.714521 0.117174 -1.108030
v 0.580846 -0.426360 -1.005625
v 0.741002 -1.000000 -1.283454
v -3.839393 6.525673 0.369672
v -3.466453 6.012369 -0.402265
v -3.045259 5.554455 -1.116921
v -2.526580 5.097194 -1.810843
v -1.858192 4.585850 -2.446819
v -0.909036 4.027281 -2.944317
v 0.175457 3.468695 -3.052401
v 1.070856 2.910108 -2.744874
v 1.626614 2.351521 -2.168121
v 1.760406 1.792934 -1.612148
v 1.596918 1.234347 -1.224484
v 1.272688 0.675760 -1.038234
v 0.975752 0.117174 -0.907581
v 0.821325 -0.426360 -0.821099
v 1.047936 -1.000000 -1.047936
v -3.694406 6.525673 -0.667529
v -3.121730 6.012369 -1.236561
v -2.573154 5.554455 -1.763233
v -1.989589 5.097194 -2.268793
v -1.271789 4.585850 -2.749906
v -0.367376 4.027281 -3.066321
v 0.652425 3.468695 -3.032847
v 1.527889 2.910108 -2.601418
v 2.012657 2.351521 -1.930345
v 2.067060 1.792934 -1.323164
v 1.845247 1.234347 -0.920400
v 1.493902 0.675760 -0.749941
v 1.176201 0.117174 -0.646351
v 1.005851 -0.426360 -0.580620
v 1.283454 -1.000000 -0.741002
v -3.254816 6.525673 -1.622356
v -2.530496 6.012369 -1.968558
v -1.907129 5.554455 -2.276296
v -1.325115 5.097194 -2.572794
v -0.630582 4.585850 -2.877950
v 0.249218 4.027281 -3.039694
v 1.157739 3.468695 -2.877392
v 1.923213 2.910108 -2.355762
v 2.313300 2.351521 -1.618180
v 2.287150 1.792934 -0.970075
v 2.007195 1.234347 -0.561806
v 1.632964 0.675760 -0.414217
v 1.302208 0.117174 -0.342141
v 1.121849 -0.426360 -0.300576
v 1.431507 -1.000000 -0.383571
v -2.560872 6.525673 -2.404267
v -1.728969 6.012369 -2.504467
v -1.095991 5.554455 -2.578177
v -0.564877 5.097194 -2.684144
v 0.041804 4.585850 -2.825748
v 0.830532 4.027281 -2.848524
v 1.662325 3.468695 -2.559506
v 2.283758 2.910108 -1.969949
v 2.541728 2.351521 -1.203473
v 2.413636 1.792934 -0.554696
v 2.071645 1.234347 -0.169055
v 1.680395 0.675760 -0.053941
v 1.345188 0.117174 -0.015684
v 1.161414 -0.426360 -0.000052
v 1.482005 -1.000000 -0.000000
v -1.669240 6.525673 -2.951968
v -0.792973 6.012369 -2.768941
v -0.221906 5.554455 -2.614404
v 0.215624 5.097194 -2.562486
v 0.713578 4.585850 -2.578292
v 1.363330 4.027281 -2.497105
v 2.036269 3.468695 -2.144397
v 2.530727 2.910108 -1.503018
v 2.659699 2.351521 -0.725487
v 2.428681 1.792934 -0.106665
v 2.031668 1.234347 0.231417
v 1.632964 0.675760 0.306335
v 1.302208 0.117174 0.310773
v 1.121849 -0.426360 0.300472
v 1.431507 -1.000000 0.383571
v -0.681008 6.525673 -3.211080
v 0.174383 6.012369 -2.723827
v 0.614059 5.554455 -2.369746
v 0.925369 5.097194 -2.202566
v 1.304391 4.585850 -2.134176
v 1.804209 4.027281 -1.986778
v 2.311357 3.468695 -1.604782
v 2.649460 2.910108 -0.972453
v 2.646945 2.351521 -0.236708
v 2.326393 1.792934 0.324351
v 1.888969 1.234347 0.607152
v 1.493902 0.675760 0.642059
v 1.176201 0.117174 0.614983
v 1.005851 -0.426360 0.580516
v 1.283454 -1.000000 0.741002
v 0.317872 6.525673 -3.180119
v 1.063655 6.012369 -2.377183
v 1.313313 5.554455 -1.873437
v 1.477654 5.097194 -1.639511
v 1.733131 4.585850 -1.526577
v 2.092588 4.027281 -1.345949
v 2.446978 3.468695 -0.966739
v 2.631361 2.910108 -0.383192
v 2.503573 2.351521 0.263600
v 2.110203 1.792934 0.727413
v 1.652418 1.234347 0.934480
v 1.272688 0.675760 0.930351
v 0.975752 0.117174 0.876213
v 0.821325 -0.426360 0.820995
v 1.047936 -1.000000 1.047936
v 1.245287 6.525673 -2.881896
v 1.732132 6.012369 -1.827619
v 1.800369 5.554455 -1.191935
v 1.809530 5.097194 -0.941796
v 1.942054 4.585850 -0.819062
v 2.176105 4.027281 -0.650156
v 2.394331 3.468695 -0.333475
v 2.453671 2.910108 0.167068
v 2.229658 2.351521 0.710796
v 1.790074 1.792934 1.066060
v 1.337270 1.234347 1.190110
v 0.984395 0.675760 1.151566
v 0.714521 0.117174 1.076662
v 0.580846 -0.426360 1.005521
v 0.741002 -1.000000 1.283454
v 2.036640 6.525673 -2.360595
v 2.201622 6.012369 -1.142328
v 2.026511 5.554455 -0.457116
v 1.893667 5.097194 -0.195047
v 1.913594 4.585850 -0.098292
v 2.045311 4.027281 0.029620
v 2.161684 3.468695 0.270140
v 2.124425 2.910108 0.656255
v 1.843911 2.351521 1.063705
v 1.394552 1.792934 1.301062
v 0.965904 1.234347 1.354196
v 0.648671 0.675760 1.290627
v 0.410311 0.117174 1.202670
v 0.300802 -0.426360 1.121519
v 0.383571 -1.000000 1.431507
v 2.648309 6.525673 -1.672063
v 2.464995 6.012369 -0.388100
v 2.036421 5.554455 0.268576
v 1.744654 5.097194 0.499421
v 1.663647 4.585850 0.552491
v 1.713375 4.027281 0.627352
v 1.758393 3.468695 0.776924
v 1.669054 2.910108 1.038514
v 1.371241 2.351521 1.300834
v 0.949200 1.792934 1.420930
v 0.565569 1.234347 1.414290
v 0.288395 0.675760 1.338059
v 0.083854 0.117174 1.245649
v 0.000278 -0.426360 1.161084
v 0.000000 -1.000000 1.482005
v 3.056745 6.525673 -0.875201
v 2.532693 6.012369 0.376283
v 1.867496 5.554455 0.943991
v 1.426876 5.097194 1.073336
v 1.237734 4.585850 1.069776
v 1.222615 4.027281 1.067484
v 1.232608 3.468695 1.123363
v 1.130669 2.910108 1.261656
v 0.854500 2.351521 1.388994
v 0.490286 1.792934 1.413103
v 0.165529 1.234347 1.366558
v -0.071881 0.675760 1.290627
v -0.242603 0.117174 1.202670
v -0.300246 -0.426360 1.121519
v -0.383571 -1.000000 1.431507
v 3.254886 6.525673 -0.025942
v 2.442332 6.012369 1.072394
v 1.582264 5.554455 1.509924
v 0.989333 5.097194 1.527457
v 0.715700 4.585850 1.406785
v 0.647948 4.027281 1.305327
v 0.647213 3.468695 1.271797
v 0.568719 2.910108 1.298611
v 0.345570 2.351521 1.315563
v 0.057127 1.792934 1.277671
v -0.205809 1.234347 1.215650
v -0.407605 0.675760 1.151566
v -0.546812 0.117174 1.076662
v -0.580290 -0.426360 1.005521
v -0.741002 -1.000000 1.283454
v 3.247625 6.525673 0.825941
v 2.234398 6.012369 1.694328
v 1.227260 5.554455 1.974542
v 0.506813 5.097194 1.843328
v 0.158456 4.585850 1.576598
v 0.050559 4.027281 1.344611
v 0.070291 3.468695 1.214444
v 0.045732 2.910108 1.150277
v -0.104047 2.351521 1.092251
v -0.314870 1.792934 1.028193
v -0.523133 1.234347 0.973534
v -0.695897 0.675760 0.930351
v -0.808043 0.117174 0.876213
v -0.820769 -0.426360 0.820995
v -1.047936 -1.000000 1.047936
v 3.047659 6.525673 1.637655
v 1.911751 6.012369 2.257153
v 0.807871 5.554455 2.355326
v 0.007222 5.097194 2.047634
v -0.410293 4.585850 1.594942
v -0.492321 4.027281 1.208136
v -0.428389 3.468695 0.968321
v -0.385008 2.910108 0.840685
v -0.454343 2.351521 0.748220
v -0.597369 1.792934 0.689036
v -0.765628 1.234347 0.657915
v -0.917112 0.675760 0.642059
v -1.008492 0.117174 0.614983
v -1.005295 -0.426360 0.580516
v -1.283454 -1.000000 0.741002
v 2.672430 6.525673 2.372661
v 1.477719 6.012369 2.744376
v 0.334363 5.554455 2.646294
v -0.504266 5.097194 2.153434
v -0.925430 4.585850 1.503444
v -0.968039 4.027281 0.931754
v -0.809967 3.468695 0.591352
v -0.679809 2.910108 0.420538
v -0.678152 2.351521 0.327073
v -0.774083 1.792934 0.290543
v -0.917759 1.234347 0.290658
v -1.056173 0.675760 0.306335
v -1.134500 0.117174 0.310773
v -1.121293 -0.426360 0.300472
v -1.431507 -1.000000 0.383571
v 2.142412 6.525673 2.999179
v 0.934074 6.012369 3.134538
v -0.187787 5.554455 2.837374
v -1.014145 5.097194 2.162877
v -1.398689 4.585850 1.322776
v -1.345891 4.027281 0.585035
v -1.071380 3.468695 0.145810
v -0.841036 2.910108 -0.047124
v -0.776808 2.351521 -0.124823
v -0.839090 1.792934 -0.135183
v -0.969644 1.234347 -0.103437
v -1.103605 0.675760 -0.053941
v -1.177479 0.117174 -0.015684
v -1.160858 -0.426360 -0.000052
v -1.482005 -1.000000 -0.000000
v 1.480730 6.525673 3.488560
v 0.286116 6.012369 3.398832
v -0.753407 5.554455 2.912117
v -1.511787 5.097194 2.073749
v -1.818809 4.585850 1.068517
v -1.653653 4.027281 0.186040
v -1.242462 3.468695 -0.322391
v -0.899782 2.910108 -0.519789
v -0.767736 2.351521 -0.574252
v -0.795708 1.792934 -0.558596
v -0.917818 1.234347 -0.497422
v -1.056173 0.675760 -0.414217
v -1.134500 0.117174 -0.342141
v -1.121293 -0.426360 -0.300576
v -1.431507 -1.000000 -0.383571
v 0.714014 6.525673 3.814093
v -0.448834 6.012369 3.501648
v -1.351272 5.554455 2.847778
v -1.985629 5.097194 1.878927
v -2.181414 4.585850 0.753302
v -1.892412 4.027281 -0.227005
v -1.347432 3.468695 -0.780761
v -0.883781 2.910108 -0.980866
v -0.668176 2.351521 -1.000347
v -0.654233 1.792934 -0.953406
v -0.766438 1.234347 -0.864062
v -0.917112 0.675760 -0.749941
v -1.008492 0.117174 -0.646351
v -1.005295 -0.426360 -0.580620
v -1.283454 -1.000000 -0.741002
v -0.125689 6.525673 3.950757
v -1.128860 6.012369 3.443129
v -1.957146 5.554455 2.618927
v -2.418730 5.097194 1.568179
v -2.479306 4.585850 0.385494
v -2.059948 4.027281 -0.652491
v -1.394604 3.468695 -1.229670
v -0.802401 2.910108 -1.417411
v -0.489801 2.351521 -1.388281
v -0.427442 1.792934 -1.299436
v -0.526946 1.234347 -1.178658
v -0.695897 0.675760 -1.038234
v -0.808043 0.117174 -0.907581
v -0.820769 -0.426360 -0.821099
v -1.047936 -1.000000 -1.047936
v -0.998421 6.525673 3.876606
v -1.811235 6.012369 3.210543
v -2.466956 5.554455 2.273836
v -2.784709 5.097194 1.132914
v -2.692251 4.585850 -0.040112
v -2.144858 4.027281 -1.090563
v -1.369442 3.468695 -1.660630
v -0.658501 2.910108 -1.817180
v -0.244711 2.351521 -1.724844
v -0.130405 1.792934 -1.579423
v -0.216671 1.234347 -1.420858
v -0.407605 0.675760 -1.259448
v -0.546812 0.117174 -1.108030
v -0.580290 -0.426360 -1.005625
v -0.741002 -1.000000 -1.283454
v -1.854121 6.525673 3.576303
v -2.455086 6.012369 2.789047
v -2.893044 5.554455 1.797012
v -3.038105 5.097194 0.613921
v -2.797715 4.585850 -0.526705
v -2.140895 4.027281 -1.520084
v -1.249302 3.468695 -2.068526
v -0.444794 2.910108 -2.168122
v 0.058728 2.351521 -1.997056
v 0.220652 1.792934 -1.779262
v 0.143007 1.234347 -1.575772
v -0.071881 0.675760 -1.398510
v -0.242603 0.117174 -1.234038
v -0.300246 -0.426360 -1.121623
v -0.383571 -1.000000 -1.431507
v 0.000000 -0.754663 -1.316886
v 0.000000 -0.576842 -1.209679
v 0.313088 -0.576842 -1.168461
v 0.340835 -0.754663 -1.272015
v 0.604840 -0.576842 -1.047613
v 0.658443 -0.754663 -1.140457
v 0.855373 -0.576842 -0.855373
v 0.931179 -0.754663 -0.931179
v 1.047613 -0.576842 -0.604840
v 1.140457 -0.754663 -0.658443
v 1.168461 -0.576842 -0.313088
v 1.272015 -0.754663 -0.340835
v 1.209680 -0.576842 -0.000000
v 1.316886 -0.754663 -0.000000
v 1.168461 -0.576842 0.313088
v 1.272015 -0.754663 0.340835
v 1.047613 -0.576842 0.604840
v 1.140457 -0.754663 0.658443
v 0.855373 -0.576842 0.855373
v 0.931179 -0.754663 0.931179
v 0.604840 -0.576842 1.047613
v 0.658443 -0.754663 1.140457
v 0.313088 -0.576842 1.168461
v 0.340835 -0.754663 1.272015
v 0.000000 -0.576842 1.209680
v 0.000000 -0.754663 1.316886
v -0.313088 -0.576842 1.168461
v -0.340835 -0.754663 1.272015
v -0.604840 -0.576842 1.047613
v -0.658443 -0.754663 1.140457
v -0.855373 -0.576842 0.855373
v -0.931179 -0.754663 0.931179
v -1.047613 -0.576842 0.604840
v -1.140457 -0.754663 0.658443
v -1.168461 -0.576842 0.313088
v -1.272015 -0.754663 0.340835
v -1.209680 -0.576842 -0.000000
v -1.316886 -0.754663 -0.000000
v -1.168461 -0.576842 -0.313088
v -1.272015 -0.754663 -0.340835
v -1.047613 -0.576842 -0.604840
v -1.140457 -0.754663 -0.658443
v -0.855373 -0.576842 -0.855373
v -0.931179 -0.754663 -0.931179
v -0.604840 -0.576842 -1.047613
v -0.658443 -0.754663 -1.140457
v -0.313088 -0.576842 -1.168461
v -0.340835 -0.754663 -1.272015
vn -0.0000 1.0000 -0.0000
vn -0.4000 -0.5370 0.7427
vn -0.5823 -0.5406 0.6073
vn -0.7150 -0.5570 0.4225
vn -0.7851 -0.5833 0.2081
vn -0.7880 -0.6156 -0.0130
vn -0.7276 -0.6501 -0.2190
vn -0.6150 -0.6840 -0.3924
vn -0.4656 -0.7147 -0.5220
vn -0.2961 -0.7413 -0.6024
vn -0.1213 -0.7629 -0.6351
vn 0.0471 -0.7793 -0.6248
vn 0.2013 -0.7906 -0.5783
vn 0.3365 -0.7968 -0.5019
vn 0.4501 -0.7978 -0.4012
vn 0.5402 -0.7935 -0.2803
vn 0.6047 -0.7836 -0.1422
vn 0.6407 -0.7677 0.0102
vn 0.6438 -0.7453 0.1734
vn 0.6083 -0.7164 0.3415
vn 0.5291 -0.6818 0.5051
vn 0.4034 -0.6435 0.6506
vn 0.2338 -0.6051 0.7611
vn 0.0308 -0.5715 0.8200
vn -0.1880 -0.5476 0.8153
vn -0.0000 0.8893 -0.4573
vn -0.0063 0.0529 -0.9986
vn -0.0084 -0.2460 -0.9692
vn -0.0093 -0.3001 -0.9539
vn -0.0380 -0.3647 -0.9303
vn -0.1381 -0.4702 -0.8717
vn -0.2808 -0.6009 -0.7484
vn -0.4168 -0.6993 -0.5807
vn -0.5363 -0.7250 -0.4321
vn -0.6799 -0.6659 -0.3071
vn -0.7983 -0.5863 -0.1373
vn -0.8337 -0.5475 0.0718
vn -0.7887 -0.5426 0.2890
vn -0.7017 -0.5217 0.4852
vn -0.5364 -0.5272 0.6590
vn -0.6965 -0.5196 0.4949
vn -0.8339 -0.4713 0.2872
vn -0.8997 -0.4301 0.0741
vn -0.9068 -0.3908 -0.1579
vn -0.8279 -0.4079 -0.3849
vn -0.6568 -0.5219 -0.5443
vn -0.4537 -0.6351 -0.6251
vn -0.2661 -0.6714 -0.6917
vn -0.0878 -0.6243 -0.7762
vn 0.0790 -0.5388 -0.8387
vn 0.1918 -0.4586 -0.8677
vn 0.2295 -0.3899 -0.8918
vn 0.2393 -0.3049 -0.9218
vn 0.2531 0.0338 -0.9669
vn 0.1184 0.8893 -0.4417
vn -0.8018 -0.5248 0.2856
vn -0.9013 -0.4308 0.0455
vn -0.9318 -0.3115 -0.1862
vn -0.8842 -0.2059 -0.4193
vn -0.7509 -0.1969 -0.6304
vn -0.5432 -0.3294 -0.7723
vn -0.2997 -0.4919 -0.8174
vn -0.0811 -0.5978 -0.7976
vn 0.1149 -0.6163 -0.7791
vn 0.2815 -0.5786 -0.7655
vn 0.3920 -0.5255 -0.7551
vn 0.4369 -0.4604 -0.7727
vn 0.4624 -0.3541 -0.8129
vn 0.4957 0.0171 -0.8683
vn 0.2287 0.8893 -0.3960
vn -0.8390 -0.5417 0.0516
vn -0.8896 -0.4038 -0.2133
vn -0.8684 -0.2025 -0.4527
vn -0.7539 -0.0279 -0.6564
vn -0.5736 0.0096 -0.8190
vn -0.3402 -0.1124 -0.9336
vn -0.0845 -0.3191 -0.9440
vn 0.1479 -0.4913 -0.8583
vn 0.3296 -0.5784 -0.7461
vn 0.4668 -0.5907 -0.6581
vn 0.5568 -0.5663 -0.6078
vn 0.6034 -0.5103 -0.6128
vn 0.6477 -0.3912 -0.6537
vn 0.7046 0.0039 -0.7096
vn 0.3234 0.8893 -0.3234
vn -0.8006 -0.5710 -0.1817
vn -0.7949 -0.3984 -0.4577
vn -0.7166 -0.1222 -0.6867
vn -0.5389 0.1180 -0.8341
vn -0.3281 0.1946 -0.9244
vn -0.0934 0.0845 -0.9920
vn 0.1647 -0.1303 -0.9777
vn 0.3858 -0.3650 -0.8473
vn 0.5324 -0.5228 -0.6658
vn 0.6243 -0.5830 -0.5199
vn 0.6837 -0.5851 -0.4361
vn 0.7260 -0.5404 -0.4253
vn 0.7866 -0.4153 -0.4569
vn 0.8650 -0.0050 -0.5018
vn 0.3961 0.8893 -0.2287
vn -0.6934 -0.6068 -0.3886
vn -0.6231 -0.4138 -0.6637
vn -0.4906 -0.0855 -0.8672
vn -0.2799 0.2079 -0.9373
vn -0.0606 0.3279 -0.9428
vn 0.1674 0.2609 -0.9507
vn 0.4134 0.0532 -0.9090
vn 0.6150 -0.2220 -0.7567
vn 0.7188 -0.4436 -0.5352
vn 0.7541 -0.5553 -0.3508
vn 0.7737 -0.5845 -0.2445
vn 0.8043 -0.5522 -0.2197
vn 0.8738 -0.4259 -0.2347
vn 0.9658 -0.0091 -0.2593
vn 0.4417 0.8893 -0.1184
vn -0.5330 -0.6429 -0.5500
vn -0.3878 -0.4438 -0.8079
vn -0.2062 -0.0873 -0.9746
vn 0.0041 0.2459 -0.9693
vn 0.1946 0.4025 -0.8945
vn 0.3982 0.3801 -0.8348
vn 0.6243 0.2098 -0.7525
vn 0.8102 -0.0698 -0.5820
vn 0.8718 -0.3454 -0.3475
vn 0.8475 -0.5091 -0.1502
vn 0.8239 -0.5656 -0.0367
vn 0.8375 -0.5464 -0.0029
vn 0.9061 -0.4232 0.0013
vn 1.0000 -0.0080 0.0012
vn 0.4573 0.8893 -0.0000
vn -0.3384 -0.6780 -0.6525
vn -0.1146 -0.4870 -0.8659
vn 0.1098 -0.1228 -0.9863
vn 0.2977 0.2420 -0.9235
vn 0.4339 0.4299 -0.7918
vn 0.5888 0.4443 -0.6752
vn 0.7763 0.3208 -0.5426
vn 0.9340 0.0636 -0.3517
vn 0.9653 -0.2351 -0.1133
vn 0.8929 -0.4433 0.0787
vn 0.8288 -0.5283 0.1841
vn 0.8236 -0.5232 0.2188
vn 0.8815 -0.4070 0.2395
vn 0.9652 -0.0019 0.2615
vn 0.4417 0.8893 0.1184
vn -0.1315 -0.7103 -0.6915
vn 0.1582 -0.5407 -0.8262
vn 0.4177 -0.1892 -0.8886
vn 0.5785 0.2030 -0.7900
vn 0.6536 0.4211 -0.6289
vn 0.7464 0.4630 -0.4780
vn 0.8704 0.3814 -0.3113
vn 0.9817 0.1619 -0.1001
vn 0.9810 -0.1364 0.1379
vn 0.8751 -0.3666 0.3160
vn 0.7816 -0.4726 0.4071
vn 0.7592 -0.4819 0.4374
vn 0.7995 -0.3774 0.4673
vn 0.8639 0.0088 0.5036
vn 0.3961 0.8893 0.2287
vn 0.0652 -0.7393 -0.6703
vn 0.3875 -0.6007 -0.6993
vn 0.6700 -0.2800 -0.6875
vn 0.8137 0.1266 -0.5674
vn 0.8346 0.3769 -0.4018
vn 0.8607 0.4485 -0.2409
vn 0.9139 0.4012 -0.0613
vn 0.9610 0.2255 0.1600
vn 0.9189 -0.0466 0.3917
vn 0.7878 -0.2807 0.5483
vn 0.6761 -0.3997 0.6190
vn 0.6411 -0.4218 0.6411
vn 0.6615 -0.3351 0.6709
vn 0.7032 0.0236 0.7106
vn 0.3234 0.8893 0.3234
vn 0.2341 -0.7649 -0.6000
vn 0.5429 -0.6594 -0.5200
vn 0.8215 -0.3858 -0.4198
vn 0.9619 0.0100 -0.2731
vn 0.9482 0.2951 -0.1179
vn 0.9147 0.4029 0.0327
vn 0.8972 0.3917 0.2037
vn 0.8711 0.2634 0.4145
vn 0.7797 0.0315 0.6254
vn 0.6276 -0.1863 0.7559
vn 0.5090 -0.3091 0.8033
vn 0.4690 -0.3433 0.8137
vn 0.4729 -0.2816 0.8349
vn 0.4943 0.0415 0.8683
vn 0.2287 0.8893 0.3960
vn 0.3668 -0.7864 -0.4971
vn 0.6203 -0.7132 -0.3266
vn 0.8559 -0.4956 -0.1479
vn 0.9893 -0.1374 0.0493
vn 0.9646 0.1741 0.1979
vn 0.8907 0.3186 0.3242
vn 0.8162 0.3423 0.4655
vn 0.7206 0.2651 0.6407
vn 0.5779 0.0852 0.8117
vn 0.4072 -0.0952 0.9083
vn 0.2886 -0.2054 0.9352
vn 0.2493 -0.2494 0.9357
vn 0.2441 -0.2197 0.9445
vn 0.2521 0.0612 0.9658
vn 0.1184 0.8893 0.4417
vn 0.4652 -0.8012 -0.3765
vn 0.6343 -0.7593 -0.1453
vn 0.7974 -0.5975 0.0844
vn 0.8953 -0.2971 0.3318
vn 0.8645 0.0186 0.5023
vn 0.7671 0.1959 0.6109
vn 0.6541 0.2584 0.7109
vn 0.5090 0.2316 0.8290
vn 0.3257 0.1126 0.9387
vn 0.1446 -0.0118 0.9894
vn 0.0325 -0.0966 0.9948
vn -0.0018 -0.1466 0.9892
vn -0.0087 -0.1542 0.9880
vn -0.0064 0.0814 0.9967
vn -0.0000 0.8893 0.4573
vn 0.5326 -0.8093 -0.2477
vn 0.6074 -0.7944 0.0066
vn 0.6826 -0.6861 0.2517
vn 0.7213 -0.4498 0.5267
vn 0.6575 -0.1604 0.7362
vn 0.5374 0.0378 0.8425
vn 0.4017 0.1426 0.9046
vn 0.2307 0.1710 0.9579
vn 0.0318 0.1223 0.9920
vn -0.1387 0.0622 0.9884
vn -0.2335 0.0087 0.9723
vn -0.2605 -0.0446 0.9644
vn -0.2655 -0.0905 0.9599
vn -0.2631 0.1007 0.9595
vn -0.1184 0.8893 0.4417
vn 0.5734 -0.8110 -0.1163
vn 0.5618 -0.8175 0.1265
vn 0.5531 -0.7550 0.3521
vn 0.5182 -0.5839 0.6249
vn 0.3985 -0.3426 0.8508
vn 0.2354 -0.1433 0.9613
vn 0.0784 -0.0021 0.9969
vn -0.0943 0.0850 0.9919
vn -0.2762 0.1170 0.9540
vn -0.4122 0.1228 0.9028
vn -0.4811 0.1011 0.8708
vn -0.5010 0.0464 0.8642
vn -0.5055 -0.0341 0.8622
vn -0.5008 0.1176 0.8575
vn -0.2287 0.8893 0.3960
vn 0.5936 -0.8045 0.0192
vn 0.5119 -0.8281 0.2286
vn 0.4343 -0.8022 0.4098
vn 0.3303 -0.6888 0.6454
vn 0.1460 -0.5054 0.8504
vn -0.0744 -0.3258 0.9425
vn -0.2606 -0.1631 0.9516
vn -0.4226 -0.0155 0.9062
vn -0.5617 0.0997 0.8213
vn -0.6482 0.1664 0.7431
vn -0.6878 0.1734 0.7049
vn -0.7031 0.1182 0.7012
vn -0.7105 0.0104 0.7036
vn -0.7036 0.1311 0.6984
vn -0.3234 0.8893 0.3234
vn 0.5918 -0.7897 0.1618
vn 0.4561 -0.8275 0.3274
vn 0.3288 -0.8300 0.4506
vn 0.1753 -0.7624 0.6229
vn -0.0559 -0.6347 0.7707
vn -0.3171 -0.4856 0.8147
vn -0.5365 -0.3178 0.7817
vn -0.6944 -0.1158 0.7102
vn -0.7896 0.0737 0.6092
vn -0.8270 0.1907 0.5288
vn -0.8411 0.2207 0.4938
vn -0.8544 0.1659 0.4924
vn -0.8667 0.0403 0.4972
vn -0.8586 0.1401 0.4932
vn -0.3961 0.8893 0.2287
vn 0.5615 -0.7674 0.3094
vn 0.3869 -0.8174 0.4267
vn 0.2291 -0.8421 0.4883
vn 0.0519 -0.8089 0.5856
vn -0.1912 -0.7254 0.6612
vn -0.4604 -0.6130 0.6421
vn -0.6939 -0.4506 0.5617
vn -0.8617 -0.2105 0.4618
vn -0.9335 0.0372 0.3567
vn -0.9390 0.1927 0.2848
vn -0.9365 0.2402 0.2556
vn -0.9489 0.1873 0.2541
vn -0.9647 0.0538 0.2578
vn -0.9560 0.1442 0.2556
vn -0.4417 0.8893 0.1184
vn 0.4965 -0.7381 0.4568
vn 0.2955 -0.7979 0.5254
vn 0.1249 -0.8407 0.5268
vn -0.0557 -0.8330 0.5505
vn -0.2809 -0.7829 0.5551
vn -0.5213 -0.7034 0.4832
vn -0.7436 -0.5608 0.3642
vn -0.9232 -0.3057 0.2328
vn -0.9938 -0.0183 0.1100
vn -0.9853 0.1672 0.0337
vn -0.9732 0.2300 0.0045
vn -0.9834 0.1817 0.0005
vn -0.9987 0.0503 0.0015
vn -0.9897 0.1432 0.0012
vn -0.4573 0.8893 -0.0000
vn 0.3914 -0.7028 0.5940
vn 0.1736 -0.7688 0.6155
vn 0.0050 -0.8264 0.5631
vn -0.1603 -0.8395 0.5192
vn -0.3479 -0.8145 0.4643
vn -0.5367 -0.7638 0.3587
vn -0.7278 -0.6500 0.2186
vn -0.9113 -0.4083 0.0527
vn -0.9887 -0.1026 -0.1093
vn -0.9717 0.1089 -0.2094
vn -0.9505 0.1882 -0.2471
vn -0.9555 0.1492 -0.2547
vn -0.9664 0.0299 -0.2551
vn -0.9575 0.1370 -0.2537
vn -0.4417 0.8893 -0.1184
vn 0.2470 -0.6640 0.7058
vn 0.0256 -0.7339 0.6788
vn -0.1354 -0.8017 0.5821
vn -0.2739 -0.8293 0.4870
vn -0.4104 -0.8259 0.3867
vn -0.5414 -0.7996 0.2599
vn -0.6886 -0.7172 0.1076
vn -0.8527 -0.5144 -0.0907
vn -0.9289 -0.2161 -0.3008
vn -0.9005 0.0156 -0.4347
vn -0.8668 0.1136 -0.4855
vn -0.8638 0.0907 -0.4957
vn -0.8688 -0.0063 -0.4951
vn -0.8612 0.1260 -0.4924
vn -0.3961 0.8893 -0.2287
vn 0.0722 -0.6252 0.7772
vn -0.1465 -0.6890 0.7098
vn -0.2903 -0.7659 0.5737
vn -0.4022 -0.8027 0.4403
vn -0.4909 -0.8149 0.3081
vn -0.5608 -0.8118 0.1625
vn -0.6503 -0.7597 0.0032
vn -0.7648 -0.6075 -0.2143
vn -0.8175 -0.3440 -0.4620
vn -0.7709 -0.1069 -0.6279
vn -0.7216 0.0088 -0.6923
vn -0.7102 0.0090 -0.7039
vn -0.7111 -0.0562 -0.7008
vn -0.7065 0.1110 -0.6989
vn -0.3234 0.8893 -0.3234
vn -0.1301 -0.5829 0.8021
vn -0.3326 -0.6384 0.6941
vn -0.4601 -0.7110 0.5317
vn -0.5468 -0.7532 0.3656
vn -0.5932 -0.7780 0.2070
vn -0.5969 -0.8008 0.0490
vn -0.6187 -0.7772 -0.1150
vn -0.6619 -0.6719 -0.3323
vn -0.6633 -0.4627 -0.5881
vn -0.5886 -0.2432 -0.7710
vn -0.5212 -0.1169 -0.8454
vn -0.5037 -0.0901 -0.8592
vn -0.5039 -0.1162 -0.8559
vn -0.5031 0.0930 -0.8592
vn -0.2287 0.8893 -0.3960
vn -0.3403 -0.5488 0.7635
vn -0.5258 -0.5798 0.6224
vn -0.6332 -0.6365 0.4403
vn -0.6976 -0.6720 0.2487
vn -0.7055 -0.7059 0.0621
vn -0.6466 -0.7557 -0.1040
vn -0.5865 -0.7652 -0.2655
vn -0.5479 -0.6993 -0.4591
vn -0.4798 -0.5510 -0.6828
vn -0.3694 -0.3707 -0.8521
vn -0.2841 -0.2473 -0.9264
vn -0.2619 -0.1969 -0.9448
vn -0.2630 -0.1813 -0.9476
vn -0.2644 0.0731 -0.9616
vn -0.1184 0.8893 -0.4417
vn -0.0000 0.5384 -0.8427
vn -0.0001 0.4179 -0.9085
vn 0.2351 0.4177 -0.8776
vn 0.2181 0.5384 -0.8140
vn 0.4543 0.4176 -0.7869
vn 0.4213 0.5384 -0.7298
vn 0.6425 0.4174 -0.6426
vn 0.5959 0.5384 -0.5959
vn 0.7870 0.4173 -0.4544
vn 0.7298 0.5384 -0.4213
vn 0.8778 0.4173 -0.2352
vn 0.8140 0.5384 -0.2181
vn 0.9088 0.4173 -0.0000
vn 0.8427 0.5384 -0.0000
vn 0.8778 0.4174 0.2352
vn 0.8140 0.5384 0.2181
vn 0.7869 0.4175 0.4544
vn 0.7298 0.5384 0.4213
vn 0.6425 0.4176 0.6425
vn 0.5959 0.5384 0.5959
vn 0.4542 0.4178 0.7868
vn 0.4213 0.5384 0.7298
vn 0.2351 0.4180 0.8775
vn 0.2181 0.5384 0.8140
vn -0.0001 0.4182 0.9084
vn -0.0000 0.5384 0.8427
vn -0.2351 0.4184 0.8773
vn -0.2181 0.5384 0.8140
vn -0.4541 0.4185 0.7865
vn -0.4213 0.5384 0.7298
vn -0.6422 0.4187 0.6421
vn -0.5959 0.5384 0.5959
vn -0.7864 0.4188 0.4540
vn -0.7298 0.5384 0.4213
vn -0.8771 0.4188 0.2350
vn -0.8140 0.5384 0.2181
vn -0.9081 0.4188 -0.0000
vn -0.8427 0.5384 -0.0000
vn -0.8772 0.4187 -0.2350
vn -0.8140 0.5384 -0.2181
vn -0.7865 0.4186 -0.4540
vn -0.7298 0.5384 -0.4213
vn -0.6423 0.4185 -0.6422
vn -0.5959 0.5384 -0.5959
vn -0.4542 0.4183 -0.7866
vn -0.4213 0.5384 -0.7298
vn -0.2352 0.4181 -0.8774
vn -0.2181 0.5384 -0.8140
vt 1.000000 0.875000
vt 1.000000 1.000000
vt 0.958333 1.000000
vt 0.958333 0.875000
vt 0.916667 1.000000
vt 0.916667 0.875000
vt 0.875000 1.000000
vt 0.875000 0.875000
vt 0.833333 1.000000
vt 0.833333 0.875000
vt 0.791667 1.000000
vt 0.791667 0.875000
vt 0.750000 1.000000
vt 0.750000 0.875000
vt 0.708333 1.000000
vt 0.708333 0.875000
vt 0.666667 1.000000
vt 0.666667 0.875000
vt 0.625000 1.000000
vt 0.625000 0.875000
vt 0.583333 1.000000
vt 0.583333 0.875000
vt 0.541666 1.000000
vt 0.541666 0.875000
vt 0.500000 1.000000
vt 0.500000 0.875000
vt 0.458333 1.000000
vt 0.458333 0.875000
vt 0.416666 1.000000
vt 0.416666 0.875000
vt 0.375000 1.000000
vt 0.375000 0.875000
vt 0.333333 1.000000
vt 0.333333 0.875000
vt 0.291667 1.000000
vt 0.291667 0.875000
vt 0.250000 1.000000
vt 0.250000 0.875000
vt 0.208333 1.000000
vt 0.208333 0.875000
vt 0.166666 1.000000
vt 0.166667 0.875000
vt 0.125000 1.000000
vt 0.125000 0.875000
vt 0.083333 1.000000
vt 0.083333 0.875000
vt 0.041666 1.000000
vt 0.041666 0.875000
vt -0.000000 1.000000
vt -0.000000 0.875000
vt 0.041666 0.000000
vt 0.041666 0.000000
vt -0.000000 0.000000
vt -0.000000 0.000000
vt 0.041666 0.042628
vt 0.041666 0.062500
vt -0.000000 0.062500
vt -0.000000 0.042628
vt 0.041666 0.125000
vt -0.000000 0.125000
vt 0.041666 0.187500
vt -0.000000 0.187500
vt 0.041666 0.250000
vt -0.000000 0.250000
vt 0.041666 0.312500
vt -0.000000 0.312500
vt 0.041666 0.375000
vt -0.000000 0.375000
vt 0.041666 0.437500
vt -0.000000 0.437500
vt 0.041666 0.500000
vt -0.000000 0.500000
vt 0.041666 0.562500
vt -0.000000 0.562500
vt 0.041666 0.625000
vt -0.000000 0.625000
vt 0.041666 0.687500
vt -0.000000 0.687500
vt 0.041666 0.750000
vt -0.000000 0.750000
vt 0.041666 0.812500
vt -0.000000 0.812500
vt 0.083333 0.000000
vt 0.083333 0.042628
vt 0.083333 0.062500
vt 0.083333 0.125000
vt 0.083333 0.187500
vt 0.083333 0.250000
vt 0.083333 0.312500
vt 0.083333 0.375000
vt 0.083333 0.437500
vt 0.083333 0.500000
vt 0.083333 0.562500
vt 0.083333 0.625000
vt 0.083333 0.687500
vt 0.083333 0.750000
vt 0.083333 0.812500
vt 0.125000 0.000000
vt 0.125000 0.042628
vt 0.125000 0.062500
vt 0.125000 0.125000
vt 0.125000 0.187500
vt 0.125000 0.250000
vt 0.125000 0.312500
vt 0.125000 0.375000
vt 0.125000 0.437500
vt 0.125000 0.500000
vt 0.125000 0.562500
vt 0.125000 0.625000
vt 0.125000 0.687500
vt 0.125000 0.750000
vt 0.125000 0.812500
vt 0.166666 0.000000
vt 0.166666 0.000000
vt 0.166666 0.042628
vt 0.166666 0.062500
vt 0.166666 0.125000
vt 0.166666 0.187500
vt 0.166666 0.250000
vt 0.166667 0.312500
vt 0.166667 0.375000
vt 0.166667 0.437500
vt 0.166667 0.500000
vt 0.166667 0.562500
vt 0.166667 0.625000
vt 0.166667 0.687500
vt 0.166667 0.750000
vt 0.166666 0.812500
vt 0.208333 0.000000
vt 0.208333 0.042628
vt 0.208333 0.062500
vt 0.208333 0.125000
vt 0.208333 0.187500
vt 0.208333 0.250000
vt 0.208333 0.312500
vt 0.208333 0.375000
vt 0.208333 0.437500
vt 0.208333 0.500000
vt 0.208333 0.562500
vt 0.208333 0.625000
vt 0.208333 0.687500
vt 0.208333 0.750000
vt 0.208333 0.812500
vt 0.250000 0.000000
vt 0.250000 0.042628
vt 0.250000 0.062500
vt 0.250000 0.125000
vt 0.250000 0.187500
vt 0.250000 0.250000
vt 0.250000 0.312500
vt 0.250000 0.375000
vt 0.250000 0.437500
vt 0.250000 0.500000
vt 0.250000 0.562500
vt 0.250000 0.625000
vt 0.250000 0.687500
vt 0.250000 0.750000
vt 0.250000 0.812500
vt 0.291667 0.000000
vt 0.291666 0.042628
vt 0.291666 0.062500
vt 0.291666 0.125000
vt 0.291666 0.187500
vt 0.291666 0.250000
vt 0.291666 0.312500
vt 0.291666 0.375000
vt 0.291666 0.437500
vt 0.291666 0.500000
vt 0.291666 0.562500
vt 0.291667 0.625000
vt 0.291666 0.687500
vt 0.291666 0.750000
vt 0.291666 0.812500
vt 0.333333 0.000000
vt 0.333333 0.042628
vt 0.333333 0.062500
vt 0.333333 0.125000
vt 0.333333 0.187500
vt 0.333333 0.250000
vt 0.333333 0.312500
vt 0.333333 0.375000
vt 0.333333 0.437500
vt 0.333333 0.500000
vt 0.333333 0.562500
vt 0.333333 0.625000
vt 0.333333 0.687500
vt 0.333333 0.750000
vt 0.333333 0.812500
vt 0.375000 0.000000
vt 0.375000 0.042628
vt 0.375000 0.062500
vt 0.375000 0.125000
vt 0.375000 0.187500
vt 0.375000 0.250000
vt 0.375000 0.312500
vt 0.375000 0.375000
vt 0.375000 0.437500
vt 0.375000 0.500000
vt 0.375000 0.562500
vt 0.375000 0.625000
vt 0.375000 0.687500
vt 0.375000 0.750000
vt 0.375000 0.812500
vt 0.416666 0.000000
vt 0.416666 0.000000
vt 0.416666 0.042628
vt 0.416666 0.062500
vt 0.416667 0.125000
vt 0.416667 0.187500
vt 0.416667 0.250000
vt 0.416667 0.312500
vt 0.416666 0.375000
vt 0.416666 0.437500
vt 0.416666 0.500000
vt 0.416666 0.562500
vt 0.416666 0.625000
vt 0.416666 0.687500
vt 0.416666 0.750000
vt 0.416666 0.812500
vt 0.458333 0.000000
vt 0.458333 0.042628
vt 0.458333 0.062500
vt 0.458333 0.125000
vt 0.458333 0.187500
vt 0.458333 0.250000
vt 0.458333 0.312500
vt 0.458333 0.375000
vt 0.458333 0.437500
vt 0.458333 0.500000
vt 0.458333 0.562500
vt 0.458333 0.625000
vt 0.458333 0.687500
vt 0.458333 0.750000
vt 0.458333 0.812500
vt 0.500000 0.000000
vt 0.500000 0.042628
vt 0.500000 0.062500
vt 0.500000 0.125000
vt 0.500000 0.187500
vt 0.500000 0.250000
vt 0.500000 0.312500
vt 0.500000 0.375000
vt 0.500000 0.437500
vt 0.500000 0.500000
vt 0.500000 0.562500
vt 0.500000 0.625000
vt 0.500000 0.687500
vt 0.500000 0.750000
vt 0.500000 0.812500
vt 0.541666 0.000000
vt 0.541666 0.042628
vt 0.541666 0.062500
vt 0.541666 0.125000
vt 0.541666 0.187500
vt 0.541666 0.250000
vt 0.541666 0.312500
vt 0.541666 0.375000
vt 0.541667 0.437500
vt 0.541666 0.500000
vt 0.541666 0.562500
vt 0.541666 0.625000
vt 0.541666 0.687500
vt 0.541667 0.750000
vt 0.541666 0.812500
vt 0.583333 0.000000
vt 0.583333 0.042628
vt 0.583333 0.062500
vt 0.583333 0.125000
vt 0.583333 0.187500
vt 0.583333 0.250000
vt 0.583333 0.312500
vt 0.583333 0.375000
vt 0.583333 0.437500
vt 0.583333 0.500000
vt 0.583333 0.562500
vt 0.583333 0.625000
vt 0.583333 0.687500
vt 0.583333 0.750000
vt 0.583333 0.812500
vt 0.625000 0.000000
vt 0.625000 0.042628
vt 0.625000 0.062500
vt 0.625000 0.125000
vt 0.625000 0.187500
vt 0.625000 0.250000
vt 0.625000 0.312500
vt 0.625000 0.375000
vt 0.625000 0.437500
vt 0.625000 0.500000
vt 0.625000 0.562500
vt 0.625000 0.625000
vt 0.625000 0.687500
vt 0.625000 0.750000
vt 0.625000 0.812500
vt 0.666667 0.000000
vt 0.666667 0.042628
vt 0.666667 0.062500
vt 0.666667 0.125000
vt 0.666667 0.187500
vt 0.666667 0.250000
vt 0.666667 0.312500
vt 0.666667 0.375000
vt 0.666667 0.437500
vt 0.666667 0.500000
vt 0.666667 0.562500
vt 0.666667 0.625000
vt 0.666667 0.687500
vt 0.666667 0.750000
vt 0.666667 0.812500
vt 0.708333 0.000000
vt 0.708333 0.042628
vt 0.708333 0.062500
vt 0.708333 0.125000
vt 0.708333 0.187500
vt 0.708333 0.250000
vt 0.708333 0.312500
vt 0.708333 0.375000
vt 0.708333 0.437500
vt 0.708333 0.500000
vt 0.708333 0.562500
vt 0.708333 0.625000
vt 0.708333 0.687500
vt 0.708333 0.750000
vt 0.708333 0.812500
vt 0.750000 0.000000
vt 0.750000 0.042628
vt 0.750000 0.062500
vt 0.750000 0.125000
vt 0.750000 0.187500
vt 0.750000 0.250000
vt 0.750000 0.312500
vt 0.750000 0.375000
vt 0.750000 0.437500
vt 0.750000 0.500000
vt 0.750000 0.562500
vt 0.750000 0.625000
vt 0.750000 0.687500
vt 0.750000 0.750000
vt 0.750000 0.812500
vt 0.791667 0.000000
vt 0.791666 0.042628
vt 0.791667 0.062500
vt 0.791667 0.125000
vt 0.791667 0.187500
vt 0.791667 0.250000
vt 0.791667 0.312500
vt 0.791667 0.375000
vt 0.791667 0.437500
vt 0.791667 0.500000
vt 0.791667 0.562500
vt 0.791667 0.625000
vt 0.791667 0.687500
vt 0.791667 0.750000
vt 0.791667 0.812500
vt 0.833333 0.000000
vt 0.833333 0.042628
vt 0.833333 0.062500
vt 0.833333 0.125000
vt 0.833333 0.187500
vt 0.833333 0.250000
vt 0.833333 0.312500
vt 0.833333 0.375000
vt 0.833333 0.437500
vt 0.833333 0.500000
vt 0.833333 0.562500
vt 0.833333 0.625000
vt 0.833333 0.687500
vt 0.833333 0.750000
vt 0.833333 0.812500
vt 0.875000 0.000000
vt 0.875000 0.042628
vt 0.875000 0.062500
vt 0.875000 0.125000
vt 0.875000 0.187500
vt 0.875000 0.250000
vt 0.875000 0.312500
vt 0.875000 0.375000
vt 0.875000 0.437500
vt 0.875000 0.500000
vt 0.875000 0.562500
vt 0.875000 0.625000
vt 0.875000 0.687500
vt 0.875000 0.750000
vt 0.875000 0.812500
vt 0.916667 0.000000
vt 0.916667 0.000000
vt 0.916667 0.042628
vt 0.916667 0.062500
vt 0.916667 0.125000
vt 0.916667 0.187500
vt 0.916667 0.250000
vt 0.916667 0.312500
vt 0.916667 0.375000
vt 0.916667 0.437500
vt 0.916667 0.500000
vt 0.916667 0.562500
vt 0.916667 0.625000
vt 0.916667 0.687500
vt 0.916667 0.750000
vt 0.916667 0.812500
vt 0.958333 0.000000
vt 0.958333 0.000000
vt 0.958333 0.042628
vt 0.958333 0.062500
vt 0.958333 0.125000
vt 0.958333 0.187500
vt 0.958333 0.250000
vt 0.958333 0.312500
vt 0.958333 0.375000
vt 0.958333 0.437500
vt 0.958333 0.500000
vt 0.958333 0.562500
vt 0.958333 0.625000
vt 0.958333 0.687500
vt 0.958333 0.750000
vt 0.958333 0.812500
vt 1.000000 0.000000
vt 1.000000 0.000000
vt 1.000000 0.042628
vt 1.000000 0.062500
vt 1.000000 0.125000
vt 1.000000 0.187500
vt 1.000000 0.250000
vt 1.000000 0.312500
vt 1.000000 0.375000
vt 1.000000 0.437500
vt 1.000000 0.500000
vt 1.000000 0.562500
vt 1.000000 0.625000
vt 1.000000 0.687500
vt 1.000000 0.750000
vt 1.000000 0.812500
vt 1.000000 0.021795
vt 0.958333 0.021795
vt 0.916667 0.021795
vt 0.875000 0.021795
vt 0.833333 0.021795
vt 0.791666 0.021795
vt 0.750000 0.021795
vt 0.708333 0.021795
vt 0.666667 0.021795
vt 0.625000 0.021795
vt 0.583333 0.021795
vt 0.541666 0.021795
vt 0.500000 0.021795
vt 0.458333 0.021795
vt 0.416666 0.021795
vt 0.375000 0.021795
vt 0.333333 0.021795
vt 0.291667 0.021795
vt 0.250000 0.021795
vt 0.208333 0.021795
vt 0.166666 0.021795
vt 0.125000 0.021795
vt 0.083333 0.021795
vt 0.041666 0.021795
vt -0.000000 0.021795
s 1
f 63/1/40 2/2/2 4/3/3 64/4/41
f 64/4/41 4/3/3 6/5/4 79/6/56
f 79/6/56 6/5/4 8/7/5 94/8/71
f 94/8/71 8/7/5 10/9/6 109/10/86
f 109/10/86 10/9/6 12/11/7 124/12/101
f 124/12/101 12/11/7 14/13/8 139/14/116
f 139/14/116 14/13/8 16/15/9 154/16/131
f 154/16/131 16/15/9 18/17/10 169/18/146
f 169/18/146 18/17/10 20/19/11 184/20/161
f 184/20/161 20/19/11 22/21/12 199/22/176
f 199/22/176 22/21/12 24/23/13 214/24/191
f 214/24/191 24/23/13 26/25/14 229/26/206
f 229/26/206 26/25/14 28/27/15 244/28/221
f 244/28/221 28/27/15 30/29/16 259/30/236
f 259/30/236 30/29/16 32/31/17 274/32/251
f 274/32/251 32/31/17 34/33/18 289/34/266
f 289/34/266 34/33/18 36/35/19 304/36/281
f 304/36/281 36/35/19 38/37/20 319/38/296
f 319/38/296 38/37/20 40/39/21 334/40/311
f 334/40/311 40/39/21 42/41/22 349/42/326
f 349/42/326 42/41/22 44/43/23 364/44/341
f 364/44/341 44/43/23 46/45/24 379/46/356
f 379/46/356 46/45/24 48/47/25 394/48/371
f 394/48/371 48/47/25 2/49/2 63/50/40
f 47/51/1 408/52/385 49/53/26 1/54/1
f 455/55/432 407/56/384 50/57/27 410/58/387
f 407/56/384 406/59/383 51/60/28 50/57/27
f 406/59/383 405/61/382 52/62/29 51/60/28
f 405/61/382 404/63/381 53/64/30 52/62/29
f 404/63/381 403/65/380 54/66/31 53/64/30
f 403/65/380 402/67/379 55/68/32 54/66/31
f 402/67/379 401/69/378 56/70/33 55/68/32
f 401/69/378 400/71/377 57/72/34 56/70/33
f 400/71/377 399/73/376 58/74/35 57/72/34
f 399/73/376 398/75/375 59/76/36 58/74/35
f 398/75/375 397/77/374 60/78/37 59/76/36
f 397/77/374 396/79/373 61/80/38 60/78/37
f 396/79/373 395/81/372 62/82/39 61/80/38
f 395/81/372 394/48/371 63/50/40 62/82/39
f 45/83/1 393/83/370 408/52/385 47/51/1
f 453/84/430 392/85/369 407/56/384 455/55/432
f 392/85/369 391/86/368 406/59/383 407/56/384
f 391/86/368 390/87/367 405/61/382 406/59/383
f 390/87/367 389/88/366 404/63/381 405/61/382
f 389/88/366 388/89/365 403/65/380 404/63/381
f 388/89/365 387/90/364 402/67/379 403/65/380
f 387/90/364 386/91/363 401/69/378 402/67/379
f 386/91/363 385/92/362 400/71/377 401/69/378
f 385/92/362 384/93/361 399/73/376 400/71/377
f 384/93/361 383/94/360 398/75/375 399/73/376
f 383/94/360 382/95/359 397/77/374 398/75/375
f 382/95/359 381/96/358 396/79/373 397/77/374
f 381/96/358 380/97/357 395/81/372 396/79/373
f 380/97/357 379/46/356 394/48/371 395/81/372
f 43/98/1 378/98/355 393/83/370 45/83/1
f 451/99/428 377/100/354 392/85/369 453/84/430
f 377/100/354 376/101/353 391/86/368 392/85/369
f 376/101/353 375/102/352 390/87/367 391/86/368
f 375/102/352 374/103/351 389/88/366 390/87/367
f 374/103/351 373/104/350 388/89/365 389/88/366
f 373/104/350 372/105/349 387/90/364 388/89/365
f 372/105/349 371/106/348 386/91/363 387/90/364
f 371/106/348 370/107/347 385/92/362 386/91/363
f 370/107/347 369/108/346 384/93/361 385/92/362
f 369/108/346 368/109/345 383/94/360 384/93/361
f 368/109/345 367/110/344 382/95/359 383/94/360
f 367/110/344 366/111/343 381/96/358 382/95/359
f 366/111/343 365/112/342 380/97/357 381/96/358
f 365/112/342 364/44/341 379/46/356 380/97/357
f 41/113/1 363/114/340 378/98/355 43/98/1
f 449/115/426 362/116/339 377/100/354 451/99/428
f 362/116/339 361/117/338 376/101/353 377/100/354
f 361/117/338 360/118/337 375/102/352 376/101/353
f 360/118/337 359/119/336 374/103/351 375/102/352
f 359/119/336 358/120/335 373/104/350 374/103/351
f 358/120/335 357/121/334 372/105/349 373/104/350
f 357/121/334 356/122/333 371/106/348 372/105/349
f 356/122/333 355/123/332 370/107/347 371/106/348
f 355/123/332 354/124/331 369/108/346 370/107/347
f 354/124/331 353/125/330 368/109/345 369/108/346
f 353/125/330 352/126/329 367/110/344 368/109/345
f 352/126/329 351/127/328 366/111/343 367/110/344
f 351/127/328 350/128/327 365/112/342 366/111/343
f 350/128/327 349/42/326 364/44/341 365/112/342
f 39/129/1 348/129/325 363/114/340 41/113/1
f 447/130/424 347/131/324 362/116/339 449/115/426
f 347/131/324 346/132/323 361/117/338 362/116/339
f 346/132/323 345/133/322 360/118/337 361/117/338
f 345/133/322 344/134/321 359/119/336 360/118/337
f 344/134/321 343/135/320 358/120/335 359/119/336
f 343/135/320 342/136/319 357/121/334 358/120/335
f 342/136/319 341/137/318 356/122/333 357/121/334
f 341/137/318 340/138/317 355/123/332 356/122/333
f 340/138/317 339/139/316 354/124/331 355/123/332
f 339/139/316 338/140/315 353/125/330 354/124/331
f 338/140/315 337/141/314 352/126/329 353/125/330
f 337/141/314 336/142/313 351/127/328 352/126/329
f 336/142/313 335/143/312 350/128/327 351/127/328
f 335/143/312 334/40/311 349/42/326 350/128/327
f 37/144/1 333/144/310 348/129/325 39/129/1
f 445/145/422 332/146/309 347/131/324 447/130/424
f 332/146/309 331/147/308 346/132/323 347/131/324
f 331/147/308 330/148/307 345/133/322 346/132/323
f 330/148/307 329/149/306 344/134/321 345/133/322
f 329/149/306 328/150/305 343/135/320 344/134/321
f 328/150/305 327/151/304 342/136/319 343/135/320
f 327/151/304 326/152/303 341/137/318 342/136/319
f 326/152/303 325/153/302 340/138/317 341/137/318
f 325/153/302 324/154/301 339/139/316 340/138/317
f 324/154/301 323/155/300 338/140/315 339/139/316
f 323/155/300 322/156/299 337/141/314 338/140/315
f 322/156/299 321/157/298 336/142/313 337/141/314
f 321/157/298 320/158/297 335/143/312 336/142/313
f 320/158/297 319/38/296 334/40/311 335/143/312
f 35/159/1 318/159/295 333/144/310 37/144/1
f 443/160/420 317/161/294 332/146/309 445/145/422
f 317/161/294 316/162/293 331/147/308 332/146/309
f 316/162/293 315/163/292 330/148/307 331/147/308
f 315/163/292 314/164/291 329/149/306 330/148/307
f 314/164/291 313/165/290 328/150/305 329/149/306
f 313/165/290 312/166/289 327/151/304 328/150/305
f 312/166/289 311/167/288 326/152/303 327/151/304
f 311/167/288 310/168/287 325/153/302 326/152/303
f 310/168/287 309/169/286 324/154/301 325/153/302
f 309/169/286 308/170/285 323/155/300 324/154/301
f 308/170/285 307/171/284 322/156/299 323/155/300
f 307/171/284 306/172/283 321/157/298 322/156/299
f 306/172/283 305/173/282 320/158/297 321/157/298
f 305/173/282 304/36/281 319/38/296 320/158/297
f 33/174/1 303/174/280 318/159/295 35/159/1
f 441/175/418 302/176/279 317/161/294 443/160/420
f 302/176/279 301/177/278 316/162/293 317/161/294
f 301/177/278 300/178/277 315/163/292 316/162/293
f 300/178/277 299/179/276 314/164/291 315/163/292
f 299/179/276 298/180/275 313/165/290 314/164/291
f 298/180/275 297/181/274 312/166/289 313/165/290
f 297/181/274 296/182/273 311/167/288 312/166/289
f 296/182/273 295/183/272 310/168/287 311/167/288
f 295/183/272 294/184/271 309/169/286 310/168/287
f 294/184/271 293/185/270 308/170/285 309/169/286
f 293/185/270 292/186/269 307/171/284 308/170/285
f 292/186/269 291/187/268 306/172/283 307/171/284
f 291/187/268 290/188/267 305/173/282 306/172/283
f 290/188/267 289/34/266 304/36/281 305/173/282
f 31/189/1 288/189/265 303/174/280 33/174/1
f 439/190/416 287/191/264 302/176/279 441/175/418
f 287/191/264 286/192/263 301/177/278 302/176/279
f 286/192/263 285/193/262 300/178/277 301/177/278
f 285/193/262 284/194/261 299/179/276 300/178/277
f 284/194/261 283/195/260 298/180/275 299/179/276
f 283/195/260 282/196/259 297/181/274 298/180/275
f 282/196/259 281/197/258 296/182/273 297/181/274
f 281/197/258 280/198/257 295/183/272 296/182/273
f 280/198/257 279/199/256 294/184/271 295/183/272
f 279/199/256 278/200/255 293/185/270 294/184/271
f 278/200/255 277/201/254 292/186/269 293/185/270
f 277/201/254 276/202/253 291/187/268 292/186/269
f 276/202/253 275/203/252 290/188/267 291/187/268
f 275/203/252 274/32/251 289/34/266 290/188/267
f 29/204/1 273/205/250 288/189/265 31/189/1
f 437/206/414 272/207/249 287/191/264 439/190/416
f 272/207/249 271/208/248 286/192/263 287/191/264
f 271/208/248 270/209/247 285/193/262 286/192/263
f 270/209/247 269/210/246 284/194/261 285/193/262
f 269/210/246 268/211/245 283/195/260 284/194/261
f 268/211/245 267/212/244 282/196/259 283/195/260
f 267/212/244 266/213/243 281/197/258 282/196/259
f 266/213/243 265/214/242 280/198/257 281/197/258
f 265/214/242 264/215/241 279/199/256 280/198/257
f 264/215/241 263/216/240 278/200/255 279/199/256
f 263/216/240 262/217/239 277/201/254 278/200/255
f 262/217/239 261/218/238 276/202/253 277/201/254
f 261/218/238 260/219/237 275/203/252 276/202/253
f 260/219/237 259/30/236 274/32/251 275/203/252
f 27/220/1 258/220/235 273/205/250 29/204/1
f 435/221/412 257/222/234 272/207/249 437/206/414
f 257/222/234 256/223/233 271/208/248 272/207/249
f 256/223/233 255/224/232 270/209/247 271/208/248
f 255/224/232 254/225/231 269/210/246 270/209/247
f 254/225/231 253/226/230 268/211/245 269/210/246
f 253/226/230 252/227/229 267/212/244 268/211/245
f 252/227/229 251/228/228 266/213/243 267/212/244
f 251/228/228 250/229/227 265/214/242 266/213/243
f 250/229/227 249/230/226 264/215/241 265/214/242
f 249/230/226 248/231/225 263/216/240 264/215/241
f 248/231/225 247/232/224 262/217/239 263/216/240
f 247/232/224 246/233/223 261/218/238 262/217/239
f 246/233/223 245/234/222 260/219/237 261/218/238
f 245/234/222 244/28/221 259/30/236 260/219/237
f 25/235/1 243/235/220 258/220/235 27/220/1
f 433/236/410 242/237/219 257/222/234 435/221/412
f 242/237/219 241/238/218 256/223/233 257/222/234
f 241/238/218 240/239/217 255/224/232 256/223/233
f 240/239/217 239/240/216 254/225/231 255/224/232
f 239/240/216 238/241/215 253/226/230 254/225/231
f 238/241/215 237/242/214 252/227/229 253/226/230
f 237/242/214 236/243/213 251/228/228 252/227/229
f 236/243/213 235/244/212 250/229/227 251/228/228
f 235/244/212 234/245/211 249/230/226 250/229/227
f 234/245/211 233/246/210 248/231/225 249/230/226
f 233/246/210 232/247/209 247/232/224 248/231/225
f 232/247/209 231/248/208 246/233/223 247/232/224
f 231/248/208 230/249/207 245/234/222 246/233/223
f 230/249/207 229/26/206 244/28/221 245/234/222
f 23/250/1 228/250/205 243/235/220 25/235/1
f 431/251/408 227/252/204 242/237/219 433/236/410
f 227/252/204 226/253/203 241/238/218 242/237/219
f 226/253/203 225/254/202 240/239/217 241/238/218
f 225/254/202 224/255/201 239/240/216 240/239/217
f 224/255/201 223/256/200 238/241/215 239/240/216
f 223/256/200 222/257/199 237/242/214 238/241/215
f 222/257/199 221/258/198 236/243/213 237/242/214
f 221/258/198 220/259/197 235/244/212 236/243/213
f 220/259/197 219/260/196 234/245/211 235/244/212
f 219/260/196 218/261/195 233/246/210 234/245/211
f 218/261/195 217/262/194 232/247/209 233/246/210
f 217/262/194 216/263/193 231/248/208 232/247/209
f 216/263/193 215/264/192 230/249/207 231/248/208
f 215/264/192 214/24/191 229/26/206 230/249/207
f 21/265/1 213/265/190 228/250/205 23/250/1
f 429/266/406 212/267/189 227/252/204 431/251/408
f 212/267/189 211/268/188 226/253/203 227/252/204
f 211/268/188 210/269/187 225/254/202 226/253/203
f 210/269/187 209/270/186 224/255/201 225/254/202
f 209/270/186 208/271/185 223/256/200 224/255/201
f 208/271/185 207/272/184 222/257/199 223/256/200
f 207/272/184 206/273/183 221/258/198 222/257/199
f 206/273/183 205/274/182 220/259/197 221/258/198
f 205/274/182 204/275/181 219/260/196 220/259/197
f 204/275/181 203/276/180 218/261/195 219/260/196
f 203/276/180 202/277/179 217/262/194 218/261/195
f 202/277/179 201/278/178 216/263/193 217/262/194
f 201/278/178 200/279/177 215/264/192 216/263/193
f 200/279/177 199/22/176 214/24/191 215/264/192
f 19/280/1 198/280/175 213/265/190 21/265/1
f 427/281/404 197/282/174 212/267/189 429/266/406
f 197/282/174 196/283/173 211/268/188 212/267/189
f 196/283/173 195/284/172 210/269/187 211/268/188
f 195/284/172 194/285/171 209/270/186 210/269/187
f 194/285/171 193/286/170 208/271/185 209/270/186
f 193/286/170 192/287/169 207/272/184 208/271/185
f 192/287/169 191/288/168 206/273/183 207/272/184
f 191/288/168 190/289/167 205/274/182 206/273/183
f 190/289/167 189/290/166 204/275/181 205/274/182
f 189/290/166 188/291/165 203/276/180 204/275/181
f 188/291/165 187/292/164 202/277/179 203/276/180
f 187/292/164 186/293/163 201/278/178 202/277/179
f 186/293/163 185/294/162 200/279/177 201/278/178
f 185/294/162 184/20/161 199/22/176 200/279/177
f 17/295/1 183/295/160 198/280/175 19/280/1
f 425/296/402 182/297/159 197/282/174 427/281/404
f 182/297/159 181/298/158 196/283/173 197/282/174
f 181/298/158 180/299/157 195/284/172 196/283/173
f 180/299/157 179/300/156 194/285/171 195/284/172
f 179/300/156 178/301/155 193/286/170 194/285/171
f 178/301/155 177/302/154 192/287/169 193/286/170
f 177/302/154 176/303/153 191/288/168 192/287/169
f 176/303/153 175/304/152 190/289/167 191/288/168
f 175/304/152 174/305/151 189/290/166 190/289/167
f 174/305/151 173/306/150 188/291/165 189/290/166
f 173/306/150 172/307/149 187/292/164 188/291/165
f 172/307/149 171/308/148 186/293/163 187/292/164
f 171/308/148 170/309/147 185/294/162 186/293/163
f 170/309/147 169/18/146 184/20/161 185/294/162
f 15/310/1 168/310/145 183/295/160 17/295/1
f 423/311/400 167/312/144 182/297/159 425/296/402
f 167/312/144 166/313/143 181/298/158 182/297/159
f 166/313/143 165/314/142 180/299/157 181/298/158
f 165/314/142 164/315/141 179/300/156 180/299/157
f 164/315/141 163/316/140 178/301/155 179/300/156
f 163/316/140 162/317/139 177/302/154 178/301/155
f 162/317/139 161/318/138 176/303/153 177/302/154
f 161/318/138 160/319/137 175/304/152 176/303/153
f 160/319/137 159/320/136 174/305/151 175/304/152
f 159/320/136 158/321/135 173/306/150 174/305/151
f 158/321/135 157/322/134 172/307/149 173/306/150
f 157/322/134 156/323/133 171/308/148 172/307/149
f 156/323/133 155/324/132 170/309/147 171/308/148
f 155/324/132 154/16/131 169/18/146 170/309/147
f 13/325/1 153/325/130 168/310/145 15/310/1
f 421/326/398 152/327/129 167/312/144 423/311/400
f 152/327/129 151/328/128 166/313/143 167/312/144
f 151/328/128 150/329/127 165/314/142 166/313/143
f 150/329/127 149/330/126 164/315/141 165/314/142
f 149/330/126 148/331/125 163/316/140 164/315/141
f 148/331/125 147/332/124 162/317/139 163/316/140
f 147/332/124 146/333/123 161/318/138 162/317/139
f 146/333/123 145/334/122 160/319/137 161/318/138
f 145/334/122 144/335/121 159/320/136 160/319/137
f 144/335/121 143/336/120 158/321/135 159/320/136
f 143/336/120 142/337/119 157/322/134 158/321/135
f 142/337/119 141/338/118 156/323/133 157/322/134
f 141/338/118 140/339/117 155/324/132 156/323/133
f 140/339/117 139/14/116 154/16/131 155/324/132
f 11/340/1 138/340/115 153/325/130 13/325/1
f 419/341/396 137/342/114 152/327/129 421/326/398
f 137/342/114 136/343/113 151/328/128 152/327/129
f 136/343/113 135/344/112 150/329/127 151/328/128
f 135/344/112 134/345/111 149/330/126 150/329/127
f 134/345/111 133/346/110 148/331/125 149/330/126
f 133/346/110 132/347/109 147/332/124 148/331/125
f 132/347/109 131/348/108 146/333/123 147/332/124
f 131/348/108 130/349/107 145/334/122 146/333/123
f 130/349/107 129/350/106 144/335/121 145/334/122
f 129/350/106 128/351/105 143/336/120 144/335/121
f 128/351/105 127/352/104 142/337/119 143/336/120
f 127/352/104 126/353/103 141/338/118 142/337/119
f 126/353/103 125/354/102 140/339/117 141/338/118
f 125/354/102 124/12/101 139/14/116 140/339/117
f 9/355/1 123/355/100 138/340/115 11/340/1
f 417/356/394 122/357/99 137/342/114 419/341/396
f 122/357/99 121/358/98 136/343/113 137/342/114
f 121/358/98 120/359/97 135/344/112 136/343/113
f 120/359/97 119/360/96 134/345/111 135/344/112
f 119/360/96 118/361/95 133/346/110 134/345/111
f 118/361/95 117/362/94 132/347/109 133/346/110
f 117/362/94 116/363/93 131/348/108 132/347/109
f 116/363/93 115/364/92 130/349/107 131/348/108
f 115/364/92 114/365/91 129/350/106 130/349/107
f 114/365/91 113/366/90 128/351/105 129/350/106
f 113/366/90 112/367/89 127/352/104 128/351/105
f 112/367/89 111/368/88 126/353/103 127/352/104
f 111/368/88 110/369/87 125/354/102 126/353/103
f 110/369/87 109/10/86 124/12/101 125/354/102
f 7/370/1 108/370/85 123/355/100 9/355/1
f 415/371/392 107/372/84 122/357/99 417/356/394
f 107/372/84 106/373/83 121/358/98 122/357/99
f 106/373/83 105/374/82 120/359/97 121/358/98
f 105/374/82 104/375/81 119/360/96 120/359/97
f 104/375/81 103/376/80 118/361/95 119/360/96
f 103/376/80 102/377/79 117/362/94 118/361/95
f 102/377/79 101/378/78 116/363/93 117/362/94
f 101/378/78 100/379/77 115/364/92 116/363/93
f 100/379/77 99/380/76 114/365/91 115/364/92
f 99/380/76 98/381/75 113/366/90 114/365/91
f 98/381/75 97/382/74 112/367/89 113/366/90
f 97/382/74 96/383/73 111/368/88 112/367/89
f 96/383/73 95/384/72 110/369/87 111/368/88
f 95/384/72 94/8/71 109/10/86 110/369/87
f 5/385/1 93/386/70 108/370/85 7/370/1
f 413/387/390 92/388/69 107/372/84 415/371/392
f 92/388/69 91/389/68 106/373/83 107/372/84
f 91/389/68 90/390/67 105/374/82 106/373/83
f 90/390/67 89/391/66 104/375/81 105/374/82
f 89/391/66 88/392/65 103/376/80 104/375/81
f 88/392/65 87/393/64 102/377/79 103/376/80
f 87/393/64 86/394/63 101/378/78 102/377/79
f 86/394/63 85/395/62 100/379/77 101/378/78
f 85/395/62 84/396/61 99/380/76 100/379/77
f 84/396/61 83/397/60 98/381/75 99/380/76
f 83/397/60 82/398/59 97/382/74 98/381/75
f 82/398/59 81/399/58 96/383/73 97/382/74
f 81/399/58 80/400/57 95/384/72 96/383/73
f 80/400/57 79/6/56 94/8/71 95/384/72
f 3/401/1 78/402/55 93/386/70 5/385/1
f 411/403/388 77/404/54 92/388/69 413/387/390
f 77/404/54 76/405/53 91/389/68 92/388/69
f 76/405/53 75/406/52 90/390/67 91/389/68
f 75/406/52 74/407/51 89/391/66 90/390/67
f 74/407/51 73/408/50 88/392/65 89/391/66
f 73/408/50 72/409/49 87/393/64 88/392/65
f 72/409/49 71/410/48 86/394/63 87/393/64
f 71/410/48 70/411/47 85/395/62 86/394/63
f 70/411/47 69/412/46 84/396/61 85/395/62
f 69/412/46 68/413/45 83/397/60 84/396/61
f 68/413/45 67/414/44 82/398/59 83/397/60
f 67/414/44 66/415/43 81/399/58 82/398/59
f 66/415/43 65/416/42 80/400/57 81/399/58
f 65/416/42 64/4/41 79/6/56 80/400/57
f 1/417/1 49/418/26 78/402/55 3/401/1
f 410/419/387 50/420/27 77/404/54 411/403/388
f 50/420/27 51/421/28 76/405/53 77/404/54
f 51/421/28 52/422/29 75/406/52 76/405/53
f 52/422/29 53/423/30 74/407/51 75/406/52
f 53/423/30 54/424/31 73/408/50 74/407/51
f 54/424/31 55/425/32 72/409/49 73/408/50
f 55/425/32 56/426/33 71/410/48 72/409/49
f 56/426/33 57/427/34 70/411/47 71/410/48
f 57/427/34 58/428/35 69/412/46 70/411/47
f 58/428/35 59/429/36 68/413/45 69/412/46
f 59/429/36 60/430/37 67/414/44 68/413/45
f 60/430/37 61/431/38 66/415/43 67/414/44
f 61/431/38 62/432/39 65/416/42 66/415/43
f 62/432/39 63/1/40 64/4/41 65/416/42
f 49/418/26 409/433/386 412/434/389 78/402/55
f 409/433/386 410/419/387 411/403/388 412/434/389
f 78/402/55 412/434/389 414/435/391 93/386/70
f 412/434/389 411/403/388 413/387/390 414/435/391
f 93/386/70 414/435/391 416/436/393 108/370/85
f 414/435/391 413/387/390 415/371/392 416/436/393
f 108/370/85 416/436/393 418/437/395 123/355/100
f 416/436/393 415/371/392 417/356/394 418/437/395
f 123/355/100 418/437/395 420/438/397 138/340/115
f 418/437/395 417/356/394 419/341/396 420/438/397
f 138/340/115 420/438/397 422/439/399 153/325/130
f 420/438/397 419/341/396 421/326/398 422/439/399
f 153/325/130 422/439/399 424/440/401 168/310/145
f 422/439/399 421/326/398 423/311/400 424/440/401
f 168/310/145 424/440/401 426/441/403 183/295/160
f 424/440/401 423/311/400 425/296/402 426/441/403
f 183/295/160 426/441/403 428/442/405 198/280/175
f 426/441/403 425/296/402 427/281/404 428/442/405
f 198/280/175 428/442/405 430/443/407 213/265/190
f 428/442/405 427/281/404 429/266/406 430/443/407
f 213/265/190 430/443/407 432/444/409 228/250/205
f 430/443/407 429/266/406 431/251/408 432/444/409
f 228/250/205 432/444/409 434/445/411 243/235/220
f 432/444/409 431/251/408 433/236/410 434/445/411
f 243/235/220 434/445/411 436/446/413 258/220/235
f 434/445/411 433/236/410 435/221/412 436/446/413
f 258/220/235 436/446/413 438/447/415 273/205/250
f 436/446/413 435/221/412 437/206/414 438/447/415
f 273/205/250 438/447/415 440/448/417 288/189/265
f 438/447/415 437/206/414 439/190/416 440/448/417
f 288/189/265 440/448/417 442/449/419 303/174/280
f 440/448/417 439/190/416 441/175/418 442/449/419
f 303/174/280 442/449/419 444/450/421 318/159/295
f 442/449/419 441/175/418 443/160/420 444/450/421
f 318/159/295 444/450/421 446/451/423 333/144/310
f 444/450/421 443/160/420 445/145/422 446/451/423
f 333/144/310 446/451/423 448/452/425 348/129/325
f 446/451/423 445/145/422 447/130/424 448/452/425
f 348/129/325 448/452/425 450/453/427 363/114/340
f 448/452/425 447/130/424 449/115/426 450/453/427
f 363/114/340 450/453/427 452/454/429 378/98/355
f 450/453/427 449/115/426 451/99/428 452/454/429
f 378/98/355 452/454/429 454/455/431 393/83/370
f 452/454/429 451/99/428 453/84/430 454/455/431
f 393/83/370 454/455/431 456/456/433 408/52/385
f 454/455/431 453/84/430 455/55/432 456/456/433
f 408/52/385 456/456/433 409/457/386 49/53/26
f 456/456/433 455/55/432 410/58/387 409/457/386
