# Blender 5.1.2
# www.blender.org
mtllib tornado_wave_lelu.mtl
o Cylinder
v -0.918510 0.009559 -0.395397
v -0.555441 1.009559 1.552727
v -0.784877 0.009559 -0.619652
v -0.938390 1.009559 1.356060
v -0.597755 0.009559 -0.801679
v -1.257389 1.009559 1.066981
v -0.369897 0.009559 -0.929073
v -1.490700 1.009559 0.705188
v -0.116831 0.009559 -0.993152
v -1.622421 1.009559 0.295338
v 0.144196 0.009559 -0.989549
v -1.643578 1.009559 -0.134639
v 0.395397 0.009559 -0.918510
v -1.552727 1.009559 -0.555441
v 0.619652 0.009559 -0.784876
v -1.356060 1.009559 -0.938390
v 0.801679 0.009559 -0.597755
v -1.066981 1.009559 -1.257389
v 0.929073 0.009559 -0.369897
v -0.705188 1.009559 -1.490700
v 0.993152 0.009559 -0.116831
v -0.295337 1.009559 -1.622421
v 0.989549 0.009559 0.144196
v 0.134639 1.009559 -1.643578
v 0.918510 0.009559 0.395397
v 0.555441 1.009559 -1.552727
v 0.784877 0.009559 0.619652
v 0.938390 1.009559 -1.356060
v 0.597755 0.009559 0.801679
v 1.257389 1.009559 -1.066980
v 0.369897 0.009559 0.929073
v 1.490700 1.009559 -0.705188
v 0.116831 0.009559 0.993152
v 1.622421 1.009559 -0.295337
v -0.144196 0.009559 0.989549
v 1.643578 1.009559 0.134639
v -0.395397 0.009559 0.918510
v 1.552727 1.009559 0.555441
v -0.619652 0.009559 0.784877
v 1.356060 1.009559 0.938390
v -0.801679 0.009559 0.597755
v 1.066981 1.009559 1.257389
v -0.929073 0.009559 0.369897
v 0.705188 1.009559 1.490700
v -0.993152 0.009559 0.116831
v 0.295338 1.009559 1.622421
v -0.989549 0.009559 -0.144196
v -0.134639 1.009559 1.643578
v -1.142141 0.247073 0.166173
v -1.027834 0.497073 0.822535
v -0.715434 0.747073 1.294114
v -1.025998 0.747073 1.064850
v -1.205699 0.497073 0.528485
v -1.146232 0.247073 -0.135097
v -1.266641 0.747073 0.763018
v -1.301398 0.497073 0.198419
v -1.072210 0.247073 -0.427160
v -1.420965 0.747073 0.409188
v -1.308409 0.497073 -0.145168
v -0.925118 0.247073 -0.690113
v -1.478453 0.747073 0.027472
v -1.226253 0.497073 -0.478863
v -0.714981 0.247073 -0.906036
v -1.435186 0.747073 -0.356115
v -1.060531 0.497073 -0.779923
v -0.456119 0.247073 -1.060215
v -1.294114 0.747073 -0.715435
v -0.822535 0.497073 -1.027834
v -0.166173 0.247073 -1.142141
v -1.064850 0.747073 -1.025998
v -0.528485 0.497073 -1.205699
v 0.135097 0.247073 -1.146232
v -0.763018 0.747073 -1.266641
v -0.198419 0.497073 -1.301398
v 0.427160 0.247073 -1.072210
v -0.409188 0.747073 -1.420965
v 0.145168 0.497073 -1.308409
v 0.690113 0.247073 -0.925118
v -0.027472 0.747073 -1.478453
v 0.478863 0.497073 -1.226253
v 0.906037 0.247073 -0.714981
v 0.356116 0.747073 -1.435186
v 0.779923 0.497073 -1.060531
v 1.060215 0.247073 -0.456119
v 0.715435 0.747073 -1.294114
v 1.027834 0.497073 -0.822535
v 1.142141 0.247073 -0.166173
v 1.025998 0.747073 -1.064850
v 1.205699 0.497073 -0.528485
v 1.146232 0.247073 0.135097
v 1.266641 0.747073 -0.763018
v 1.301398 0.497073 -0.198419
v 1.072210 0.247073 0.427160
v 1.420965 0.747073 -0.409188
v 1.308409 0.497073 0.145168
v 0.925118 0.247073 0.690113
v 1.478453 0.747073 -0.027472
v 1.226253 0.497073 0.478863
v 0.714981 0.247073 0.906037
v 1.435186 0.747073 0.356115
v 1.060531 0.497073 0.779923
v 0.456119 0.247073 1.060215
v 1.294114 0.747073 0.715435
v 0.822535 0.497073 1.027834
v 0.166173 0.247073 1.142141
v 1.064850 0.747073 1.025998
v 0.528485 0.497073 1.205699
v -0.135097 0.247073 1.146232
v 0.763018 0.747073 1.266641
v 0.198419 0.497073 1.301398
v -0.427160 0.247073 1.072210
v 0.409188 0.747073 1.420965
v -0.145168 0.497073 1.308409
v -0.690113 0.247073 0.925118
v 0.027472 0.747073 1.478453
v -0.478863 0.497073 1.226253
v -0.906036 0.247073 0.714981
v -0.356115 0.747073 1.435186
v -0.779923 0.497073 1.060531
v -1.060215 0.247073 0.456119
vn -0.8122 -0.5572 -0.1726
vn -0.2989 -0.5451 0.7833
vn -0.7398 -0.5572 -0.3770
vn -0.4914 -0.5451 0.6792
vn -0.6171 -0.5572 -0.5556
vn -0.6505 -0.5451 0.5289
vn -0.4522 -0.5572 -0.6964
vn -0.7652 -0.5451 0.3425
vn -0.2566 -0.5572 -0.7897
vn -0.8278 -0.5451 0.1328
vn -0.0435 -0.5572 -0.8292
vn -0.8339 -0.5451 -0.0860
vn 0.1726 -0.5572 -0.8122
vn -0.7833 -0.5451 -0.2989
vn 0.3770 -0.5572 -0.7398
vn -0.6792 -0.5451 -0.4914
vn 0.5556 -0.5572 -0.6171
vn -0.5289 -0.5451 -0.6505
vn 0.6964 -0.5572 -0.4522
vn -0.3425 -0.5451 -0.7652
vn 0.7897 -0.5572 -0.2566
vn -0.1328 -0.5451 -0.8278
vn 0.8292 -0.5572 -0.0435
vn 0.0860 -0.5451 -0.8339
vn 0.8122 -0.5572 0.1726
vn 0.2989 -0.5451 -0.7833
vn 0.7398 -0.5572 0.3770
vn 0.4914 -0.5451 -0.6792
vn 0.6171 -0.5572 0.5556
vn 0.6505 -0.5451 -0.5289
vn 0.4522 -0.5572 0.6964
vn 0.7652 -0.5451 -0.3425
vn 0.2566 -0.5572 0.7897
vn 0.8278 -0.5451 -0.1328
vn 0.0435 -0.5572 0.8292
vn 0.8339 -0.5451 0.0860
vn -0.1726 -0.5572 0.8122
vn 0.7833 -0.5451 0.2989
vn -0.3770 -0.5572 0.7398
vn 0.6792 -0.5451 0.4914
vn -0.5556 -0.5572 0.6171
vn 0.5289 -0.5451 0.6505
vn -0.6964 -0.5572 0.4522
vn 0.3425 -0.5451 0.7652
vn -0.7897 -0.5572 0.2566
vn 0.1328 -0.5451 0.8278
vn -0.8292 -0.5572 0.0435
vn -0.0860 -0.5451 0.8339
vn -0.8164 -0.5630 0.1283
vn -0.6575 -0.5569 0.5074
vn -0.4285 -0.5484 0.7181
vn -0.5998 -0.5484 0.5827
vn -0.7665 -0.5569 0.3200
vn -0.8218 -0.5630 -0.0874
vn -0.7301 -0.5484 0.4076
vn -0.8232 -0.5569 0.1107
vn -0.7712 -0.5630 -0.2971
vn -0.8108 -0.5484 0.2047
vn -0.8238 -0.5569 -0.1061
vn -0.6680 -0.5630 -0.4866
vn -0.8361 -0.5484 -0.0121
vn -0.7682 -0.5569 -0.3157
vn -0.5193 -0.5630 -0.6429
vn -0.8045 -0.5484 -0.2281
vn -0.6603 -0.5569 -0.5038
vn -0.3352 -0.5630 -0.7554
vn -0.7181 -0.5484 -0.4285
vn -0.5074 -0.5569 -0.6575
vn -0.1283 -0.5630 -0.8164
vn -0.5827 -0.5484 -0.5998
vn -0.3200 -0.5569 -0.7665
vn 0.0874 -0.5630 -0.8218
vn -0.4076 -0.5484 -0.7301
vn -0.1107 -0.5569 -0.8232
vn 0.2971 -0.5630 -0.7712
vn -0.2047 -0.5484 -0.8108
vn 0.1061 -0.5569 -0.8238
vn 0.4866 -0.5630 -0.6680
vn 0.0121 -0.5484 -0.8361
vn 0.3157 -0.5569 -0.7682
vn 0.6429 -0.5630 -0.5193
vn 0.2281 -0.5484 -0.8045
vn 0.5038 -0.5569 -0.6603
vn 0.7554 -0.5630 -0.3352
vn 0.4285 -0.5484 -0.7181
vn 0.6575 -0.5569 -0.5074
vn 0.8164 -0.5630 -0.1283
vn 0.5998 -0.5484 -0.5827
vn 0.7665 -0.5569 -0.3200
vn 0.8218 -0.5630 0.0874
vn 0.7301 -0.5484 -0.4076
vn 0.8232 -0.5569 -0.1107
vn 0.7712 -0.5630 0.2971
vn 0.8108 -0.5484 -0.2047
vn 0.8238 -0.5569 0.1061
vn 0.6680 -0.5630 0.4866
vn 0.8361 -0.5484 0.0121
vn 0.7682 -0.5569 0.3157
vn 0.5193 -0.5630 0.6429
vn 0.8045 -0.5484 0.2281
vn 0.6603 -0.5569 0.5038
vn 0.3352 -0.5630 0.7554
vn 0.7181 -0.5484 0.4285
vn 0.5074 -0.5569 0.6575
vn 0.1283 -0.5630 0.8164
vn 0.5827 -0.5484 0.5998
vn 0.3200 -0.5569 0.7665
vn -0.0874 -0.5630 0.8218
vn 0.4076 -0.5484 0.7301
vn 0.1107 -0.5569 0.8232
vn -0.2971 -0.5630 0.7712
vn 0.2047 -0.5484 0.8108
vn -0.1061 -0.5569 0.8238
vn -0.4866 -0.5630 0.6680
vn -0.0121 -0.5484 0.8361
vn -0.3157 -0.5569 0.7682
vn -0.6429 -0.5630 0.5193
vn -0.2281 -0.5484 0.8045
vn -0.5038 -0.5569 0.6603
vn -0.7554 -0.5630 0.3352
vt 1.000000 0.737514
vt 1.000000 1.000000
vt 0.958333 1.000000
vt 0.958333 0.737514
vt 0.916667 1.000000
vt 0.916667 0.737514
vt 0.875000 1.000000
vt 0.875000 0.737514
vt 0.833333 1.000000
vt 0.833333 0.737514
vt 0.791667 1.000000
vt 0.791667 0.737514
vt 0.750000 1.000000
vt 0.750000 0.737514
vt 0.708333 1.000000
vt 0.708333 0.737514
vt 0.666667 1.000000
vt 0.666667 0.737514
vt 0.625000 1.000000
vt 0.625000 0.737514
vt 0.583333 1.000000
vt 0.583333 0.737514
vt 0.541666 1.000000
vt 0.541667 0.737514
vt 0.500000 1.000000
vt 0.500000 0.737514
vt 0.458333 1.000000
vt 0.458333 0.737514
vt 0.416666 1.000000
vt 0.416666 0.737514
vt 0.375000 1.000000
vt 0.375000 0.737514
vt 0.333333 1.000000
vt 0.333333 0.737514
vt 0.291667 1.000000
vt 0.291666 0.737514
vt 0.250000 1.000000
vt 0.250000 0.737514
vt 0.208333 1.000000
vt 0.208333 0.737514
vt 0.166666 1.000000
vt 0.166666 0.737514
vt 0.125000 1.000000
vt 0.125000 0.737514
vt 0.083333 1.000000
vt 0.083333 0.737514
vt 0.041666 1.000000
vt 0.041666 0.737514
vt -0.000000 1.000000
vt -0.000000 0.737514
vt 0.041666 0.000000
vt 0.041666 0.237514
vt -0.000000 0.237514
vt -0.000000 0.000000
vt 0.041666 0.487514
vt -0.000000 0.487514
vt 0.083333 0.000000
vt 0.083333 0.237514
vt 0.083333 0.487514
vt 0.125000 0.000000
vt 0.125000 0.237514
vt 0.125000 0.487514
vt 0.166666 0.000000
vt 0.166666 0.237514
vt 0.166666 0.487514
vt 0.208333 0.000000
vt 0.208333 0.237514
vt 0.208333 0.487514
vt 0.250000 0.000000
vt 0.250000 0.237514
vt 0.250000 0.487514
vt 0.291667 0.000000
vt 0.291667 0.237514
vt 0.291667 0.487514
vt 0.333333 0.000000
vt 0.333333 0.237514
vt 0.333333 0.487514
vt 0.375000 0.000000
vt 0.375000 0.237514
vt 0.375000 0.487514
vt 0.416666 0.000000
vt 0.416666 0.237514
vt 0.416666 0.487514
vt 0.458333 0.000000
vt 0.458333 0.237514
vt 0.458333 0.487514
vt 0.500000 0.000000
vt 0.500000 0.237514
vt 0.500000 0.487514
vt 0.541666 0.000000
vt 0.541666 0.237514
vt 0.541666 0.487514
vt 0.583333 0.000000
vt 0.583333 0.237514
vt 0.583333 0.487514
vt 0.625000 0.000000
vt 0.625000 0.237514
vt 0.625000 0.487514
vt 0.666667 0.000000
vt 0.666667 0.237514
vt 0.666667 0.487514
vt 0.708333 0.000000
vt 0.708333 0.237514
vt 0.708333 0.487514
vt 0.750000 0.000000
vt 0.750000 0.237514
vt 0.750000 0.487514
vt 0.791667 0.000000
vt 0.791667 0.237514
vt 0.791667 0.487514
vt 0.833333 0.000000
vt 0.833333 0.237514
vt 0.833333 0.487514
vt 0.875000 0.000000
vt 0.875000 0.237514
vt 0.875000 0.487514
vt 0.916667 0.000000
vt 0.916667 0.237514
vt 0.916667 0.487514
vt 0.958333 0.000000
vt 0.958333 0.237514
vt 0.958333 0.487514
vt 1.000000 0.000000
vt 1.000000 0.237514
vt 1.000000 0.487514
s 1
f 51/1/51 2/2/2 4/3/4 52/4/52
f 52/4/52 4/3/4 6/5/6 55/6/55
f 55/6/55 6/5/6 8/7/8 58/8/58
f 58/8/58 8/7/8 10/9/10 61/10/61
f 61/10/61 10/9/10 12/11/12 64/12/64
f 64/12/64 12/11/12 14/13/14 67/14/67
f 67/14/67 14/13/14 16/15/16 70/16/70
f 70/16/70 16/15/16 18/17/18 73/18/73
f 73/18/73 18/17/18 20/19/20 76/20/76
f 76/20/76 20/19/20 22/21/22 79/22/79
f 79/22/79 22/21/22 24/23/24 82/24/82
f 82/24/82 24/23/24 26/25/26 85/26/85
f 85/26/85 26/25/26 28/27/28 88/28/88
f 88/28/88 28/27/28 30/29/30 91/30/91
f 91/30/91 30/29/30 32/31/32 94/32/94
f 94/32/94 32/31/32 34/33/34 97/34/97
f 97/34/97 34/33/34 36/35/36 100/36/100
f 100/36/100 36/35/36 38/37/38 103/38/103
f 103/38/103 38/37/38 40/39/40 106/40/106
f 106/40/106 40/39/40 42/41/42 109/42/109
f 109/42/109 42/41/42 44/43/44 112/44/112
f 112/44/112 44/43/44 46/45/46 115/46/115
f 115/46/115 46/45/46 48/47/48 118/48/118
f 118/48/118 48/47/48 2/49/2 51/50/51
f 47/51/47 120/52/120 49/53/49 1/54/1
f 120/52/120 119/55/119 50/56/50 49/53/49
f 119/55/119 118/48/118 51/50/51 50/56/50
f 45/57/45 117/58/117 120/52/120 47/51/47
f 117/58/117 116/59/116 119/55/119 120/52/120
f 116/59/116 115/46/115 118/48/118 119/55/119
f 43/60/43 114/61/114 117/58/117 45/57/45
f 114/61/114 113/62/113 116/59/116 117/58/117
f 113/62/113 112/44/112 115/46/115 116/59/116
f 41/63/41 111/64/111 114/61/114 43/60/43
f 111/64/111 110/65/110 113/62/113 114/61/114
f 110/65/110 109/42/109 112/44/112 113/62/113
f 39/66/39 108/67/108 111/64/111 41/63/41
f 108/67/108 107/68/107 110/65/110 111/64/111
f 107/68/107 106/40/106 109/42/109 110/65/110
f 37/69/37 105/70/105 108/67/108 39/66/39
f 105/70/105 104/71/104 107/68/107 108/67/108
f 104/71/104 103/38/103 106/40/106 107/68/107
f 35/72/35 102/73/102 105/70/105 37/69/37
f 102/73/102 101/74/101 104/71/104 105/70/105
f 101/74/101 100/36/100 103/38/103 104/71/104
f 33/75/33 99/76/99 102/73/102 35/72/35
f 99/76/99 98/77/98 101/74/101 102/73/102
f 98/77/98 97/34/97 100/36/100 101/74/101
f 31/78/31 96/79/96 99/76/99 33/75/33
f 96/79/96 95/80/95 98/77/98 99/76/99
f 95/80/95 94/32/94 97/34/97 98/77/98
f 29/81/29 93/82/93 96/79/96 31/78/31
f 93/82/93 92/83/92 95/80/95 96/79/96
f 92/83/92 91/30/91 94/32/94 95/80/95
f 27/84/27 90/85/90 93/82/93 29/81/29
f 90/85/90 89/86/89 92/83/92 93/82/93
f 89/86/89 88/28/88 91/30/91 92/83/92
f 25/87/25 87/88/87 90/85/90 27/84/27
f 87/88/87 86/89/86 89/86/89 90/85/90
f 86/89/86 85/26/85 88/28/88 89/86/89
f 23/90/23 84/91/84 87/88/87 25/87/25
f 84/91/84 83/92/83 86/89/86 87/88/87
f 83/92/83 82/24/82 85/26/85 86/89/86
f 21/93/21 81/94/81 84/91/84 23/90/23
f 81/94/81 80/95/80 83/92/83 84/91/84
f 80/95/80 79/22/79 82/24/82 83/92/83
f 19/96/19 78/97/78 81/94/81 21/93/21
f 78/97/78 77/98/77 80/95/80 81/94/81
f 77/98/77 76/20/76 79/22/79 80/95/80
f 17/99/17 75/100/75 78/97/78 19/96/19
f 75/100/75 74/101/74 77/98/77 78/97/78
f 74/101/74 73/18/73 76/20/76 77/98/77
f 15/102/15 72/103/72 75/100/75 17/99/17
f 72/103/72 71/104/71 74/101/74 75/100/75
f 71/104/71 70/16/70 73/18/73 74/101/74
f 13/105/13 69/106/69 72/103/72 15/102/15
f 69/106/69 68/107/68 71/104/71 72/103/72
f 68/107/68 67/14/67 70/16/70 71/104/71
f 11/108/11 66/109/66 69/106/69 13/105/13
f 66/109/66 65/110/65 68/107/68 69/106/69
f 65/110/65 64/12/64 67/14/67 68/107/68
f 9/111/9 63/112/63 66/109/66 11/108/11
f 63/112/63 62/113/62 65/110/65 66/109/66
f 62/113/62 61/10/61 64/12/64 65/110/65
f 7/114/7 60/115/60 63/112/63 9/111/9
f 60/115/60 59/116/59 62/113/62 63/112/63
f 59/116/59 58/8/58 61/10/61 62/113/62
f 5/117/5 57/118/57 60/115/60 7/114/7
f 57/118/57 56/119/56 59/116/59 60/115/60
f 56/119/56 55/6/55 58/8/58 59/116/59
f 3/120/3 54/121/54 57/118/57 5/117/5
f 54/121/54 53/122/53 56/119/56 57/118/57
f 53/122/53 52/4/52 55/6/55 56/119/56
f 1/123/1 49/124/49 54/121/54 3/120/3
f 49/124/49 50/125/50 53/122/53 54/121/54
f 50/125/50 51/1/51 52/4/52 53/122/53
