# Blender 5.1.2
# www.blender.org
mtllib lightning_mesh.mtl
o Plane
v -1.530212 0.000000 1.530212
v 1.530212 0.000000 1.530212
v -1.530212 0.000000 -1.530212
v 1.530212 0.000000 -1.530212
v -0.744602 14.757067 0.442210
v -0.535936 -0.676676 -0.000000
v 1.049220 14.757067 -0.442210
v 0.535935 -0.676676 0.000000
v -0.434776 13.941177 0.262468
v -0.094043 13.122104 0.083236
v -0.174004 12.033465 0.097400
v -0.881956 10.981106 0.428946
v -1.199313 10.195391 0.744235
v -0.682024 9.309863 1.334902
v 0.574473 8.401997 1.534556
v 1.457920 7.494129 0.854820
v 1.763236 6.586262 0.267111
v 1.636958 5.678395 0.286192
v 0.903005 4.687274 0.487499
v -0.151134 3.543983 0.200392
v -1.022036 2.382350 -0.000000
v -1.138286 1.462220 -0.000000
v -0.871331 0.481492 -0.000000
v -0.605149 -0.164868 -0.000000
v 0.522347 -0.164868 0.000000
v 0.404369 0.481491 0.000000
v 0.334147 1.328364 0.000000
v 0.755713 2.346911 0.000000
v 1.739187 3.546811 0.026551
v 2.716727 4.743054 -0.350930
v 3.166842 5.678394 -1.002005
v 3.012337 6.586262 -1.294857
v 2.495768 7.494129 -0.854820
v 1.964913 8.401996 0.013524
v 1.309007 9.309863 0.588610
v 0.898279 10.138062 0.547951
v 1.394009 10.981091 0.042423
v 2.333195 12.033465 -0.378790
v 2.194575 13.122102 -0.633278
v 1.485710 13.941177 -0.590310
v -0.174004 12.033465 0.097400
v 0.000000 0.011608 -1.000000
v -0.000000 2.011608 -3.193088
v 0.195090 0.011608 -0.980785
v 0.622941 2.011608 -3.131734
v 0.382683 0.011608 -0.923880
v 1.221942 2.011608 -2.950029
v 0.555570 0.011608 -0.831470
v 1.773985 2.011608 -2.654956
v 0.707107 0.011608 -0.707107
v 2.257854 2.011608 -2.257854
v 0.831470 0.011608 -0.555570
v 2.654956 2.011608 -1.773985
v 0.923880 0.011608 -0.382683
v 2.950029 2.011608 -1.221942
v 0.980785 0.011608 -0.195090
v 3.131734 2.011608 -0.622941
v 1.000000 0.011608 0.000000
v 3.193088 2.011608 0.000000
v 0.980785 0.011608 0.195090
v 3.131734 2.011608 0.622941
v 0.923880 0.011608 0.382683
v 2.950029 2.011608 1.221942
v 0.831470 0.011608 0.555570
v 2.654956 2.011608 1.773985
v 0.707107 0.011608 0.707107
v 2.257854 2.011608 2.257854
v 0.555570 0.011608 0.831470
v 1.773985 2.011608 2.654956
v 0.382683 0.011608 0.923880
v 1.221942 2.011608 2.950029
v 0.195090 0.011608 0.980785
v 0.622941 2.011608 3.131734
v 0.000000 0.011608 1.000000
v -0.000000 2.011608 3.193088
v -0.195090 0.011608 0.980785
v -0.622941 2.011608 3.131734
v -0.382683 0.011608 0.923880
v -1.221942 2.011608 2.950029
v -0.555570 0.011608 0.831470
v -1.773985 2.011608 2.654956
v -0.707107 0.011608 0.707107
v -2.257854 2.011608 2.257854
v -0.831470 0.011608 0.555570
v -2.654956 2.011608 1.773985
v -0.923880 0.011608 0.382683
v -2.950029 2.011608 1.221942
v -0.980785 0.011608 0.195090
v -3.131734 2.011608 0.622941
v -1.000000 0.011608 0.000000
v -3.193088 2.011608 0.000000
v -0.980785 0.011608 -0.195090
v -3.131734 2.011608 -0.622941
v -0.923880 0.011608 -0.382683
v -2.950029 2.011608 -1.221942
v -0.831470 0.011608 -0.555570
v -2.654956 2.011608 -1.773985
v -0.707107 0.011608 -0.707107
v -2.257854 2.011608 -2.257854
v -0.555570 0.011608 -0.831470
v -1.773985 2.011608 -2.654956
v -0.382683 0.011608 -0.923880
v -1.221942 2.011608 -2.950029
v -0.195090 0.011608 -0.980785
v -0.622941 2.011608 -3.131734
vn -0.0000 1.0000 -0.0000
vn 0.4236 0.0118 0.9058
vn -0.0000 -0.0000 1.0000
vn 0.3967 0.0426 0.9170
vn 0.2994 0.1095 0.9478
vn 0.2006 0.1748 0.9639
vn 0.1424 0.3360 0.9310
vn 0.1665 0.4154 0.8943
vn 0.3043 0.4244 0.8528
vn 0.5967 0.3186 0.7365
vn 0.8018 0.0919 0.5905
vn 0.7747 0.0831 0.6268
vn 0.6102 0.0791 0.7883
vn 0.3474 -0.1233 0.9296
vn 0.1075 -0.1488 0.9830
vn 0.0166 -0.0477 0.9987
vn 0.0299 -0.0856 0.9959
vn 0.2017 -0.1747 0.9637
vn 0.4671 -0.0207 0.8840
vn 0.6529 0.1003 0.7508
vn 0.7561 0.0973 0.6472
vn 0.8130 0.0625 0.5788
vn 0.7364 0.1821 0.6516
vn 0.4161 0.4057 0.8138
vn 0.1673 0.4158 0.8939
vn 0.1598 0.2668 0.9504
vn 0.2163 0.1550 0.9639
vn 0.2780 0.1152 0.9536
vn 0.3727 0.0692 0.9254
vn -0.0000 0.7389 0.6738
vn -0.1315 0.7389 0.6609
vn -0.2579 0.7389 0.6225
vn -0.3744 0.7389 0.5603
vn -0.4765 0.7389 0.4765
vn -0.5603 0.7389 0.3744
vn -0.6225 0.7389 0.2579
vn -0.6609 0.7389 0.1315
vn -0.6738 0.7389 -0.0000
vn -0.6609 0.7389 -0.1315
vn -0.6225 0.7389 -0.2579
vn -0.5603 0.7389 -0.3744
vn -0.4765 0.7389 -0.4765
vn -0.3744 0.7389 -0.5603
vn -0.2579 0.7389 -0.6225
vn -0.1315 0.7389 -0.6609
vn -0.0000 0.7389 -0.6738
vn 0.1315 0.7389 -0.6609
vn 0.2579 0.7389 -0.6225
vn 0.3744 0.7389 -0.5603
vn 0.4765 0.7389 -0.4765
vn 0.5603 0.7389 -0.3744
vn 0.6225 0.7389 -0.2579
vn 0.6609 0.7389 -0.1315
vn 0.6738 0.7389 -0.0000
vn 0.6609 0.7389 0.1315
vn 0.6225 0.7389 0.2579
vn 0.5603 0.7389 0.3744
vn 0.4765 0.7389 0.4765
vn 0.3744 0.7389 0.5603
vn 0.2579 0.7389 0.6225
vn 0.1315 0.7389 0.6609
vt 0.000000 0.000000
vt 1.000000 0.000000
vt 1.000000 1.000000
vt 0.000000 1.000000
vt 0.941176 0.000000
vt 0.941176 1.000000
vt 0.058824 0.000000
vt 0.058824 1.000000
vt 0.117647 0.000000
vt 0.117647 1.000000
vt 0.176471 0.000000
vt 0.176471 1.000000
vt 0.235294 0.000000
vt 0.235294 1.000000
vt 0.294118 0.000000
vt 0.294118 1.000000
vt 0.352941 0.000000
vt 0.352941 1.000000
vt 0.411765 0.000000
vt 0.411765 1.000000
vt 0.470588 0.000000
vt 0.470588 1.000000
vt 0.529412 0.000000
vt 0.529412 1.000000
vt 0.588235 0.000000
vt 0.588235 1.000000
vt 0.647059 0.000000
vt 0.647059 1.000000
vt 0.705882 0.000000
vt 0.705882 1.000000
vt 0.764706 0.000000
vt 0.764706 1.000000
vt 0.823529 0.000000
vt 0.823529 1.000000
vt 0.882353 0.000000
vt 0.882353 1.000000
vt 0.968750 0.000000
vt 0.968750 1.000000
vt 0.937500 0.000000
vt 0.937500 1.000000
vt 0.906250 0.000000
vt 0.906250 1.000000
vt 0.875000 0.000000
vt 0.875000 1.000000
vt 0.843750 0.000000
vt 0.843750 1.000000
vt 0.812500 0.000000
vt 0.812500 1.000000
vt 0.781250 0.000000
vt 0.781250 1.000000
vt 0.750000 0.000000
vt 0.750000 1.000000
vt 0.718750 0.000000
vt 0.718750 1.000000
vt 0.687500 0.000000
vt 0.687500 1.000000
vt 0.656250 0.000000
vt 0.656250 1.000000
vt 0.625000 0.000000
vt 0.625000 1.000000
vt 0.593750 0.000000
vt 0.593750 1.000000
vt 0.562500 0.000000
vt 0.562500 1.000000
vt 0.531250 0.000000
vt 0.531250 1.000000
vt 0.500000 0.000000
vt 0.500000 1.000000
vt 0.468750 0.000000
vt 0.468750 1.000000
vt 0.437500 0.000000
vt 0.437500 1.000000
vt 0.406250 0.000000
vt 0.406250 1.000000
vt 0.375000 0.000000
vt 0.375000 1.000000
vt 0.343750 0.000000
vt 0.343750 1.000000
vt 0.312500 0.000000
vt 0.312500 1.000000
vt 0.281250 0.000000
vt 0.281250 1.000000
vt 0.250000 0.000000
vt 0.250000 1.000000
vt 0.218750 0.000000
vt 0.218750 1.000000
vt 0.187500 0.000000
vt 0.187500 1.000000
vt 0.156250 0.000000
vt 0.156250 1.000000
vt 0.125000 0.000000
vt 0.125000 1.000000
vt 0.093750 0.000000
vt 0.093750 1.000000
vt 0.062500 0.000000
vt 0.062500 1.000000
vt 0.031250 0.000000
vt 0.031250 1.000000
s 1
usemtl Material.003
f 1/1/1 2/2/1 4/3/1 3/4/1
usemtl Material.001
f 24/5/3 6/2/3 8/3/3 25/6/3
f 5/1/2 9/7/4 40/8/29 7/4/2
f 9/7/4 10/9/5 39/10/28 40/8/29
f 10/9/5 11/11/6 38/12/27 39/10/28
f 11/11/6 12/13/7 37/14/26 38/12/27
f 12/13/7 13/15/8 36/16/25 37/14/26
f 13/15/8 14/17/9 35/18/24 36/16/25
f 14/17/9 15/19/10 34/20/23 35/18/24
f 15/19/10 16/21/11 33/22/22 34/20/23
f 16/21/11 17/23/12 32/24/21 33/22/22
f 17/23/12 18/25/13 31/26/20 32/24/21
f 18/25/13 19/27/14 30/28/19 31/26/20
f 19/27/14 20/29/15 29/30/18 30/28/19
f 20/29/15 21/31/16 28/32/17 29/30/18
f 21/31/16 22/33/3 27/34/3 28/32/17
f 22/33/3 23/35/3 26/36/3 27/34/3
f 23/35/3 24/5/3 25/6/3 26/36/3
usemtl Material.002
f 42/2/30 44/37/31 45/38/31 43/3/30
f 44/37/31 46/39/32 47/40/32 45/38/31
f 46/39/32 48/41/33 49/42/33 47/40/32
f 48/41/33 50/43/34 51/44/34 49/42/33
f 50/43/34 52/45/35 53/46/35 51/44/34
f 52/45/35 54/47/36 55/48/36 53/46/35
f 54/47/36 56/49/37 57/50/37 55/48/36
f 56/49/37 58/51/38 59/52/38 57/50/37
f 58/51/38 60/53/39 61/54/39 59/52/38
f 60/53/39 62/55/40 63/56/40 61/54/39
f 62/55/40 64/57/41 65/58/41 63/56/40
f 64/57/41 66/59/42 67/60/42 65/58/41
f 66/59/42 68/61/43 69/62/43 67/60/42
f 68/61/43 70/63/44 71/64/44 69/62/43
f 70/63/44 72/65/45 73/66/45 71/64/44
f 72/65/45 74/67/46 75/68/46 73/66/45
f 74/67/46 76/69/47 77/70/47 75/68/46
f 76/69/47 78/71/48 79/72/48 77/70/47
f 78/71/48 80/73/49 81/74/49 79/72/48
f 80/73/49 82/75/50 83/76/50 81/74/49
f 82/75/50 84/77/51 85/78/51 83/76/50
f 84/77/51 86/79/52 87/80/52 85/78/51
f 86/79/52 88/81/53 89/82/53 87/80/52
f 88/81/53 90/83/54 91/84/54 89/82/53
f 90/83/54 92/85/55 93/86/55 91/84/54
f 92/85/55 94/87/56 95/88/56 93/86/55
f 94/87/56 96/89/57 97/90/57 95/88/56
f 96/89/57 98/91/58 99/92/58 97/90/57
f 98/91/58 100/93/59 101/94/59 99/92/58
f 100/93/59 102/95/60 103/96/60 101/94/59
f 102/95/60 104/97/61 105/98/61 103/96/60
f 104/97/61 42/1/30 43/4/30 105/98/61
